<svg width="351" height="249" viewBox="0 0 351 249" fill="none" xmlns="http://www.w3.org/2000/svg">
<g clip-path="url(#clip0_532_38145)">
<mask id="path-1-inside-1_532_38145" fill="white">
<path d="M0 12.4299C0 5.80252 5.37258 0.429932 12 0.429932H339C345.627 0.429932 351 5.80251 351 12.4299V248.43H0V12.4299Z"/>
</mask>
<path d="M0 12.4299C0 5.80252 5.37258 0.429932 12 0.429932H339C345.627 0.429932 351 5.80251 351 12.4299V248.43H0V12.4299Z" fill="url(#paint0_radial_532_38145)" fill-opacity="0.5"/>
<path opacity="0.2" d="M-274.417 -112.41H-294.865V-91.8767M-274.417 -112.41V-91.8767M-274.417 -112.41H-253.968M-274.417 -91.8767H-294.865M-274.417 -91.8767V-71.3433M-274.417 -91.8767H-253.968M-294.865 -91.8767V-71.3433M-274.417 -71.3433H-294.865M-274.417 -71.3433V-50.8099M-274.417 -71.3433H-253.968M-294.865 -71.3433V-50.8099M-274.417 -50.8099H-294.865M-274.417 -50.8099V-30.2765M-274.417 -50.8099H-253.968M-294.865 -50.8099V-30.2765M-274.417 -30.2765H-294.865M-274.417 -30.2765V-9.74307M-274.417 -30.2765H-253.968M-294.865 -30.2765V-9.74307M-274.417 -9.74307H-294.865M-274.417 -9.74307V10.7903M-274.417 -9.74307H-253.968M-294.865 -9.74307V10.7903M-274.417 10.7903H-294.865M-274.417 10.7903V31.3238M-274.417 10.7903H-253.968M-294.865 10.7903V31.3238M-274.417 31.3238H-294.865M-274.417 31.3238V51.8572M-274.417 31.3238H-253.968M-294.865 31.3238V51.8572M-274.417 51.8572H-294.865M-274.417 51.8572V72.3906M-274.417 51.8572H-253.968M-294.865 51.8572V72.3906M-274.417 72.3906H-294.865M-274.417 72.3906V92.924M-274.417 72.3906H-253.968M-294.865 72.3906V92.924M-274.417 92.924H-294.865M-274.417 92.924V113.457M-274.417 92.924H-253.968M-294.865 92.924V113.457M-274.417 113.457H-294.865M-274.417 113.457V133.991M-274.417 113.457H-253.968M-294.865 113.457V133.991M-274.417 133.991H-294.865M-274.417 133.991V154.524M-274.417 133.991H-253.968M-294.865 133.991V154.524M-274.417 154.524H-294.865M-274.417 154.524V175.058M-274.417 154.524H-253.968M-294.865 154.524V175.058M-274.417 175.058H-294.865M-274.417 175.058V195.591M-274.417 175.058H-253.968M-294.865 175.058V195.591M-274.417 195.591H-294.865M-274.417 195.591V216.125M-274.417 195.591H-253.968M-294.865 195.591V216.125M-274.417 216.125H-294.865M-274.417 216.125V236.658M-274.417 216.125H-253.968M-294.865 216.125V236.658M-274.417 236.658H-294.865M-274.417 236.658V257.191M-274.417 236.658H-253.968M-294.865 236.658V257.191M-274.417 257.191H-294.865M-274.417 257.191V277.725M-274.417 257.191H-253.968M-294.865 257.191V277.725M-274.417 277.725H-294.865M-274.417 277.725V298.258M-274.417 277.725H-253.968M-294.865 277.725V298.258H-274.417M-274.417 298.258H-253.968M-253.968 -112.41V-91.8767M-253.968 -112.41H-233.52M-253.968 -91.8767V-71.3433M-253.968 -91.8767H-233.52M-253.968 -71.3433V-50.8099M-253.968 -71.3433H-233.52M-253.968 -50.8099V-30.2765M-253.968 -50.8099H-233.52M-253.968 -30.2765V-9.74307M-253.968 -30.2765H-233.52M-253.968 -9.74307V10.7903M-253.968 -9.74307H-233.52M-253.968 10.7903V31.3238M-253.968 10.7903H-233.52M-253.968 31.3238V51.8572M-253.968 31.3238H-233.52M-253.968 51.8572V72.3906M-253.968 51.8572H-233.52M-253.968 72.3906V92.924M-253.968 72.3906H-233.52M-253.968 92.924V113.457M-253.968 92.924H-233.52M-253.968 113.457V133.991M-253.968 113.457H-233.52M-253.968 133.991V154.524M-253.968 133.991H-233.52M-253.968 154.524V175.058M-253.968 154.524H-233.52M-253.968 175.058V195.591M-253.968 175.058H-233.52M-253.968 195.591V216.125M-253.968 195.591H-233.52M-253.968 216.125V236.658M-253.968 216.125H-233.52M-253.968 236.658V257.191M-253.968 236.658H-233.52M-253.968 257.191V277.725M-253.968 257.191H-233.52M-253.968 277.725V298.258M-253.968 277.725H-233.52M-253.968 298.258H-233.52M-233.52 -112.41V-91.8767M-233.52 -112.41H-213.072M-233.52 -91.8767V-71.3433M-233.52 -91.8767H-213.072M-233.52 -71.3433V-50.8099M-233.52 -71.3433H-213.072M-233.52 -50.8099V-30.2765M-233.52 -50.8099H-213.072M-233.52 -30.2765V-9.74307M-233.52 -30.2765H-213.072M-233.52 -9.74307V10.7903M-233.52 -9.74307H-213.072M-233.52 10.7903V31.3238M-233.52 10.7903H-213.072M-233.52 31.3238V51.8572M-233.52 31.3238H-213.072M-233.52 51.8572V72.3906M-233.52 51.8572H-213.072M-233.52 72.3906V92.924M-233.52 72.3906H-213.072M-233.52 92.924V113.457M-233.52 92.924H-213.072M-233.52 113.457V133.991M-233.52 113.457H-213.072M-233.52 133.991V154.524M-233.52 133.991H-213.072M-233.52 154.524V175.058M-233.52 154.524H-213.072M-233.52 175.058V195.591M-233.52 175.058H-213.072M-233.52 195.591V216.125M-233.52 195.591H-213.072M-233.52 216.125V236.658M-233.52 216.125H-213.072M-233.52 236.658V257.191M-233.52 236.658H-213.072M-233.52 257.191V277.725M-233.52 257.191H-213.072M-233.52 277.725V298.258M-233.52 277.725H-213.072M-233.52 298.258H-213.072M-213.072 -112.41V-91.8767M-213.072 -112.41H-192.623M-213.072 -91.8767V-71.3433M-213.072 -91.8767H-192.623M-213.072 -71.3433V-50.8099M-213.072 -71.3433H-192.623M-213.072 -50.8099V-30.2765M-213.072 -50.8099H-192.623M-213.072 -30.2765V-9.74307M-213.072 -30.2765H-192.623M-213.072 -9.74307V10.7903M-213.072 -9.74307H-192.623M-213.072 10.7903V31.3238M-213.072 10.7903H-192.623M-213.072 31.3238V51.8572M-213.072 31.3238H-192.623M-213.072 51.8572V72.3906M-213.072 51.8572H-192.623M-213.072 72.3906V92.924M-213.072 72.3906H-192.623M-213.072 92.924V113.457M-213.072 92.924H-192.623M-213.072 113.457V133.991M-213.072 113.457H-192.623M-213.072 133.991V154.524M-213.072 133.991H-192.623M-213.072 154.524V175.058M-213.072 154.524H-192.623M-213.072 175.058V195.591M-213.072 175.058H-192.623M-213.072 195.591V216.125M-213.072 195.591H-192.623M-213.072 216.125V236.658M-213.072 216.125H-192.623M-213.072 236.658V257.191M-213.072 236.658H-192.623M-213.072 257.191V277.725M-213.072 257.191H-192.623M-213.072 277.725V298.258M-213.072 277.725H-192.623M-213.072 298.258H-192.623M-192.623 -112.41V-91.8767M-192.623 -112.41H-172.175M-192.623 -91.8767V-71.3433M-192.623 -91.8767H-172.175M-192.623 -71.3433V-50.8099M-192.623 -71.3433H-172.175M-192.623 -50.8099V-30.2765M-192.623 -50.8099H-172.175M-192.623 -30.2765V-9.74307M-192.623 -30.2765H-172.175M-192.623 -9.74307V10.7903M-192.623 -9.74307H-172.175M-192.623 10.7903V31.3238M-192.623 10.7903H-172.175M-192.623 31.3238V51.8572M-192.623 31.3238H-172.175M-192.623 51.8572V72.3906M-192.623 51.8572H-172.175M-192.623 72.3906V92.924M-192.623 72.3906H-172.175M-192.623 92.924V113.457M-192.623 92.924H-172.175M-192.623 113.457V133.991M-192.623 113.457H-172.175M-192.623 133.991V154.524M-192.623 133.991H-172.175M-192.623 154.524V175.058M-192.623 154.524H-172.175M-192.623 175.058V195.591M-192.623 175.058H-172.175M-192.623 195.591V216.125M-192.623 195.591H-172.175M-192.623 216.125V236.658M-192.623 216.125H-172.175M-192.623 236.658V257.191M-192.623 236.658H-172.175M-192.623 257.191V277.725M-192.623 257.191H-172.175M-192.623 277.725V298.258M-192.623 277.725H-172.175M-192.623 298.258H-172.175M-172.175 -112.41V-91.8767M-172.175 -112.41H-151.726M-172.175 -91.8767V-71.3433M-172.175 -91.8767H-151.726M-172.175 -71.3433V-50.8099M-172.175 -71.3433H-151.726M-172.175 -50.8099V-30.2765M-172.175 -50.8099H-151.726M-172.175 -30.2765V-9.74307M-172.175 -30.2765H-151.726M-172.175 -9.74307V10.7903M-172.175 -9.74307H-151.726M-172.175 10.7903V31.3238M-172.175 10.7903H-151.726M-172.175 31.3238V51.8572M-172.175 31.3238H-151.726M-172.175 51.8572V72.3906M-172.175 51.8572H-151.726M-172.175 72.3906V92.924M-172.175 72.3906H-151.726M-172.175 92.924V113.457M-172.175 92.924H-151.726M-172.175 113.457V133.991M-172.175 113.457H-151.726M-172.175 133.991V154.524M-172.175 133.991H-151.726M-172.175 154.524V175.058M-172.175 154.524H-151.726M-172.175 175.058V195.591M-172.175 175.058H-151.726M-172.175 195.591V216.125M-172.175 195.591H-151.726M-172.175 216.125V236.658M-172.175 216.125H-151.726M-172.175 236.658V257.191M-172.175 236.658H-151.726M-172.175 257.191V277.725M-172.175 257.191H-151.726M-172.175 277.725V298.258M-172.175 277.725H-151.726M-172.175 298.258H-151.726M-151.726 -112.41V-91.8767M-151.726 -112.41H-131.278M-151.726 -91.8767V-71.3433M-151.726 -91.8767H-131.278M-151.726 -71.3433V-50.8099M-151.726 -71.3433H-131.278M-151.726 -50.8099V-30.2765M-151.726 -50.8099H-131.278M-151.726 -30.2765V-9.74307M-151.726 -30.2765H-131.278M-151.726 -9.74307V10.7903M-151.726 -9.74307H-131.278M-151.726 10.7903V31.3238M-151.726 10.7903H-131.278M-151.726 31.3238V51.8572M-151.726 31.3238H-131.278M-151.726 51.8572V72.3906M-151.726 51.8572H-131.278M-151.726 72.3906V92.924M-151.726 72.3906H-131.278M-151.726 92.924V113.457M-151.726 92.924H-131.278M-151.726 113.457V133.991M-151.726 113.457H-131.278M-151.726 133.991V154.524M-151.726 133.991H-131.278M-151.726 154.524V175.058M-151.726 154.524H-131.278M-151.726 175.058V195.591M-151.726 175.058H-131.278M-151.726 195.591V216.125M-151.726 195.591H-131.278M-151.726 216.125V236.658M-151.726 216.125H-131.278M-151.726 236.658V257.191M-151.726 236.658H-131.278M-151.726 257.191V277.725M-151.726 257.191H-131.278M-151.726 277.725V298.258M-151.726 277.725H-131.278M-151.726 298.258H-131.278M-131.278 -112.41V-91.8767M-131.278 -112.41H-110.83M-131.278 -91.8767V-71.3433M-131.278 -91.8767H-110.83M-131.278 -71.3433V-50.8099M-131.278 -71.3433H-110.83M-131.278 -50.8099V-30.2765M-131.278 -50.8099H-110.83M-131.278 -30.2765V-9.74307M-131.278 -30.2765H-110.83M-131.278 -9.74307V10.7903M-131.278 -9.74307H-110.83M-131.278 10.7903V31.3238M-131.278 10.7903H-110.83M-131.278 31.3238V51.8572M-131.278 31.3238H-110.83M-131.278 51.8572V72.3906M-131.278 51.8572H-110.83M-131.278 72.3906V92.924M-131.278 72.3906H-110.83M-131.278 92.924V113.457M-131.278 92.924H-110.83M-131.278 113.457V133.991M-131.278 113.457H-110.83M-131.278 133.991V154.524M-131.278 133.991H-110.83M-131.278 154.524V175.058M-131.278 154.524H-110.83M-131.278 175.058V195.591M-131.278 175.058H-110.83M-131.278 195.591V216.125M-131.278 195.591H-110.83M-131.278 216.125V236.658M-131.278 216.125H-110.83M-131.278 236.658V257.191M-131.278 236.658H-110.83M-131.278 257.191V277.725M-131.278 257.191H-110.83M-131.278 277.725V298.258M-131.278 277.725H-110.83M-131.278 298.258H-110.83M-110.83 -112.41V-91.8767M-110.83 -112.41H-90.3813M-110.83 -91.8767V-71.3433M-110.83 -91.8767H-90.3813M-110.83 -71.3433V-50.8099M-110.83 -71.3433H-90.3813M-110.83 -50.8099V-30.2765M-110.83 -50.8099H-90.3813M-110.83 -30.2765V-9.74307M-110.83 -30.2765H-90.3813M-110.83 -9.74307V10.7903M-110.83 -9.74307H-90.3813M-110.83 10.7903V31.3238M-110.83 10.7903H-90.3813M-110.83 31.3238V51.8572M-110.83 31.3238H-90.3813M-110.83 51.8572V72.3906M-110.83 51.8572H-90.3813M-110.83 72.3906V92.924M-110.83 72.3906H-90.3813M-110.83 92.924V113.457M-110.83 92.924H-90.3813M-110.83 113.457V133.991M-110.83 113.457H-90.3813M-110.83 133.991V154.524M-110.83 133.991H-90.3813M-110.83 154.524V175.058M-110.83 154.524H-90.3813M-110.83 175.058V195.591M-110.83 175.058H-90.3813M-110.83 195.591V216.125M-110.83 195.591H-90.3813M-110.83 216.125V236.658M-110.83 216.125H-90.3813M-110.83 236.658V257.191M-110.83 236.658H-90.3813M-110.83 257.191V277.725M-110.83 257.191H-90.3813M-110.83 277.725V298.258M-110.83 277.725H-90.3813M-110.83 298.258H-90.3813M-90.3813 -112.41V-91.8767M-90.3813 -112.41H-69.9329M-90.3813 -91.8767V-71.3433M-90.3813 -91.8767H-69.9329M-90.3813 -71.3433V-50.8099M-90.3813 -71.3433H-69.9329M-90.3813 -50.8099V-30.2765M-90.3813 -50.8099H-69.9329M-90.3813 -30.2765V-9.74307M-90.3813 -30.2765H-69.9329M-90.3813 -9.74307V10.7903M-90.3813 -9.74307H-69.9329M-90.3813 10.7903V31.3238M-90.3813 10.7903H-69.9329M-90.3813 31.3238V51.8572M-90.3813 31.3238H-69.9329M-90.3813 51.8572V72.3906M-90.3813 51.8572H-69.9329M-90.3813 72.3906V92.924M-90.3813 72.3906H-69.9329M-90.3813 92.924V113.457M-90.3813 92.924H-69.9329M-90.3813 113.457V133.991M-90.3813 113.457H-69.9329M-90.3813 133.991V154.524M-90.3813 133.991H-69.9329M-90.3813 154.524V175.058M-90.3813 154.524H-69.9329M-90.3813 175.058V195.591M-90.3813 175.058H-69.9329M-90.3813 195.591V216.125M-90.3813 195.591H-69.9329M-90.3813 216.125V236.658M-90.3813 216.125H-69.9329M-90.3813 236.658V257.191M-90.3813 236.658H-69.9329M-90.3813 257.191V277.725M-90.3813 257.191H-69.9329M-90.3813 277.725V298.258M-90.3813 277.725H-69.9329M-90.3813 298.258H-69.9329M-69.9329 -112.41V-91.8767M-69.9329 -112.41H-49.4845M-69.9329 -91.8767V-71.3433M-69.9329 -91.8767H-49.4845M-69.9329 -71.3433V-50.8099M-69.9329 -71.3433H-49.4845M-69.9329 -50.8099V-30.2765M-69.9329 -50.8099H-49.4845M-69.9329 -30.2765V-9.74307M-69.9329 -30.2765H-49.4845M-69.9329 -9.74307V10.7903M-69.9329 -9.74307H-49.4845M-69.9329 10.7903V31.3238M-69.9329 10.7903H-49.4845M-69.9329 31.3238V51.8572M-69.9329 31.3238H-49.4845M-69.9329 51.8572V72.3906M-69.9329 51.8572H-49.4845M-69.9329 72.3906V92.924M-69.9329 72.3906H-49.4845M-69.9329 92.924V113.457M-69.9329 92.924H-49.4845M-69.9329 113.457V133.991M-69.9329 113.457H-49.4845M-69.9329 133.991V154.524M-69.9329 133.991H-49.4845M-69.9329 154.524V175.058M-69.9329 154.524H-49.4845M-69.9329 175.058V195.591M-69.9329 175.058H-49.4845M-69.9329 195.591V216.125M-69.9329 195.591H-49.4845M-69.9329 216.125V236.658M-69.9329 216.125H-49.4845M-69.9329 236.658V257.191M-69.9329 236.658H-49.4845M-69.9329 257.191V277.725M-69.9329 257.191H-49.4845M-69.9329 277.725V298.258M-69.9329 277.725H-49.4845M-69.9329 298.258H-49.4845M-49.4845 -112.41V-91.8767M-49.4845 -112.41H-29.0361M-49.4845 -91.8767V-71.3433M-49.4845 -91.8767H-29.0361M-49.4845 -71.3433V-50.8099M-49.4845 -71.3433H-29.0361M-49.4845 -50.8099V-30.2765M-49.4845 -50.8099H-29.0361M-49.4845 -30.2765V-9.74307M-49.4845 -30.2765H-29.0361M-49.4845 -9.74307V10.7903M-49.4845 -9.74307H-29.0361M-49.4845 10.7903V31.3238M-49.4845 10.7903H-29.0361M-49.4845 31.3238V51.8572M-49.4845 31.3238H-29.0361M-49.4845 51.8572V72.3906M-49.4845 51.8572H-29.0361M-49.4845 72.3906V92.924M-49.4845 72.3906H-29.0361M-49.4845 92.924V113.457M-49.4845 92.924H-29.0361M-49.4845 113.457V133.991M-49.4845 113.457H-29.0361M-49.4845 133.991V154.524M-49.4845 133.991H-29.0361M-49.4845 154.524V175.058M-49.4845 154.524H-29.0361M-49.4845 175.058V195.591M-49.4845 175.058H-29.0361M-49.4845 195.591V216.125M-49.4845 195.591H-29.0361M-49.4845 216.125V236.658M-49.4845 216.125H-29.0361M-49.4845 236.658V257.191M-49.4845 236.658H-29.0361M-49.4845 257.191V277.725M-49.4845 257.191H-29.0361M-49.4845 277.725V298.258M-49.4845 277.725H-29.0361M-49.4845 298.258H-29.0361M-29.0361 -112.41V-91.8767M-29.0361 -112.41H-8.58767M-29.0361 -91.8767V-71.3433M-29.0361 -91.8767H-8.58767M-29.0361 -71.3433V-50.8099M-29.0361 -71.3433H-8.58767M-29.0361 -50.8099V-30.2765M-29.0361 -50.8099H-8.58767M-29.0361 -30.2765V-9.74307M-29.0361 -30.2765H-8.58767M-29.0361 -9.74307V10.7903M-29.0361 -9.74307H-8.58767M-29.0361 10.7903V31.3238M-29.0361 10.7903H-8.58767M-29.0361 31.3238V51.8572M-29.0361 31.3238H-8.58767M-29.0361 51.8572V72.3906M-29.0361 51.8572H-8.58767M-29.0361 72.3906V92.924M-29.0361 72.3906H-8.58767M-29.0361 92.924V113.457M-29.0361 92.924H-8.58767M-29.0361 113.457V133.991M-29.0361 113.457H-8.58767M-29.0361 133.991V154.524M-29.0361 133.991H-8.58767M-29.0361 154.524V175.058M-29.0361 154.524H-8.58767M-29.0361 175.058V195.591M-29.0361 175.058H-8.58767M-29.0361 195.591V216.125M-29.0361 195.591H-8.58767M-29.0361 216.125V236.658M-29.0361 216.125H-8.58767M-29.0361 236.658V257.191M-29.0361 236.658H-8.58767M-29.0361 257.191V277.725M-29.0361 257.191H-8.58767M-29.0361 277.725V298.258M-29.0361 277.725H-8.58767M-29.0361 298.258H-8.58767M-8.58767 -112.41V-91.8767M-8.58767 -112.41H11.8607M-8.58767 -91.8767V-71.3433M-8.58767 -91.8767H11.8607M-8.58767 -71.3433V-50.8099M-8.58767 -71.3433H11.8607M-8.58767 -50.8099V-30.2765M-8.58767 -50.8099H11.8607M-8.58767 -30.2765V-9.74307M-8.58767 -30.2765H11.8607M-8.58767 -9.74307V10.7903M-8.58767 -9.74307H11.8607M-8.58767 10.7903V31.3238M-8.58767 10.7903H11.8607M-8.58767 31.3238V51.8572M-8.58767 31.3238H11.8607M-8.58767 51.8572V72.3906M-8.58767 51.8572H11.8607M-8.58767 72.3906V92.924M-8.58767 72.3906H11.8607M-8.58767 92.924V113.457M-8.58767 92.924H11.8607M-8.58767 113.457V133.991M-8.58767 113.457H11.8607M-8.58767 133.991V154.524M-8.58767 133.991H11.8607M-8.58767 154.524V175.058M-8.58767 154.524H11.8607M-8.58767 175.058V195.591M-8.58767 175.058H11.8607M-8.58767 195.591V216.125M-8.58767 195.591H11.8607M-8.58767 216.125V236.658M-8.58767 216.125H11.8607M-8.58767 236.658V257.191M-8.58767 236.658H11.8607M-8.58767 257.191V277.725M-8.58767 257.191H11.8607M-8.58767 277.725V298.258M-8.58767 277.725H11.8607M-8.58767 298.258H11.8607M11.8607 -112.41V-91.8767M11.8607 -112.41H32.3091M11.8607 -91.8767V-71.3433M11.8607 -91.8767H32.3091M11.8607 -71.3433V-50.8099M11.8607 -71.3433H32.3091M11.8607 -50.8099V-30.2765M11.8607 -50.8099H32.3091M11.8607 -30.2765V-9.74307M11.8607 -30.2765H32.3091M11.8607 -9.74307V10.7903M11.8607 -9.74307H32.3091M11.8607 10.7903V31.3238M11.8607 10.7903H32.3091M11.8607 31.3238V51.8572M11.8607 31.3238H32.3091M11.8607 51.8572V72.3906M11.8607 51.8572H32.3091M11.8607 72.3906V92.924M11.8607 72.3906H32.3091M11.8607 92.924V113.457M11.8607 92.924H32.3091M11.8607 113.457V133.991M11.8607 113.457H32.3091M11.8607 133.991V154.524M11.8607 133.991H32.3091M11.8607 154.524V175.058M11.8607 154.524H32.3091M11.8607 175.058V195.591M11.8607 175.058H32.3091M11.8607 195.591V216.125M11.8607 195.591H32.3091M11.8607 216.125V236.658M11.8607 216.125H32.3091M11.8607 236.658V257.191M11.8607 236.658H32.3091M11.8607 257.191V277.725M11.8607 257.191H32.3091M11.8607 277.725V298.258M11.8607 277.725H32.3091M11.8607 298.258H32.3091M32.3091 -112.41V-91.8767M32.3091 -112.41H52.7575M32.3091 -91.8767V-71.3433M32.3091 -91.8767H52.7575M32.3091 -71.3433V-50.8099M32.3091 -71.3433H52.7575M32.3091 -50.8099V-30.2765M32.3091 -50.8099H52.7575M32.3091 -30.2765V-9.74307M32.3091 -30.2765H52.7575M32.3091 -9.74307V10.7903M32.3091 -9.74307H52.7575M32.3091 10.7903V31.3238M32.3091 10.7903H52.7575M32.3091 31.3238V51.8572M32.3091 31.3238H52.7575M32.3091 51.8572V72.3906M32.3091 51.8572H52.7575M32.3091 72.3906V92.924M32.3091 72.3906H52.7575M32.3091 92.924V113.457M32.3091 92.924H52.7575M32.3091 113.457V133.991M32.3091 113.457H52.7575M32.3091 133.991V154.524M32.3091 133.991H52.7575M32.3091 154.524V175.058M32.3091 154.524H52.7575M32.3091 175.058V195.591M32.3091 175.058H52.7575M32.3091 195.591V216.125M32.3091 195.591H52.7575M32.3091 216.125V236.658M32.3091 216.125H52.7575M32.3091 236.658V257.191M32.3091 236.658H52.7575M32.3091 257.191V277.725M32.3091 257.191H52.7575M32.3091 277.725V298.258M32.3091 277.725H52.7575M32.3091 298.258H52.7575M52.7575 -112.41V-91.8767M52.7575 -112.41H73.2059M52.7575 -91.8767V-71.3433M52.7575 -91.8767H73.2059M52.7575 -71.3433V-50.8099M52.7575 -71.3433H73.2059M52.7575 -50.8099V-30.2765M52.7575 -50.8099H73.2059M52.7575 -30.2765V-9.74307M52.7575 -30.2765H73.2059M52.7575 -9.74307V10.7903M52.7575 -9.74307H73.2059M52.7575 10.7903V31.3238M52.7575 10.7903H73.2059M52.7575 31.3238V51.8572M52.7575 31.3238H73.2059M52.7575 51.8572V72.3906M52.7575 51.8572H73.2059M52.7575 72.3906V92.924M52.7575 72.3906H73.2059M52.7575 92.924V113.457M52.7575 92.924H73.2059M52.7575 113.457V133.991M52.7575 113.457H73.2059M52.7575 133.991V154.524M52.7575 133.991H73.2059M52.7575 154.524V175.058M52.7575 154.524H73.2059M52.7575 175.058V195.591M52.7575 175.058H73.2059M52.7575 195.591V216.125M52.7575 195.591H73.2059M52.7575 216.125V236.658M52.7575 216.125H73.2059M52.7575 236.658V257.191M52.7575 236.658H73.2059M52.7575 257.191V277.725M52.7575 257.191H73.2059M52.7575 277.725V298.258M52.7575 277.725H73.2059M52.7575 298.258H73.2059M73.2059 -112.41V-91.8767M73.2059 -112.41H93.6543M73.2059 -91.8767V-71.3433M73.2059 -91.8767H93.6543M73.2059 -71.3433V-50.8099M73.2059 -71.3433H93.6543M73.2059 -50.8099V-30.2765M73.2059 -50.8099H93.6543M73.2059 -30.2765V-9.74307M73.2059 -30.2765H93.6543M73.2059 -9.74307V10.7903M73.2059 -9.74307H93.6543M73.2059 10.7903V31.3238M73.2059 10.7903H93.6543M73.2059 31.3238V51.8572M73.2059 31.3238H93.6543M73.2059 51.8572V72.3906M73.2059 51.8572H93.6543M73.2059 72.3906V92.924M73.2059 72.3906H93.6543M73.2059 92.924V113.457M73.2059 92.924H93.6543M73.2059 113.457V133.991M73.2059 113.457H93.6543M73.2059 133.991V154.524M73.2059 154.524V175.058M73.2059 154.524H93.6543M73.2059 175.058V195.591M73.2059 175.058H93.6543M73.2059 195.591V216.125M73.2059 195.591H93.6543M73.2059 216.125V236.658M73.2059 216.125H93.6543M73.2059 236.658V257.191M73.2059 236.658H93.6543M73.2059 257.191V277.725M73.2059 257.191H93.6543M73.2059 277.725V298.258M73.2059 277.725H93.6543M73.2059 298.258H93.6543M93.6543 -112.41V-91.8767M93.6543 -112.41H114.103M93.6543 -91.8767V-71.3433M93.6543 -91.8767H114.103M93.6543 -71.3433V-50.8099M93.6543 -71.3433H114.103M93.6543 -50.8099V-30.2765M93.6543 -50.8099H114.103M93.6543 -30.2765V-9.74307M93.6543 -30.2765H114.103M93.6543 -9.74307V10.7903M93.6543 -9.74307H114.103M93.6543 10.7903V31.3238M93.6543 10.7903H114.103M93.6543 31.3238V51.8572M93.6543 31.3238H114.103M93.6543 51.8572V72.3906M93.6543 51.8572H114.103M93.6543 72.3906V92.924M93.6543 72.3906H114.103M93.6543 92.924V113.457M93.6543 92.924H114.103M93.6543 113.457H114.103M93.6543 154.524V175.058M93.6543 154.524H114.103M93.6543 175.058V195.591M93.6543 175.058H114.103M93.6543 195.591V216.125M93.6543 195.591H114.103M93.6543 216.125V236.658M93.6543 216.125H114.103M93.6543 236.658V257.191M93.6543 236.658H114.103M93.6543 257.191V277.725M93.6543 257.191H114.103M93.6543 277.725V298.258M93.6543 277.725H114.103M93.6543 298.258H114.103M114.103 -112.41V-91.8767M114.103 -112.41H134.551M114.103 -91.8767V-71.3433M114.103 -91.8767H134.551M114.103 -71.3433V-50.8099M114.103 -71.3433H134.551M114.103 -50.8099V-30.2765M114.103 -50.8099H134.551M114.103 -30.2765V-9.74307M114.103 -30.2765H134.551M114.103 -9.74307V10.7903M114.103 -9.74307H134.551M114.103 10.7903V31.3238M114.103 10.7903H134.551M114.103 31.3238V51.8572M114.103 31.3238H134.551M114.103 51.8572V72.3906M114.103 51.8572H134.551M114.103 72.3906V92.924M114.103 72.3906H134.551M114.103 92.924V113.457M114.103 92.924H134.551M114.103 113.457H134.551M114.103 154.524V175.058M114.103 154.524H134.551M114.103 175.058V195.591M114.103 175.058H134.551M114.103 195.591V216.125M114.103 195.591H134.551M114.103 216.125V236.658M114.103 216.125H134.551M114.103 236.658V257.191M114.103 236.658H134.551M114.103 257.191V277.725M114.103 257.191H134.551M114.103 277.725V298.258M114.103 277.725H134.551M114.103 298.258H134.551M134.551 -112.41V-91.8767M134.551 -112.41H154.999M134.551 -91.8767V-71.3433M134.551 -91.8767H154.999M134.551 -71.3433V-50.8099M134.551 -71.3433H154.999M134.551 -50.8099V-30.2765M134.551 -50.8099H154.999M134.551 -30.2765V-9.74307M134.551 -30.2765H154.999M134.551 -9.74307V10.7903M134.551 -9.74307H154.999M134.551 10.7903V31.3238M134.551 10.7903H154.999M134.551 31.3238V51.8572M134.551 31.3238H154.999M134.551 51.8572V72.3906M134.551 51.8572H154.999M134.551 72.3906V92.924M134.551 72.3906H154.999M134.551 92.924V113.457M134.551 92.924H154.999M134.551 113.457H154.999M134.551 154.524V175.058M134.551 154.524H154.999M134.551 175.058V195.591M134.551 175.058H154.999M134.551 195.591V216.125M134.551 195.591H154.999M134.551 216.125V236.658M134.551 216.125H154.999M134.551 236.658V257.191M134.551 236.658H154.999M134.551 257.191V277.725M134.551 257.191H154.999M134.551 277.725V298.258M134.551 277.725H154.999M134.551 298.258H154.999M154.999 -112.41V-91.8767M154.999 -112.41H175.448M154.999 -91.8767V-71.3433M154.999 -91.8767H175.448M154.999 -71.3433V-50.8099M154.999 -71.3433H175.448M154.999 -50.8099V-30.2765M154.999 -50.8099H175.448M154.999 -30.2765V-9.74307M154.999 -30.2765H175.448M154.999 -9.74307V10.7903M154.999 -9.74307H175.448M154.999 10.7903V31.3238M154.999 10.7903H175.448M154.999 31.3238V51.8572M154.999 31.3238H175.448M154.999 51.8572V72.3906M154.999 51.8572H175.448M154.999 72.3906V92.924M154.999 72.3906H175.448M154.999 92.924V113.457M154.999 92.924H175.448M154.999 113.457H175.448M154.999 154.524V175.058M154.999 154.524H175.448M154.999 175.058V195.591M154.999 175.058H175.448M154.999 195.591V216.125M154.999 195.591H175.448M154.999 216.125V236.658M154.999 216.125H175.448M154.999 236.658V257.191M154.999 236.658H175.448M154.999 257.191V277.725M154.999 257.191H175.448M154.999 277.725V298.258M154.999 277.725H175.448M154.999 298.258H175.448M175.448 -112.41V-91.8767M175.448 -112.41H195.896M175.448 -91.8767V-71.3433M175.448 -91.8767H195.896M175.448 -71.3433V-50.8099M175.448 -71.3433H195.896M175.448 -50.8099V-30.2765M175.448 -50.8099H195.896M175.448 -30.2765V-9.74307M175.448 -30.2765H195.896M175.448 -9.74307V10.7903M175.448 -9.74307H195.896M175.448 10.7903V31.3238M175.448 10.7903H195.896M175.448 31.3238V51.8572M175.448 31.3238H195.896M175.448 51.8572V72.3906M175.448 51.8572H195.896M175.448 72.3906V92.924M175.448 72.3906H195.896M175.448 92.924V113.457M175.448 92.924H195.896M175.448 113.457H195.896M175.448 154.524V175.058M175.448 154.524H195.896M175.448 175.058V195.591M175.448 175.058H195.896M175.448 195.591V216.125M175.448 195.591H195.896M175.448 216.125V236.658M175.448 216.125H195.896M175.448 236.658V257.191M175.448 236.658H195.896M175.448 257.191V277.725M175.448 257.191H195.896M175.448 277.725V298.258M175.448 277.725H195.896M175.448 298.258H195.896M195.896 -112.41V-91.8767M195.896 -112.41H216.345M195.896 -91.8767V-71.3433M195.896 -91.8767H216.345M195.896 -71.3433V-50.8099M195.896 -71.3433H216.345M195.896 -50.8099V-30.2765M195.896 -50.8099H216.345M195.896 -30.2765V-9.74307M195.896 -30.2765H216.345M195.896 -9.74307V10.7903M195.896 -9.74307H216.345M195.896 10.7903V31.3238M195.896 10.7903H216.345M195.896 31.3238V51.8572M195.896 31.3238H216.345M195.896 51.8572V72.3906M195.896 51.8572H216.345M195.896 72.3906V92.924M195.896 72.3906H216.345M195.896 92.924V113.457M195.896 92.924H216.345M195.896 113.457H216.345M195.896 154.524V175.058M195.896 154.524H216.345M195.896 175.058V195.591M195.896 175.058H216.345M195.896 195.591V216.125M195.896 195.591H216.345M195.896 216.125V236.658M195.896 216.125H216.345M195.896 236.658V257.191M195.896 236.658H216.345M195.896 257.191V277.725M195.896 257.191H216.345M195.896 277.725V298.258M195.896 277.725H216.345M195.896 298.258H216.345M216.345 -112.41V-91.8767M216.345 -112.41H236.793M216.345 -91.8767V-71.3433M216.345 -91.8767H236.793M216.345 -71.3433V-50.8099M216.345 -71.3433H236.793M216.345 -50.8099V-30.2765M216.345 -50.8099H236.793M216.345 -30.2765V-9.74307M216.345 -30.2765H236.793M216.345 -9.74307V10.7903M216.345 -9.74307H236.793M216.345 10.7903V31.3238M216.345 10.7903H236.793M216.345 31.3238V51.8572M216.345 31.3238H236.793M216.345 51.8572V72.3906M216.345 51.8572H236.793M216.345 72.3906V92.924M216.345 72.3906H236.793M216.345 92.924V113.457M216.345 92.924H236.793M216.345 113.457H236.793M216.345 154.524V175.058M216.345 154.524H236.793M216.345 175.058V195.591M216.345 175.058H236.793M216.345 195.591V216.125M216.345 195.591H236.793M216.345 216.125V236.658M216.345 216.125H236.793M216.345 236.658V257.191M216.345 236.658H236.793M216.345 257.191V277.725M216.345 257.191H236.793M216.345 277.725V298.258M216.345 277.725H236.793M216.345 298.258H236.793M236.793 -112.41V-91.8767M236.793 -112.41H257.241M236.793 -91.8767V-71.3433M236.793 -91.8767H257.241M236.793 -71.3433V-50.8099M236.793 -71.3433H257.241M236.793 -50.8099V-30.2765M236.793 -50.8099H257.241M236.793 -30.2765V-9.74307M236.793 -30.2765H257.241M236.793 -9.74307V10.7903M236.793 -9.74307H257.241M236.793 10.7903V31.3238M236.793 10.7903H257.241M236.793 31.3238V51.8572M236.793 31.3238H257.241M236.793 51.8572V72.3906M236.793 51.8572H257.241M236.793 72.3906V92.924M236.793 72.3906H257.241M236.793 92.924V113.457M236.793 92.924H257.241M236.793 113.457H257.241M236.793 154.524V175.058M236.793 154.524H257.241M236.793 175.058V195.591M236.793 175.058H257.241M236.793 195.591V216.125M236.793 195.591H257.241M236.793 216.125V236.658M236.793 216.125H257.241M236.793 236.658V257.191M236.793 236.658H257.241M236.793 257.191V277.725M236.793 257.191H257.241M236.793 277.725V298.258M236.793 277.725H257.241M236.793 298.258H257.241M257.241 -112.41V-91.8767M257.241 -112.41H277.69M257.241 -91.8767V-71.3433M257.241 -91.8767H277.69M257.241 -71.3433V-50.8099M257.241 -71.3433H277.69M257.241 -50.8099V-30.2765M257.241 -50.8099H277.69M257.241 -30.2765V-9.74307M257.241 -30.2765H277.69M257.241 -9.74307V10.7903M257.241 -9.74307H277.69M257.241 10.7903V31.3238M257.241 10.7903H277.69M257.241 31.3238V51.8572M257.241 31.3238H277.69M257.241 51.8572V72.3906M257.241 51.8572H277.69M257.241 72.3906V92.924M257.241 72.3906H277.69M257.241 92.924V113.457M257.241 92.924H277.69M257.241 113.457H277.69M257.241 154.524V175.058M257.241 154.524H277.69M257.241 175.058V195.591M257.241 175.058H277.69M257.241 195.591V216.125M257.241 195.591H277.69M257.241 216.125V236.658M257.241 216.125H277.69M257.241 236.658V257.191M257.241 236.658H277.69M257.241 257.191V277.725M257.241 257.191H277.69M257.241 277.725V298.258M257.241 277.725H277.69M257.241 298.258H277.69M277.69 -112.41V-91.8767M277.69 -112.41H298.138M277.69 -91.8767V-71.3433M277.69 -91.8767H298.138M277.69 -71.3433V-50.8099M277.69 -71.3433H298.138M277.69 -50.8099V-30.2765M277.69 -50.8099H298.138M277.69 -30.2765V-9.74307M277.69 -30.2765H298.138M277.69 -9.74307V10.7903M277.69 -9.74307H298.138M277.69 10.7903V31.3238M277.69 10.7903H298.138M277.69 31.3238V51.8572M277.69 31.3238H298.138M277.69 51.8572V72.3906M277.69 51.8572H298.138M277.69 72.3906V92.924M277.69 72.3906H298.138M277.69 92.924V113.457M277.69 92.924H298.138M277.69 113.457H298.138M277.69 154.524V175.058M277.69 154.524H298.138M277.69 175.058V195.591M277.69 175.058H298.138M277.69 195.591V216.125M277.69 195.591H298.138M277.69 216.125V236.658M277.69 216.125H298.138M277.69 236.658V257.191M277.69 236.658H298.138M277.69 257.191V277.725M277.69 257.191H298.138M277.69 277.725V298.258M277.69 277.725H298.138M277.69 298.258H298.138M298.138 -112.41V-91.8767M298.138 -112.41H318.587M298.138 -91.8767V-71.3433M298.138 -91.8767H318.587M298.138 -71.3433V-50.8099M298.138 -71.3433H318.587M298.138 -50.8099V-30.2765M298.138 -50.8099H318.587M298.138 -30.2765V-9.74307M298.138 -30.2765H318.587M298.138 -9.74307V10.7903M298.138 -9.74307H318.587M298.138 10.7903V31.3238M298.138 10.7903H318.587M298.138 31.3238V51.8572M298.138 31.3238H318.587M298.138 51.8572V72.3906M298.138 51.8572H318.587M298.138 72.3906V92.924M298.138 72.3906H318.587M298.138 92.924V113.457M298.138 92.924H318.587M298.138 113.457H318.587M298.138 154.524V175.058M298.138 154.524H318.587M298.138 175.058V195.591M298.138 175.058H318.587M298.138 195.591V216.125M298.138 195.591H318.587M298.138 216.125V236.658M298.138 216.125H318.587M298.138 236.658V257.191M298.138 236.658H318.587M298.138 257.191V277.725M298.138 257.191H318.587M298.138 277.725V298.258M298.138 277.725H318.587M298.138 298.258H318.587M318.587 -112.41V-91.8767M318.587 -112.41H339.035M318.587 -91.8767V-71.3433M318.587 -91.8767H339.035M318.587 -71.3433V-50.8099M318.587 -71.3433H339.035M318.587 -50.8099V-30.2765M318.587 -50.8099H339.035M318.587 -30.2765V-9.74307M318.587 -30.2765H339.035M318.587 -9.74307V10.7903M318.587 -9.74307H339.035M318.587 10.7903V31.3238M318.587 10.7903H339.035M318.587 31.3238V51.8572M318.587 31.3238H339.035M318.587 51.8572V72.3906M318.587 51.8572H339.035M318.587 72.3906V92.924M318.587 72.3906H339.035M318.587 92.924V113.457M318.587 92.924H339.035M318.587 113.457V133.991M318.587 113.457H339.035M318.587 133.991V154.524M318.587 133.991H339.035M318.587 154.524V175.058M318.587 154.524H339.035M318.587 175.058V195.591M318.587 175.058H339.035M318.587 195.591V216.125M318.587 195.591H339.035M318.587 216.125V236.658M318.587 216.125H339.035M318.587 236.658V257.191M318.587 236.658H339.035M318.587 257.191V277.725M318.587 257.191H339.035M318.587 277.725V298.258M318.587 277.725H339.035M318.587 298.258H339.035M339.035 -112.41V-91.8767M339.035 -112.41H359.483M339.035 -91.8767V-71.3433M339.035 -91.8767H359.483M339.035 -71.3433V-50.8099M339.035 -71.3433H359.483M339.035 -50.8099V-30.2765M339.035 -50.8099H359.483M339.035 -30.2765V-9.74307M339.035 -30.2765H359.483M339.035 -9.74307V10.7903M339.035 -9.74307H359.483M339.035 10.7903V31.3238M339.035 10.7903H359.483M339.035 31.3238V51.8572M339.035 31.3238H359.483M339.035 51.8572V72.3906M339.035 51.8572H359.483M339.035 72.3906V92.924M339.035 72.3906H359.483M339.035 92.924V113.457M339.035 92.924H359.483M339.035 113.457V133.991M339.035 113.457H359.483M339.035 133.991V154.524M339.035 133.991H359.483M339.035 154.524V175.058M339.035 154.524H359.483M339.035 175.058V195.591M339.035 175.058H359.483M339.035 195.591V216.125M339.035 195.591H359.483M339.035 216.125V236.658M339.035 216.125H359.483M339.035 236.658V257.191M339.035 236.658H359.483M339.035 257.191V277.725M339.035 257.191H359.483M339.035 277.725V298.258M339.035 277.725H359.483M339.035 298.258H359.483M359.483 -112.41V-91.8767M359.483 -112.41H379.932M359.483 -91.8767V-71.3433M359.483 -91.8767H379.932M359.483 -71.3433V-50.8099M359.483 -71.3433H379.932M359.483 -50.8099V-30.2765M359.483 -50.8099H379.932M359.483 -30.2765V-9.74307M359.483 -30.2765H379.932M359.483 -9.74307V10.7903M359.483 -9.74307H379.932M359.483 10.7903V31.3238M359.483 10.7903H379.932M359.483 31.3238V51.8572M359.483 31.3238H379.932M359.483 51.8572V72.3906M359.483 51.8572H379.932M359.483 72.3906V92.924M359.483 72.3906H379.932M359.483 92.924V113.457M359.483 92.924H379.932M359.483 113.457V133.991M359.483 113.457H379.932M359.483 133.991V154.524M359.483 133.991H379.932M359.483 154.524V175.058M359.483 154.524H379.932M359.483 175.058V195.591M359.483 175.058H379.932M359.483 195.591V216.125M359.483 195.591H379.932M359.483 216.125V236.658M359.483 216.125H379.932M359.483 236.658V257.191M359.483 236.658H379.932M359.483 257.191V277.725M359.483 257.191H379.932M359.483 277.725V298.258M359.483 277.725H379.932M359.483 298.258H379.932M379.932 -112.41V-91.8767M379.932 -112.41H400.38M379.932 -91.8767V-71.3433M379.932 -91.8767H400.38M379.932 -71.3433V-50.8099M379.932 -71.3433H400.38M379.932 -50.8099V-30.2765M379.932 -50.8099H400.38M379.932 -30.2765V-9.74307M379.932 -30.2765H400.38M379.932 -9.74307V10.7903M379.932 -9.74307H400.38M379.932 10.7903V31.3238M379.932 10.7903H400.38M379.932 31.3238V51.8572M379.932 31.3238H400.38M379.932 51.8572V72.3906M379.932 51.8572H400.38M379.932 72.3906V92.924M379.932 72.3906H400.38M379.932 92.924V113.457M379.932 92.924H400.38M379.932 113.457V133.991M379.932 113.457H400.38M379.932 133.991V154.524M379.932 133.991H400.38M379.932 154.524V175.058M379.932 154.524H400.38M379.932 175.058V195.591M379.932 175.058H400.38M379.932 195.591V216.125M379.932 195.591H400.38M379.932 216.125V236.658M379.932 216.125H400.38M379.932 236.658V257.191M379.932 236.658H400.38M379.932 257.191V277.725M379.932 257.191H400.38M379.932 277.725V298.258M379.932 277.725H400.38M379.932 298.258H400.38M400.38 -112.41V-91.8767M400.38 -112.41H420.829M400.38 -91.8767V-71.3433M400.38 -91.8767H420.829M400.38 -71.3433V-50.8099M400.38 -71.3433H420.829M400.38 -50.8099V-30.2765M400.38 -50.8099H420.829M400.38 -30.2765V-9.74307M400.38 -30.2765H420.829M400.38 -9.74307V10.7903M400.38 -9.74307H420.829M400.38 10.7903V31.3238M400.38 10.7903H420.829M400.38 31.3238V51.8572M400.38 31.3238H420.829M400.38 51.8572V72.3906M400.38 51.8572H420.829M400.38 72.3906V92.924M400.38 72.3906H420.829M400.38 92.924V113.457M400.38 92.924H420.829M400.38 113.457V133.991M400.38 113.457H420.829M400.38 133.991V154.524M400.38 133.991H420.829M400.38 154.524V175.058M400.38 154.524H420.829M400.38 175.058V195.591M400.38 175.058H420.829M400.38 195.591V216.125M400.38 195.591H420.829M400.38 216.125V236.658M400.38 216.125H420.829M400.38 236.658V257.191M400.38 236.658H420.829M400.38 257.191V277.725M400.38 257.191H420.829M400.38 277.725V298.258M400.38 277.725H420.829M400.38 298.258H420.829M420.829 -112.41V-91.8767M420.829 -112.41H441.277M420.829 -91.8767V-71.3433M420.829 -91.8767H441.277M420.829 -71.3433V-50.8099M420.829 -71.3433H441.277M420.829 -50.8099V-30.2765M420.829 -50.8099H441.277M420.829 -30.2765V-9.74307M420.829 -30.2765H441.277M420.829 -9.74307V10.7903M420.829 -9.74307H441.277M420.829 10.7903V31.3238M420.829 10.7903H441.277M420.829 31.3238V51.8572M420.829 31.3238H441.277M420.829 51.8572V72.3906M420.829 51.8572H441.277M420.829 72.3906V92.924M420.829 72.3906H441.277M420.829 92.924V113.457M420.829 92.924H441.277M420.829 113.457V133.991M420.829 113.457H441.277M420.829 133.991V154.524M420.829 133.991H441.277M420.829 154.524V175.058M420.829 154.524H441.277M420.829 175.058V195.591M420.829 175.058H441.277M420.829 195.591V216.125M420.829 195.591H441.277M420.829 216.125V236.658M420.829 216.125H441.277M420.829 236.658V257.191M420.829 236.658H441.277M420.829 257.191V277.725M420.829 257.191H441.277M420.829 277.725V298.258M420.829 277.725H441.277M420.829 298.258H441.277M441.277 -112.41V-91.8767M441.277 -112.41H461.725M441.277 -91.8767V-71.3433M441.277 -91.8767H461.725M441.277 -71.3433V-50.8099M441.277 -71.3433H461.725M441.277 -50.8099V-30.2765M441.277 -50.8099H461.725M441.277 -30.2765V-9.74307M441.277 -30.2765H461.725M441.277 -9.74307V10.7903M441.277 -9.74307H461.725M441.277 10.7903V31.3238M441.277 10.7903H461.725M441.277 31.3238V51.8572M441.277 31.3238H461.725M441.277 51.8572V72.3906M441.277 51.8572H461.725M441.277 72.3906V92.924M441.277 72.3906H461.725M441.277 92.924V113.457M441.277 92.924H461.725M441.277 113.457V133.991M441.277 113.457H461.725M441.277 133.991V154.524M441.277 133.991H461.725M441.277 154.524V175.058M441.277 154.524H461.725M441.277 175.058V195.591M441.277 175.058H461.725M441.277 195.591V216.125M441.277 195.591H461.725M441.277 216.125V236.658M441.277 216.125H461.725M441.277 236.658V257.191M441.277 236.658H461.725M441.277 257.191V277.725M441.277 257.191H461.725M441.277 277.725V298.258M441.277 277.725H461.725M441.277 298.258H461.725M461.725 -112.41V-91.8767M461.725 -112.41H482.174M461.725 -91.8767V-71.3433M461.725 -91.8767H482.174M461.725 -71.3433V-50.8099M461.725 -71.3433H482.174M461.725 -50.8099V-30.2765M461.725 -50.8099H482.174M461.725 -30.2765V-9.74307M461.725 -30.2765H482.174M461.725 -9.74307V10.7903M461.725 -9.74307H482.174M461.725 10.7903V31.3238M461.725 10.7903H482.174M461.725 31.3238V51.8572M461.725 31.3238H482.174M461.725 51.8572V72.3906M461.725 51.8572H482.174M461.725 72.3906V92.924M461.725 72.3906H482.174M461.725 92.924V113.457M461.725 92.924H482.174M461.725 113.457V133.991M461.725 113.457H482.174M461.725 133.991V154.524M461.725 133.991H482.174M461.725 154.524V175.058M461.725 154.524H482.174M461.725 175.058V195.591M461.725 175.058H482.174M461.725 195.591V216.125M461.725 195.591H482.174M461.725 216.125V236.658M461.725 216.125H482.174M461.725 236.658V257.191M461.725 236.658H482.174M461.725 257.191V277.725M461.725 257.191H482.174M461.725 277.725V298.258M461.725 277.725H482.174M461.725 298.258H482.174M482.174 -112.41V-91.8767M482.174 -112.41H502.622M482.174 -91.8767V-71.3433M482.174 -91.8767H502.622M482.174 -71.3433V-50.8099M482.174 -71.3433H502.622M482.174 -50.8099V-30.2765M482.174 -50.8099H502.622M482.174 -30.2765V-9.74307M482.174 -30.2765H502.622M482.174 -9.74307V10.7903M482.174 -9.74307H502.622M482.174 10.7903V31.3238M482.174 10.7903H502.622M482.174 31.3238V51.8572M482.174 31.3238H502.622M482.174 51.8572V72.3906M482.174 51.8572H502.622M482.174 72.3906V92.924M482.174 72.3906H502.622M482.174 92.924V113.457M482.174 92.924H502.622M482.174 113.457V133.991M482.174 113.457H502.622M482.174 133.991V154.524M482.174 133.991H502.622M482.174 154.524V175.058M482.174 154.524H502.622M482.174 175.058V195.591M482.174 175.058H502.622M482.174 195.591V216.125M482.174 195.591H502.622M482.174 216.125V236.658M482.174 216.125H502.622M482.174 236.658V257.191M482.174 236.658H502.622M482.174 257.191V277.725M482.174 257.191H502.622M482.174 277.725V298.258M482.174 277.725H502.622M482.174 298.258H502.622M502.622 -112.41V-91.8767M502.622 -112.41H523.071M502.622 -91.8767V-71.3433M502.622 -91.8767H523.071M502.622 -71.3433V-50.8099M502.622 -71.3433H523.071M502.622 -50.8099V-30.2765M502.622 -50.8099H523.071M502.622 -30.2765V-9.74307M502.622 -30.2765H523.071M502.622 -9.74307V10.7903M502.622 -9.74307H523.071M502.622 10.7903V31.3238M502.622 10.7903H523.071M502.622 31.3238V51.8572M502.622 31.3238H523.071M502.622 51.8572V72.3906M502.622 51.8572H523.071M502.622 72.3906V92.924M502.622 72.3906H523.071M502.622 92.924V113.457M502.622 92.924H523.071M502.622 113.457V133.991M502.622 113.457H523.071M502.622 133.991V154.524M502.622 133.991H523.071M502.622 154.524V175.058M502.622 154.524H523.071M502.622 175.058V195.591M502.622 175.058H523.071M502.622 195.591V216.125M502.622 195.591H523.071M502.622 216.125V236.658M502.622 216.125H523.071M502.622 236.658V257.191M502.622 236.658H523.071M502.622 257.191V277.725M502.622 257.191H523.071M502.622 277.725V298.258M502.622 277.725H523.071M502.622 298.258H523.071M523.071 -112.41V-91.8767M523.071 -112.41H543.519M523.071 -91.8767V-71.3433M523.071 -91.8767H543.519M523.071 -71.3433V-50.8099M523.071 -71.3433H543.519M523.071 -50.8099V-30.2765M523.071 -50.8099H543.519M523.071 -30.2765V-9.74307M523.071 -30.2765H543.519M523.071 -9.74307V10.7903M523.071 -9.74307H543.519M523.071 10.7903V31.3238M523.071 10.7903H543.519M523.071 31.3238V51.8572M523.071 31.3238H543.519M523.071 51.8572V72.3906M523.071 51.8572H543.519M523.071 72.3906V92.924M523.071 72.3906H543.519M523.071 92.924V113.457M523.071 92.924H543.519M523.071 113.457V133.991M523.071 113.457H543.519M523.071 133.991V154.524M523.071 133.991H543.519M523.071 154.524V175.058M523.071 154.524H543.519M523.071 175.058V195.591M523.071 175.058H543.519M523.071 195.591V216.125M523.071 195.591H543.519M523.071 216.125V236.658M523.071 216.125H543.519M523.071 236.658V257.191M523.071 236.658H543.519M523.071 257.191V277.725M523.071 257.191H543.519M523.071 277.725V298.258M523.071 277.725H543.519M523.071 298.258H543.519M543.519 -112.41V-91.8767M543.519 -112.41H563.967M543.519 -91.8767V-71.3433M543.519 -91.8767H563.967M543.519 -71.3433V-50.8099M543.519 -71.3433H563.967M543.519 -50.8099V-30.2765M543.519 -50.8099H563.967M543.519 -30.2765V-9.74307M543.519 -30.2765H563.967M543.519 -9.74307V10.7903M543.519 -9.74307H563.967M543.519 10.7903V31.3238M543.519 10.7903H563.967M543.519 31.3238V51.8572M543.519 31.3238H563.967M543.519 51.8572V72.3906M543.519 51.8572H563.967M543.519 72.3906V92.924M543.519 72.3906H563.967M543.519 92.924V113.457M543.519 92.924H563.967M543.519 113.457V133.991M543.519 113.457H563.967M543.519 133.991V154.524M543.519 133.991H563.967M543.519 154.524V175.058M543.519 154.524H563.967M543.519 175.058V195.591M543.519 175.058H563.967M543.519 195.591V216.125M543.519 195.591H563.967M543.519 216.125V236.658M543.519 216.125H563.967M543.519 236.658V257.191M543.519 236.658H563.967M543.519 257.191V277.725M543.519 257.191H563.967M543.519 277.725V298.258M543.519 277.725H563.967M543.519 298.258H563.967M563.967 -112.41V-91.8767M563.967 -112.41H584.416M563.967 -91.8767V-71.3433M563.967 -91.8767H584.416M563.967 -71.3433V-50.8099M563.967 -71.3433H584.416M563.967 -50.8099V-30.2765M563.967 -50.8099H584.416M563.967 -30.2765V-9.74307M563.967 -30.2765H584.416M563.967 -9.74307V10.7903M563.967 -9.74307H584.416M563.967 10.7903V31.3238M563.967 10.7903H584.416M563.967 31.3238V51.8572M563.967 31.3238H584.416M563.967 51.8572V72.3906M563.967 51.8572H584.416M563.967 72.3906V92.924M563.967 72.3906H584.416M563.967 92.924V113.457M563.967 92.924H584.416M563.967 113.457V133.991M563.967 113.457H584.416M563.967 133.991V154.524M563.967 133.991H584.416M563.967 154.524V175.058M563.967 154.524H584.416M563.967 175.058V195.591M563.967 175.058H584.416M563.967 195.591V216.125M563.967 195.591H584.416M563.967 216.125V236.658M563.967 216.125H584.416M563.967 236.658V257.191M563.967 236.658H584.416M563.967 257.191V277.725M563.967 257.191H584.416M563.967 277.725V298.258M563.967 277.725H584.416M563.967 298.258H584.416M584.416 -112.41V-91.8767M584.416 -112.41H604.864V-91.8767M584.416 -91.8767V-71.3433M584.416 -91.8767H604.864M584.416 -71.3433V-50.8099M584.416 -71.3433H604.864M584.416 -50.8099V-30.2765M584.416 -50.8099H604.864M584.416 -30.2765V-9.74307M584.416 -30.2765H604.864M584.416 -9.74307V10.7903M584.416 -9.74307H604.864M584.416 10.7903V31.3238M584.416 10.7903H604.864M584.416 31.3238V51.8572M584.416 31.3238H604.864M584.416 51.8572V72.3906M584.416 51.8572H604.864M584.416 72.3906V92.924M584.416 72.3906H604.864M584.416 92.924V113.457M584.416 92.924H604.864M584.416 113.457V133.991M584.416 113.457H604.864M584.416 133.991V154.524M584.416 133.991H604.864M584.416 154.524V175.058M584.416 154.524H604.864M584.416 175.058V195.591M584.416 175.058H604.864M584.416 195.591V216.125M584.416 195.591H604.864M584.416 216.125V236.658M584.416 216.125H604.864M584.416 236.658V257.191M584.416 236.658H604.864M584.416 257.191V277.725M584.416 257.191H604.864M584.416 277.725V298.258M584.416 277.725H604.864M584.416 298.258H604.864V277.725M604.864 -91.8767V-71.3433M604.864 -71.3433V-50.8099M604.864 -50.8099V-30.2765M604.864 -30.2765V-9.74307M604.864 -9.74307V10.7903M604.864 10.7903V31.3238M604.864 31.3238V51.8572M604.864 51.8572V72.3906M604.864 72.3906V92.924M604.864 92.924V113.457M604.864 113.457V133.991M604.864 133.991V154.524M604.864 154.524V175.058M604.864 175.058V195.591M604.864 195.591V216.125M604.864 216.125V236.658M604.864 236.658V257.191M604.864 257.191V277.725" stroke="url(#paint1_radial_532_38145)" stroke-width="0.138137"/>
<path d="M-213.071 -36.4363V-30.2764M-213.071 -30.2764V-24.1165M-213.071 -30.2764H-219.206M-213.071 -30.2764H-206.937M-213.071 127.831V133.991M-213.071 133.991V140.151M-213.071 133.991H-219.206M-213.071 133.991H-206.937M-213.071 292.099V298.259M-213.071 298.259V304.419M-213.071 298.259H-219.206M-213.071 298.259H-206.937M-49.4839 -36.4361V-30.2762M-49.4839 -30.2762V-24.1163M-49.4839 -30.2762H-55.6183M-49.4839 -30.2762H-43.3495M-49.4839 127.831V133.991M-49.4839 133.991V140.151M-49.4839 133.991H-55.6183M-49.4839 133.991H-43.3495M-49.4839 292.099V298.259M-49.4839 298.259V304.419M-49.4839 298.259H-55.6183M-49.4839 298.259H-43.3495M114.103 -36.4361V-30.2762M114.103 -30.2762V-24.1163M114.103 -30.2762H107.968M114.103 -30.2762H120.237M114.103 292.099V298.259M114.103 298.259V304.419M114.103 298.259H107.968M114.103 298.259H120.237M277.69 -36.4361V-30.2762M277.69 -30.2762V-24.1163M277.69 -30.2762H271.555M277.69 -30.2762H283.824M277.69 292.099V298.259M277.69 298.259V304.419M277.69 298.259H271.555M277.69 298.259H283.824M441.277 -36.4361V-30.2762M441.277 -30.2762V-24.1163M441.277 -30.2762H435.143M441.277 -30.2762H447.411M441.277 127.831V133.991M441.277 133.991V140.151M441.277 133.991H435.143M441.277 133.991H447.411M441.277 292.099V298.259M441.277 298.259V304.419M441.277 298.259H435.143M441.277 298.259H447.411M604.866 -36.4361V-30.2762M604.866 -30.2762V-24.1163M604.866 -30.2762H598.731M604.866 -30.2762H611M604.866 127.831V133.991M604.866 133.991V140.151M604.866 133.991H598.731M604.866 133.991H611M604.866 292.099V298.259M604.866 298.259V304.419M604.866 298.259H598.731M604.866 298.259H611M-213.071 -118.57V-112.41M-213.071 -112.41V-106.25M-213.071 -112.41H-219.206M-213.071 -112.41H-206.937M-213.071 45.6978V51.8577M-213.071 51.8577V58.0176M-213.071 51.8577H-219.206M-213.071 51.8577H-206.937M-213.071 209.966V216.125M-213.071 216.125V222.285M-213.071 216.125H-219.206M-213.071 216.125H-206.937M-49.4839 -118.57V-112.41M-49.4839 -112.41V-106.25M-49.4839 -112.41H-55.6183M-49.4839 -112.41H-43.3495M-49.4839 45.6978V51.8577M-49.4839 51.8577V58.0176M-49.4839 51.8577H-55.6183M-49.4839 51.8577H-43.3495M-49.4839 209.966V216.125M-49.4839 216.125V222.285M-49.4839 216.125H-55.6183M-49.4839 216.125H-43.3495M114.103 -118.57V-112.41M114.103 -112.41V-106.25M114.103 -112.41H107.968M114.103 -112.41H120.237M114.103 45.6978V51.8577M114.103 51.8577V58.0176M114.103 51.8577H107.968M114.103 51.8577H120.237M114.103 209.966V216.125M114.103 216.125V222.285M114.103 216.125H107.968M114.103 216.125H120.237M277.69 -118.57V-112.41M277.69 -112.41V-106.25M277.69 -112.41H271.555M277.69 -112.41H283.824M277.69 45.6978V51.8577M277.69 51.8577V58.0176M277.69 51.8577H271.555M277.69 51.8577H283.824M277.69 209.966V216.125M277.69 216.125V222.285M277.69 216.125H271.555M277.69 216.125H283.824M441.277 -118.57V-112.41M441.277 -112.41V-106.25M441.277 -112.41H435.143M441.277 -112.41H447.411M441.277 45.6978V51.8577M441.277 51.8577V58.0176M441.277 51.8577H435.143M441.277 51.8577H447.411M441.277 209.966V216.125M441.277 216.125V222.285M441.277 216.125H435.143M441.277 216.125H447.411M604.866 -118.57V-112.41M604.866 -112.41V-106.25M604.866 -112.41H598.731M604.866 -112.41H611M604.866 45.6978V51.8577M604.866 51.8577V58.0176M604.866 51.8577H598.731M604.866 51.8577H611M604.866 209.966V216.125M604.866 216.125V222.285M604.866 216.125H598.731M604.866 216.125H611M-294.866 -36.4363V-30.2764M-294.866 -30.2764V-24.1165M-294.866 -30.2764H-301M-294.866 -30.2764H-288.731M-294.865 127.831V133.991M-294.865 133.991V140.151M-294.865 133.991H-301M-294.865 133.991H-288.731M-294.865 292.099V298.259M-294.865 298.259V304.419M-294.865 298.259H-301M-294.865 298.259H-288.731M-131.278 -36.4361V-30.2762M-131.278 -30.2762V-24.1163M-131.278 -30.2762H-137.412M-131.278 -30.2762H-125.144M-131.278 127.831V133.991M-131.278 133.991V140.151M-131.278 133.991H-137.412M-131.278 133.991H-125.144M-131.278 292.099V298.259M-131.278 298.259V304.419M-131.278 298.259H-137.412M-131.278 298.259H-125.144M32.3094 -36.4361V-30.2762M32.3094 -30.2762V-24.1163M32.3094 -30.2762H26.175M32.3094 -30.2762H38.4438M32.3094 127.831V133.991M32.3094 133.991V140.151M32.3094 133.991H26.175M32.3094 133.991H38.4438M32.3094 292.099V298.259M32.3094 298.259V304.419M32.3094 298.259H26.175M32.3094 298.259H38.4438M195.896 -36.4361V-30.2762M195.896 -30.2762V-24.1163M195.896 -30.2762H189.761M195.896 -30.2762H202.03M195.896 292.099V298.259M195.896 298.259V304.419M195.896 298.259H189.761M195.896 298.259H202.03M359.484 -36.4361V-30.2762M359.484 -30.2762V-24.1163M359.484 -30.2762H353.35M359.484 -30.2762H365.618M359.484 127.831V133.991M359.484 133.991V140.151M359.484 133.991H353.35M359.484 133.991H365.618M359.484 292.099V298.259M359.484 298.259V304.419M359.484 298.259H353.35M359.484 298.259H365.618M523.071 -36.4361V-30.2762M523.071 -30.2762V-24.1163M523.071 -30.2762H516.937M523.071 -30.2762H529.206M523.071 127.831V133.991M523.071 133.991V140.151M523.071 133.991H516.937M523.071 133.991H529.206M523.071 292.099V298.259M523.071 298.259V304.419M523.071 298.259H516.937M523.071 298.259H529.206M-294.866 -118.57V-112.41M-294.866 -112.41V-106.25M-294.866 -112.41H-301M-294.866 -112.41H-288.731M-294.865 45.6978V51.8577M-294.865 51.8577V58.0176M-294.865 51.8577H-301M-294.865 51.8577H-288.731M-294.865 209.966V216.125M-294.865 216.125V222.285M-294.865 216.125H-301M-294.865 216.125H-288.731M-131.278 -118.57V-112.41M-131.278 -112.41V-106.25M-131.278 -112.41H-137.412M-131.278 -112.41H-125.144M-131.278 45.6978V51.8577M-131.278 51.8577V58.0176M-131.278 51.8577H-137.412M-131.278 51.8577H-125.144M-131.278 209.966V216.125M-131.278 216.125V222.285M-131.278 216.125H-137.412M-131.278 216.125H-125.144M32.3094 -118.57V-112.41M32.3094 -112.41V-106.25M32.3094 -112.41H26.175M32.3094 -112.41H38.4438M32.3094 45.6978V51.8577M32.3094 51.8577V58.0176M32.3094 51.8577H26.175M32.3094 51.8577H38.4438M32.3094 209.966V216.125M32.3094 216.125V222.285M32.3094 216.125H26.175M32.3094 216.125H38.4438M195.896 -118.57V-112.41M195.896 -112.41V-106.25M195.896 -112.41H189.761M195.896 -112.41H202.03M195.896 45.6978V51.8577M195.896 51.8577V58.0176M195.896 51.8577H189.761M195.896 51.8577H202.03M195.896 209.966V216.125M195.896 216.125V222.285M195.896 216.125H189.761M195.896 216.125H202.03M359.484 -118.57V-112.41M359.484 -112.41V-106.25M359.484 -112.41H353.35M359.484 -112.41H365.618M359.484 45.6978V51.8577M359.484 51.8577V58.0176M359.484 51.8577H353.35M359.484 51.8577H365.618M359.484 209.966V216.125M359.484 216.125V222.285M359.484 216.125H353.35M359.484 216.125H365.618M523.071 -118.57V-112.41M523.071 -112.41V-106.25M523.071 -112.41H516.937M523.071 -112.41H529.206M523.071 45.6978V51.8577M523.071 51.8577V58.0176M523.071 51.8577H516.937M523.071 51.8577H529.206M523.071 209.966V216.125M523.071 216.125V222.285M523.071 216.125H516.937M523.071 216.125H529.206" stroke="url(#paint2_radial_532_38145)" stroke-width="0.276273"/>
<path d="M106.827 129.973H102.843C102.729 129.32 102.52 128.741 102.214 128.237C101.909 127.725 101.529 127.292 101.075 126.937C100.62 126.582 100.102 126.316 99.5192 126.138C98.9439 125.953 98.3224 125.861 97.6548 125.861C96.4688 125.861 95.4176 126.159 94.5014 126.756C93.5852 127.345 92.8679 128.212 92.3494 129.355C91.831 130.492 91.5717 131.88 91.5717 133.521C91.5717 135.19 91.831 136.596 92.3494 137.74C92.875 138.876 93.5923 139.735 94.5014 140.318C95.4176 140.893 96.4652 141.181 97.6442 141.181C98.2976 141.181 98.9084 141.095 99.4766 140.925C100.052 140.747 100.567 140.488 101.021 140.147C101.483 139.806 101.87 139.387 102.183 138.89C102.502 138.393 102.722 137.825 102.843 137.186L106.827 137.207C106.678 138.244 106.355 139.217 105.858 140.126C105.368 141.035 104.725 141.838 103.93 142.534C103.134 143.223 102.204 143.762 101.138 144.153C100.073 144.536 98.8906 144.728 97.5909 144.728C95.6733 144.728 93.9616 144.284 92.456 143.397C90.9503 142.509 89.7642 141.227 88.8977 139.551C88.0313 137.875 87.598 135.865 87.598 133.521C87.598 131.17 88.0348 129.16 88.9084 127.491C89.782 125.815 90.9716 124.533 92.4773 123.645C93.983 122.757 95.6875 122.313 97.5909 122.313C98.8054 122.313 99.9347 122.484 100.979 122.825C102.023 123.166 102.953 123.666 103.77 124.327C104.587 124.98 105.258 125.783 105.783 126.735C106.316 127.679 106.664 128.759 106.827 129.973ZM116.214 144.75C114.616 144.75 113.231 144.398 112.059 143.695C110.888 142.992 109.978 142.008 109.332 140.744C108.693 139.48 108.373 138.002 108.373 136.312C108.373 134.622 108.693 133.141 109.332 131.87C109.978 130.598 110.888 129.611 112.059 128.908C113.231 128.205 114.616 127.853 116.214 127.853C117.812 127.853 119.197 128.205 120.369 128.908C121.541 129.611 122.446 130.598 123.086 131.87C123.732 133.141 124.055 134.622 124.055 136.312C124.055 138.002 123.732 139.48 123.086 140.744C122.446 142.008 121.541 142.992 120.369 143.695C119.197 144.398 117.812 144.75 116.214 144.75ZM116.236 141.66C117.102 141.66 117.826 141.422 118.409 140.946C118.991 140.463 119.424 139.817 119.709 139.007C120 138.198 120.145 137.296 120.145 136.301C120.145 135.3 120 134.394 119.709 133.585C119.424 132.768 118.991 132.118 118.409 131.635C117.826 131.152 117.102 130.911 116.236 130.911C115.348 130.911 114.609 131.152 114.02 131.635C113.437 132.118 113 132.768 112.709 133.585C112.425 134.394 112.283 135.3 112.283 136.301C112.283 137.296 112.425 138.198 112.709 139.007C113 139.817 113.437 140.463 114.02 140.946C114.609 141.422 115.348 141.66 116.236 141.66ZM126.128 144.43V128.066H129.814V130.847H130.006C130.347 129.909 130.912 129.178 131.7 128.652C132.488 128.12 133.43 127.853 134.523 127.853C135.631 127.853 136.565 128.123 137.325 128.663C138.092 129.196 138.632 129.924 138.944 130.847H139.115C139.477 129.938 140.088 129.213 140.947 128.674C141.814 128.127 142.84 127.853 144.026 127.853C145.532 127.853 146.761 128.329 147.712 129.281C148.664 130.232 149.14 131.621 149.14 133.446V144.43H145.273V134.043C145.273 133.027 145.003 132.285 144.463 131.816C143.923 131.34 143.263 131.103 142.481 131.103C141.551 131.103 140.823 131.394 140.297 131.976C139.779 132.551 139.52 133.301 139.52 134.224V144.43H135.738V133.883C135.738 133.038 135.482 132.363 134.971 131.859C134.466 131.355 133.806 131.103 132.989 131.103C132.435 131.103 131.931 131.245 131.476 131.529C131.022 131.806 130.66 132.2 130.39 132.711C130.12 133.215 129.985 133.805 129.985 134.48V144.43H126.128ZM151.852 144.43V128.066H155.709V144.43H151.852ZM153.791 125.744C153.18 125.744 152.655 125.541 152.214 125.137C151.774 124.725 151.554 124.231 151.554 123.656C151.554 123.073 151.774 122.58 152.214 122.175C152.655 121.763 153.18 121.557 153.791 121.557C154.409 121.557 154.935 121.763 155.368 122.175C155.808 122.58 156.028 123.073 156.028 123.656C156.028 124.231 155.808 124.725 155.368 125.137C154.935 125.541 154.409 125.744 153.791 125.744ZM162.331 134.842V144.43H158.474V128.066H162.161V130.847H162.352C162.729 129.931 163.329 129.203 164.153 128.663C164.984 128.123 166.01 127.853 167.232 127.853C168.361 127.853 169.345 128.095 170.183 128.578C171.028 129.061 171.681 129.76 172.143 130.676C172.612 131.593 172.842 132.704 172.835 134.011V144.43H168.979V134.607C168.979 133.514 168.695 132.658 168.126 132.04C167.565 131.422 166.788 131.113 165.793 131.113C165.119 131.113 164.519 131.262 163.993 131.561C163.475 131.852 163.066 132.274 162.768 132.828C162.477 133.382 162.331 134.054 162.331 134.842ZM182.672 150.907C181.287 150.907 180.098 150.719 179.103 150.343C178.109 149.973 177.31 149.476 176.706 148.851C176.103 148.226 175.684 147.534 175.449 146.774L178.922 145.932C179.078 146.252 179.306 146.568 179.604 146.88C179.902 147.2 180.304 147.463 180.808 147.669C181.319 147.882 181.962 147.988 182.736 147.988C183.83 147.988 184.735 147.722 185.453 147.189C186.17 146.664 186.529 145.797 186.529 144.59V141.49H186.337C186.138 141.887 185.847 142.296 185.463 142.715C185.087 143.134 184.586 143.485 183.961 143.769C183.343 144.054 182.566 144.196 181.628 144.196C180.371 144.196 179.231 143.901 178.208 143.311C177.193 142.715 176.383 141.827 175.779 140.648C175.183 139.462 174.885 137.978 174.885 136.195C174.885 134.398 175.183 132.882 175.779 131.646C176.383 130.403 177.196 129.462 178.219 128.823C179.242 128.176 180.382 127.853 181.639 127.853C182.598 127.853 183.386 128.017 184.004 128.343C184.629 128.663 185.126 129.05 185.495 129.505C185.865 129.952 186.145 130.375 186.337 130.772H186.55V128.066H190.353V144.696C190.353 146.095 190.02 147.253 189.352 148.169C188.684 149.085 187.772 149.771 186.614 150.225C185.456 150.68 184.142 150.907 182.672 150.907ZM182.704 141.17C183.521 141.17 184.217 140.971 184.792 140.573C185.368 140.176 185.804 139.604 186.103 138.858C186.401 138.112 186.55 137.218 186.55 136.174C186.55 135.144 186.401 134.242 186.103 133.468C185.811 132.693 185.378 132.093 184.803 131.667C184.235 131.234 183.535 131.017 182.704 131.017C181.845 131.017 181.127 131.241 180.552 131.688C179.977 132.136 179.544 132.75 179.252 133.531C178.961 134.306 178.816 135.186 178.816 136.174C178.816 137.175 178.961 138.052 179.252 138.805C179.551 139.551 179.988 140.133 180.563 140.552C181.145 140.964 181.859 141.17 182.704 141.17ZM211.375 128.61C211.275 127.679 210.856 126.955 210.118 126.436C209.386 125.918 208.435 125.659 207.263 125.659C206.439 125.659 205.732 125.783 205.143 126.031C204.553 126.28 204.102 126.617 203.79 127.044C203.477 127.47 203.317 127.956 203.31 128.503C203.31 128.958 203.413 129.352 203.619 129.686C203.832 130.019 204.12 130.304 204.482 130.538C204.844 130.765 205.246 130.957 205.686 131.113C206.126 131.269 206.57 131.401 207.018 131.507L209.063 132.019C209.887 132.21 210.679 132.47 211.439 132.796C212.206 133.123 212.891 133.535 213.495 134.032C214.106 134.529 214.589 135.13 214.944 135.833C215.299 136.536 215.476 137.36 215.476 138.304C215.476 139.583 215.15 140.708 214.496 141.681C213.843 142.647 212.898 143.404 211.662 143.951C210.434 144.49 208.946 144.76 207.199 144.76C205.501 144.76 204.028 144.497 202.778 143.972C201.535 143.446 200.562 142.679 199.859 141.671C199.162 140.662 198.786 139.433 198.729 137.985H202.618C202.675 138.745 202.909 139.377 203.321 139.881C203.733 140.385 204.269 140.762 204.93 141.01C205.597 141.259 206.343 141.383 207.167 141.383C208.026 141.383 208.779 141.255 209.425 141C210.079 140.737 210.59 140.375 210.959 139.913C211.329 139.444 211.517 138.897 211.524 138.272C211.517 137.704 211.35 137.235 211.023 136.866C210.697 136.49 210.238 136.177 209.649 135.929C209.067 135.673 208.385 135.446 207.604 135.247L205.121 134.607C203.324 134.146 201.904 133.446 200.86 132.509C199.823 131.564 199.305 130.311 199.305 128.748C199.305 127.463 199.653 126.337 200.349 125.371C201.052 124.405 202.007 123.656 203.214 123.123C204.422 122.583 205.789 122.313 207.316 122.313C208.864 122.313 210.221 122.583 211.386 123.123C212.557 123.656 213.477 124.398 214.145 125.35C214.812 126.294 215.157 127.381 215.178 128.61H211.375ZM224.767 144.75C223.169 144.75 221.784 144.398 220.613 143.695C219.441 142.992 218.532 142.008 217.885 140.744C217.246 139.48 216.926 138.002 216.926 136.312C216.926 134.622 217.246 133.141 217.885 131.87C218.532 130.598 219.441 129.611 220.613 128.908C221.784 128.205 223.169 127.853 224.767 127.853C226.365 127.853 227.75 128.205 228.922 128.908C230.094 129.611 231 130.598 231.639 131.87C232.285 133.141 232.608 134.622 232.608 136.312C232.608 138.002 232.285 139.48 231.639 140.744C231 142.008 230.094 142.992 228.922 143.695C227.75 144.398 226.365 144.75 224.767 144.75ZM224.789 141.66C225.655 141.66 226.38 141.422 226.962 140.946C227.544 140.463 227.978 139.817 228.262 139.007C228.553 138.198 228.698 137.296 228.698 136.301C228.698 135.3 228.553 134.394 228.262 133.585C227.978 132.768 227.544 132.118 226.962 131.635C226.38 131.152 225.655 130.911 224.789 130.911C223.901 130.911 223.162 131.152 222.573 131.635C221.99 132.118 221.554 132.768 221.262 133.585C220.978 134.394 220.836 135.3 220.836 136.301C220.836 137.296 220.978 138.198 221.262 139.007C221.554 139.817 221.99 140.463 222.573 140.946C223.162 141.422 223.901 141.66 224.789 141.66ZM241.819 144.75C240.221 144.75 238.836 144.398 237.664 143.695C236.493 142.992 235.584 142.008 234.937 140.744C234.298 139.48 233.978 138.002 233.978 136.312C233.978 134.622 234.298 133.141 234.937 131.87C235.584 130.598 236.493 129.611 237.664 128.908C238.836 128.205 240.221 127.853 241.819 127.853C243.417 127.853 244.802 128.205 245.974 128.908C247.146 129.611 248.052 130.598 248.691 131.87C249.337 133.141 249.66 134.622 249.66 136.312C249.66 138.002 249.337 139.48 248.691 140.744C248.052 142.008 247.146 142.992 245.974 143.695C244.802 144.398 243.417 144.75 241.819 144.75ZM241.841 141.66C242.707 141.66 243.432 141.422 244.014 140.946C244.596 140.463 245.03 139.817 245.314 139.007C245.605 138.198 245.75 137.296 245.75 136.301C245.75 135.3 245.605 134.394 245.314 133.585C245.03 132.768 244.596 132.118 244.014 131.635C243.432 131.152 242.707 130.911 241.841 130.911C240.953 130.911 240.214 131.152 239.625 131.635C239.042 132.118 238.606 132.768 238.314 133.585C238.03 134.394 237.888 135.3 237.888 136.301C237.888 137.296 238.03 138.198 238.314 139.007C238.606 139.817 239.042 140.463 239.625 140.946C240.214 141.422 240.953 141.66 241.841 141.66ZM255.59 134.842V144.43H251.733V128.066H255.42V130.847H255.611C255.988 129.931 256.588 129.203 257.412 128.663C258.243 128.123 259.269 127.853 260.491 127.853C261.62 127.853 262.604 128.095 263.442 128.578C264.287 129.061 264.94 129.76 265.402 130.676C265.871 131.593 266.101 132.704 266.094 134.011V144.43H262.238V134.607C262.238 133.514 261.954 132.658 261.385 132.04C260.824 131.422 260.047 131.113 259.052 131.113C258.378 131.113 257.778 131.262 257.252 131.561C256.733 131.852 256.325 132.274 256.027 132.828C255.736 133.382 255.59 134.054 255.59 134.842Z" fill="white" fill-opacity="0.5"/>
</g>
<path d="M0 0.429932H351H0ZM351 249.43H0V247.43H351V249.43ZM0 248.43V0.429932V248.43ZM351 0.429932V248.43V0.429932Z" fill="white" fill-opacity="0.1" mask="url(#path-1-inside-1_532_38145)"/>
<path d="M0 0.429932H351H0ZM351 249.43H0V247.43H351V249.43ZM0 248.43V0.429932V248.43ZM351 0.429932V248.43V0.429932Z" fill="url(#paint3_linear_532_38145)" style="mix-blend-mode:overlay" mask="url(#path-1-inside-1_532_38145)"/>
<defs>
<radialGradient id="paint0_radial_532_38145" cx="0" cy="0" r="1" gradientUnits="userSpaceOnUse" gradientTransform="translate(173.89 286.319) rotate(-179.105) scale(220.609 282.337)">
<stop stop-color="#00FFFF"/>
<stop offset="1" stop-opacity="0.5"/>
</radialGradient>
<radialGradient id="paint1_radial_532_38145" cx="0" cy="0" r="1" gradientUnits="userSpaceOnUse" gradientTransform="translate(208 131.43) rotate(90.2989) scale(287.504 629.89)">
<stop stop-color="white"/>
<stop offset="1" stop-color="white" stop-opacity="0"/>
</radialGradient>
<radialGradient id="paint2_radial_532_38145" cx="0" cy="0" r="1" gradientUnits="userSpaceOnUse" gradientTransform="translate(197 138.93) rotate(89.5576) scale(129.504 279.221)">
<stop stop-color="white"/>
<stop offset="1" stop-color="white" stop-opacity="0"/>
</radialGradient>
<linearGradient id="paint3_linear_532_38145" x1="99.45" y1="153.363" x2="243.599" y2="-50.6544" gradientUnits="userSpaceOnUse">
<stop stop-color="white" stop-opacity="0"/>
<stop offset="1" stop-color="white"/>
</linearGradient>
<clipPath id="clip0_532_38145">
<path d="M0 12.4299C0 5.80252 5.37258 0.429932 12 0.429932H339C345.627 0.429932 351 5.80251 351 12.4299V248.43H0V12.4299Z" fill="white"/>
</clipPath>
</defs>
</svg>
