<svg width="358" height="156" viewBox="0 0 358 156" fill="none" xmlns="http://www.w3.org/2000/svg">
<g clip-path="url(#clip0_533_133334)">
<path d="M-50.2836 187.92L-76 202.767L-50.2836 217.615M-50.2836 187.92L-24.5672 202.767M-50.2836 187.92L-24.5672 173.073M-24.5672 202.767L-50.2836 217.615M-24.5672 202.767L1.14917 217.615M-24.5672 202.767L1.14917 187.92M-50.2836 217.615L-24.5672 232.462M1.14917 217.615L-24.5672 232.462M1.14917 217.615L26.8656 232.462M1.14917 217.615L26.8656 202.767M-24.5672 232.462L1.14917 247.31M26.8656 232.462L1.14917 247.31M26.8656 232.462L52.582 247.31M26.8656 232.462L52.5819 217.615M1.14917 247.31L26.8656 262.157M52.582 247.31L26.8656 262.157M52.582 247.31L78.2983 262.157M52.582 247.31L78.2983 232.462M26.8656 262.157L52.582 277.004M78.2983 262.157L52.582 277.004M78.2983 262.157L104.015 277.004M78.2983 262.157L104.015 247.31M52.582 277.004L78.2983 291.852M104.015 277.004L78.2983 291.852M104.015 277.004L129.731 291.852M104.015 277.004L129.731 262.157M78.2983 291.852L104.015 306.699M129.731 291.852L104.015 306.699M129.731 291.852L155.448 306.699M129.731 291.852L155.448 277.004M104.015 306.699L129.731 321.546M155.448 306.699L129.731 321.546M155.448 306.699L181.164 321.546M155.448 306.699L181.164 291.852M129.731 321.546L155.448 336.394M181.164 321.546L155.448 336.394M181.164 321.546L206.88 336.394M181.164 321.546L206.88 306.699M155.448 336.394L181.164 351.241M206.88 336.394L181.164 351.241M206.88 336.394L232.597 351.241M206.88 336.394L232.597 321.546M181.164 351.241L206.88 366.088M232.597 351.241L206.88 366.088M232.597 351.241L258.313 366.088M232.597 351.241L258.313 336.394M206.88 366.088L232.597 380.936M258.313 366.088L232.597 380.936M258.313 366.088L284.029 380.936M258.313 366.088L284.029 351.241M232.597 380.936L258.313 395.783M284.029 380.936L258.313 395.783M284.029 380.936L309.746 395.783M284.029 380.936L309.746 366.088M258.313 395.783L284.029 410.631M309.746 395.783L284.029 410.631M309.746 395.783L335.462 410.631M309.746 395.783L335.462 380.936M284.029 410.631L309.746 425.478M335.462 410.631L309.746 425.478M335.462 410.631L361.179 425.478M335.462 410.631L361.179 395.783M309.746 425.478L335.462 440.325M361.179 425.478L335.462 440.325M361.179 425.478L386.895 440.325M361.179 425.478L386.895 410.631M335.462 440.325L361.179 455.173M386.895 440.325L361.179 455.173M386.895 440.325L412.611 455.173M386.895 440.325L412.611 425.478M361.179 455.173L386.895 470.02M412.611 455.173L386.895 470.02M412.611 455.173L438.328 470.02M412.611 455.173L438.328 440.325M386.895 470.02L412.611 484.867M438.328 470.02L412.611 484.867M438.328 470.02L464.044 484.867M438.328 470.02L464.044 455.173M412.611 484.867L438.328 499.715L464.044 484.867M464.044 484.867L489.761 470.02M-24.5672 173.073L1.14917 187.92M-24.5672 173.073L1.14917 158.225M1.14917 187.92L26.8656 202.767M1.14917 187.92L26.8656 173.073M26.8656 202.767L52.5819 217.615M26.8656 202.767L52.5819 187.92M52.5819 217.615L78.2983 232.462M52.5819 217.615L78.2983 202.767M78.2983 232.462L104.015 247.31M78.2983 232.462L104.015 217.615M104.015 247.31L129.731 262.157M104.015 247.31L129.731 232.462M129.731 262.157L155.448 277.004M129.731 262.157L155.448 247.31M155.448 277.004L181.164 291.852M155.448 277.004L181.164 262.157M181.164 291.852L206.88 306.699M181.164 291.852L206.88 277.004M206.88 306.699L232.597 321.546M206.88 306.699L232.597 291.852M232.597 321.546L258.313 336.394M232.597 321.546L258.313 306.699M258.313 336.394L284.029 351.241M258.313 336.394L284.029 321.546M284.029 351.241L309.746 366.088M284.029 351.241L309.746 336.394M309.746 366.088L335.462 380.936M309.746 366.088L335.462 351.241M335.462 380.936L361.179 395.783M335.462 380.936L361.179 366.088M361.179 395.783L386.895 410.631M361.179 395.783L386.895 380.936M386.895 410.631L412.611 425.478M386.895 410.631L412.611 395.783M412.611 425.478L438.328 440.325M412.611 425.478L438.328 410.631M438.328 440.325L464.044 455.173M438.328 440.325L464.044 425.478M464.044 455.173L489.761 470.02M464.044 455.173L489.761 440.325M489.761 470.02L515.477 455.173M1.14917 158.225L26.8656 173.073M1.14917 158.225L26.8656 143.378M26.8656 173.073L52.5819 187.92M26.8656 173.073L52.5819 158.225M52.5819 187.92L78.2983 202.767M52.5819 187.92L78.2983 173.073M78.2983 202.767L104.015 217.615M78.2983 202.767L104.015 187.92M104.015 217.615L129.731 232.462M104.015 217.615L129.731 202.767M129.731 232.462L155.448 247.31M129.731 232.462L155.448 217.615M155.448 247.31L181.164 262.157M155.448 247.31L181.164 232.462M181.164 262.157L206.88 277.004M181.164 262.157L206.88 247.31M206.88 277.004L232.597 291.852M206.88 277.004L232.597 262.157M232.597 291.852L258.313 306.699M232.597 291.852L258.313 277.004M258.313 306.699L284.029 321.546M258.313 306.699L284.029 291.852M284.029 321.546L309.746 336.394M284.029 321.546L309.746 306.699M309.746 336.394L335.462 351.241M309.746 336.394L335.462 321.546M335.462 351.241L361.179 366.088M335.462 351.241L361.179 336.394M361.179 366.088L386.895 380.936M361.179 366.088L386.895 351.241M386.895 380.936L412.611 395.783M386.895 380.936L412.611 366.088M412.611 395.783L438.328 410.631M412.611 395.783L438.328 380.936M438.328 410.631L464.044 425.478M438.328 410.631L464.044 395.783M464.044 425.478L489.761 440.325M464.044 425.478L489.761 410.631M489.761 440.325L515.477 455.173M489.761 440.325L515.477 425.478M515.477 455.173L541.193 440.325M26.8656 143.378L52.5819 158.225M26.8656 143.378L52.5819 128.531L78.2983 143.378M52.5819 158.225L78.2983 173.073M52.5819 158.225L78.2983 143.378M78.2983 173.073L104.015 187.92M78.2983 173.073L104.015 158.225M104.015 187.92L129.731 202.767M104.015 187.92L129.731 173.073M129.731 202.767L155.448 217.615M129.731 202.767L155.448 187.92M155.448 217.615L181.164 232.462M155.448 217.615L181.164 202.767M181.164 232.462L206.88 247.31M181.164 232.462L206.88 217.615M206.88 247.31L232.597 262.157M206.88 247.31L232.597 232.462M232.597 262.157L258.313 277.004M232.597 262.157L258.313 247.31M258.313 277.004L284.029 291.852M258.313 277.004L284.029 262.157M284.029 291.852L309.746 306.699M284.029 291.852L309.746 277.004M309.746 306.699L335.462 321.546M309.746 306.699L335.462 291.852M335.462 321.546L361.179 336.394M335.462 321.546L361.179 306.699M361.179 336.394L386.895 351.241M361.179 336.394L386.895 321.546M386.895 351.241L412.611 366.088M386.895 351.241L412.611 336.394M412.611 366.088L438.328 380.936M412.611 366.088L438.328 351.241M438.328 380.936L464.044 395.783M438.328 380.936L464.044 366.088M464.044 395.783L489.761 410.631M464.044 395.783L489.761 380.936M489.761 410.631L515.477 425.478M489.761 410.631L515.477 395.783M515.477 425.478L541.193 440.325M515.477 425.478L541.193 410.631M541.193 440.325L566.91 425.478M78.2983 143.378L104.015 158.225M78.2983 143.378L104.015 128.531M104.015 158.225L129.731 173.073M104.015 158.225L129.731 143.378M129.731 173.073L155.448 187.92M129.731 173.073L155.448 158.225M155.448 187.92L181.164 202.767M155.448 187.92L181.164 173.073M181.164 202.767L206.88 217.615M181.164 202.767L206.88 187.92M206.88 217.615L232.597 232.462M206.88 217.615L232.597 202.767M232.597 232.462L258.313 247.31M232.597 232.462L258.313 217.615M258.313 247.31L284.029 262.157M258.313 247.31L284.029 232.462M284.029 262.157L309.746 277.004M284.029 262.157L309.746 247.31M309.746 277.004L335.462 291.852M309.746 277.004L335.462 262.157M335.462 291.852L361.179 306.699M335.462 291.852L361.179 277.004M361.179 306.699L386.895 321.546M361.179 306.699L386.895 291.852M386.895 321.546L412.611 336.394M386.895 321.546L412.611 306.699M412.611 336.394L438.328 351.241M412.611 336.394L438.328 321.546M438.328 351.241L464.044 366.088M438.328 351.241L464.044 336.394M464.044 366.088L489.761 380.936M464.044 366.088L489.761 351.241M489.761 380.936L515.477 395.783M489.761 380.936L515.477 366.088M515.477 395.783L541.193 410.631M515.477 395.783L541.193 380.936M541.193 410.631L566.91 425.478M541.193 410.631L566.91 395.783M566.91 425.478L592.626 410.631M104.015 128.531L129.731 143.378M104.015 128.531L129.731 113.683M104.015 128.531L91.1565 121.107M129.731 143.378L155.448 158.225M129.731 143.378L155.447 128.531M155.448 158.225L181.164 173.073M155.448 158.225L181.164 143.378M181.164 173.073L206.88 187.92M181.164 173.073L206.88 158.225M206.88 187.92L232.597 202.767M206.88 187.92L232.597 173.073M232.597 202.767L258.313 217.615M232.597 202.767L258.313 187.92M258.313 217.615L284.029 232.462M258.313 217.615L284.029 202.767M284.029 232.462L309.746 247.31M284.029 232.462L309.746 217.615M309.746 247.31L335.462 262.157M309.746 247.31L335.462 232.462M335.462 262.157L361.179 277.004M335.462 262.157L361.179 247.31M361.179 277.004L386.895 291.852M361.179 277.004L386.895 262.157M386.895 291.852L412.611 306.699M386.895 291.852L412.611 277.004M412.611 306.699L438.328 321.546M412.611 306.699L438.328 291.852M438.328 321.546L464.044 336.394M438.328 321.546L464.044 306.699M464.044 336.394L489.761 351.241M464.044 336.394L489.761 321.546M489.761 351.241L515.477 366.088M489.761 351.241L515.477 336.394M515.477 366.088L541.193 380.936M515.477 366.088L541.193 351.241M541.193 380.936L566.91 395.783M541.193 380.936L566.91 366.088M566.91 395.783L592.626 410.631M566.91 395.783L592.626 380.936M592.626 410.631L618.343 395.783M104.015 98.8359L129.731 113.683M129.731 113.683L155.447 128.531M129.731 113.683L155.447 98.8359M155.447 128.531L181.164 143.378M155.447 128.531L181.164 113.683M181.164 143.378L206.88 158.225M181.164 143.378L206.88 128.531M206.88 158.225L232.597 173.073M206.88 158.225L232.597 143.378M232.597 173.073L258.313 187.92M232.597 173.073L258.313 158.225M258.313 187.92L284.029 202.767M258.313 187.92L284.029 173.073M284.029 202.767L309.746 187.92M284.029 202.767L309.746 217.615M309.746 217.615L335.462 232.462M309.746 217.615L335.462 202.767M335.462 232.462L361.179 247.31M335.462 232.462L361.179 217.615M361.179 247.31L386.895 262.157M361.179 247.31L386.895 232.462M386.895 262.157L412.611 277.004M386.895 262.157L412.611 247.31M412.611 277.004L438.328 291.852M412.611 277.004L438.328 262.157M438.328 291.852L464.044 306.699M438.328 291.852L464.044 277.004M464.044 306.699L489.761 321.546M464.044 306.699L489.761 291.852M489.761 321.546L515.477 336.394M489.761 321.546L515.477 306.699M515.477 336.394L541.193 351.241M515.477 336.394L541.193 321.546M541.193 351.241L566.91 366.088M541.193 351.241L566.91 336.394M566.91 366.088L592.626 380.936M566.91 366.088L592.626 351.241M592.626 380.936L618.343 395.783M592.626 380.936L618.342 366.088M618.343 395.783L644.059 380.936M155.447 98.8359L181.164 113.683M155.447 98.8359L181.164 83.9886M155.447 98.8359L142.589 91.4122M181.164 113.683L206.88 128.531M181.164 113.683L206.88 98.8359M206.88 128.531L232.597 143.378M206.88 128.531L232.597 113.683M232.597 143.378L258.313 158.225M232.597 143.378L258.313 128.531M258.313 158.225L284.029 173.073M258.313 158.225L284.029 143.378M284.029 173.073L309.746 187.92M284.029 173.073L309.746 158.225M309.746 187.92L335.462 202.767M309.746 187.92L335.462 173.073M335.462 202.767L361.179 217.615M335.462 202.767L361.179 187.92M361.179 217.615L386.895 232.462M361.179 217.615L386.895 202.767M386.895 232.462L412.611 247.31M386.895 232.462L412.611 217.615M412.611 247.31L438.328 262.157M412.611 247.31L438.328 232.462M438.328 262.157L464.044 277.004M438.328 262.157L464.044 247.31M464.044 277.004L489.761 291.852M464.044 277.004C464.044 277.004 479.718 267.955 489.761 262.157M489.761 291.852L515.477 306.699M489.761 291.852L515.477 277.004M515.477 306.699L541.193 321.546M515.477 306.699L541.193 291.852M541.193 321.546L566.91 336.394M541.193 321.546L566.91 306.699M566.91 336.394L592.626 351.241M566.91 336.394L592.626 321.546M592.626 351.241L618.342 366.088M592.626 351.241L618.342 336.394M618.342 366.088L644.059 380.936M618.342 366.088L644.059 351.241M644.059 380.936L669.775 366.088M155.447 69.1412L181.164 83.9886M181.164 83.9886L206.88 98.8359M181.164 83.9886L206.88 69.1412M206.88 98.8359L232.597 113.683M206.88 98.8359L232.597 83.9885M232.597 113.683L258.313 128.531M232.597 113.683L258.313 98.8359M258.313 128.531L284.029 143.378M258.313 128.531L284.029 113.683M284.029 143.378L309.746 158.225M284.029 143.378L309.746 128.531M309.746 158.225L335.462 173.073M309.746 158.225L335.462 143.378M335.462 173.073L361.179 187.92M335.462 173.073L361.179 158.225M361.179 187.92L386.895 202.767M361.179 187.92L386.895 173.073M386.895 202.767L412.611 217.615M386.895 202.767L412.611 187.92M412.611 217.615L438.328 232.462M412.611 217.615L438.328 202.767M438.328 232.462L464.044 247.31M438.328 232.462L464.044 217.615M464.044 247.31C464.044 247.31 479.718 256.359 489.761 262.157M464.044 247.31L489.761 232.462M489.761 262.157C499.803 267.955 515.477 277.004 515.477 277.004M489.761 262.157C499.803 256.359 515.477 247.31 515.477 247.31M515.477 277.004L541.193 291.852M515.477 277.004L541.193 262.157M541.193 291.852L566.91 306.699M541.193 291.852L566.91 277.004M566.91 306.699L592.626 321.546M566.91 306.699L592.626 291.852M592.626 321.546L618.342 336.394M592.626 321.546L618.343 306.699M618.342 336.394L644.059 351.241M618.342 336.394L644.059 321.546M644.059 351.241L669.775 366.088M644.059 351.241L669.775 336.394M669.775 366.088L695.492 351.241M206.88 69.1412L232.597 83.9885M206.88 69.1412L232.597 54.2938M206.88 69.1412L194.022 61.7175M232.597 83.9885L258.313 98.8359M232.597 83.9885L258.313 69.1412M258.313 98.8359L284.029 113.683M258.313 98.8359L284.029 83.9886M284.029 113.683L309.746 128.531M284.029 113.683L309.746 98.8359M309.746 128.531L335.462 143.378M309.746 128.531L335.462 113.683M335.462 143.378L361.179 158.225M335.462 143.378L361.179 128.531M361.179 158.225L386.895 173.073M361.179 158.225L386.895 143.378M386.895 173.073L412.611 187.92M386.895 173.073L412.611 158.225M412.611 187.92L438.328 202.767M412.611 187.92L438.328 173.073M438.328 202.767L464.044 217.615M438.328 202.767L464.044 187.92M464.044 217.615L489.761 232.462M464.044 217.615L489.761 202.767M489.761 232.462L515.477 247.31M489.761 232.462L515.477 217.615M515.477 247.31L541.193 262.157M515.477 247.31L541.193 232.462M541.193 262.157L566.91 277.004M541.193 262.157L566.91 247.31M566.91 277.004L592.626 291.852M566.91 277.004L592.626 262.157M592.626 291.852L618.343 306.699M592.626 291.852L618.343 277.004M618.343 306.699L644.059 321.546M618.343 306.699L644.059 291.852M644.059 321.546L669.775 336.394M644.059 321.546L669.775 306.699M669.775 336.394L695.492 351.241M669.775 336.394L695.492 321.546M695.492 351.241L721.208 336.394M206.88 39.4465L232.597 54.2938M232.597 54.2938L258.313 69.1412M232.597 54.2938L258.313 39.4465M258.313 69.1412L284.029 83.9886M258.313 69.1412L284.029 54.2938M284.029 83.9886L309.746 98.8359M284.029 83.9886L309.746 69.1412M309.746 98.8359L335.462 113.683M309.746 98.8359L875.506 -227.806M335.462 113.683L361.179 128.531M335.462 113.683L901.223 -212.959M361.179 128.531L386.895 143.378M361.179 128.531L386.895 113.683M386.895 143.378L412.611 158.225M386.895 143.378L412.611 128.531M412.611 158.225L438.328 173.073M412.611 158.225L438.328 143.378M438.328 173.073L464.044 187.92M438.328 173.073L464.044 158.225M464.044 187.92L489.761 202.767M464.044 187.92L489.761 173.073M489.761 202.767L515.477 217.615M489.761 202.767L515.477 187.92M515.477 217.615L541.193 232.462M515.477 217.615L541.193 202.767M541.193 232.462L566.91 247.31M541.193 232.462L566.91 217.615M566.91 247.31L592.626 262.157M566.91 247.31L592.626 232.462M592.626 262.157L618.343 277.004M592.626 262.157L618.343 247.31M618.343 277.004L644.059 291.852M618.343 277.004L644.059 262.157M644.059 291.852L669.775 306.699M644.059 291.852L669.775 277.004M669.775 306.699L695.492 321.546M669.775 306.699L695.492 291.852M695.492 321.546L721.208 336.394M695.492 321.546L721.208 306.699M721.208 336.394L746.924 321.546M258.313 39.4465L284.029 54.2938M258.313 39.4465L284.029 24.5991M258.313 39.4465L245.455 32.0228M284.029 54.2938L309.746 69.1412M284.029 54.2938L309.746 39.4465M309.746 69.1412L335.462 54.2938M309.746 69.1412L386.895 113.683M386.895 113.683L412.611 128.531M386.895 113.683L412.611 98.8359M412.611 128.531L438.328 143.378M412.611 128.531L438.328 113.683M438.328 143.378L464.044 158.225M438.328 143.378L464.044 128.531M464.044 158.225L489.761 173.073M464.044 158.225L489.761 143.378M489.761 173.073L515.477 187.92M489.761 173.073L515.477 158.225M515.477 187.92L541.193 202.767M515.477 187.92L541.193 173.073M541.193 202.767L566.91 217.615M541.193 202.767L566.91 187.92M566.91 217.615L592.626 232.462M566.91 217.615L592.626 202.767M592.626 232.462L618.343 247.31M592.626 232.462L618.342 217.615M618.343 247.31L644.059 262.157M618.343 247.31L644.059 232.462M644.059 262.157L669.775 277.004M644.059 262.157L669.775 247.31M669.775 277.004L695.492 291.852M669.775 277.004L695.492 262.157M695.492 291.852L721.208 306.699M695.492 291.852L721.208 277.004M721.208 306.699L746.924 321.546M721.208 306.699L746.924 291.852M746.924 321.546L772.641 306.699M258.313 9.75173L284.029 24.5991M284.029 24.5991L309.746 39.4465M284.029 24.5991L309.746 9.75174M309.746 39.4465L335.462 54.2938M309.746 39.4465L335.462 24.5991M335.462 54.2938L361.179 39.4465M335.462 54.2938L412.611 98.8359M412.611 98.8359L438.328 113.683M412.611 98.8359L438.328 83.9886M438.328 113.683L464.044 128.531M438.328 113.683L464.044 98.8359M464.044 128.531L489.761 143.378M464.044 128.531L489.761 113.683M489.761 143.378L515.477 158.225M489.761 143.378L515.477 128.531M515.477 158.225L541.193 173.073M515.477 158.225L541.193 143.378M541.193 173.073L566.91 187.92M541.193 173.073L566.91 158.225M566.91 187.92L592.626 202.767M566.91 187.92L592.626 173.073M592.626 202.767L618.342 217.615M592.626 202.767L618.342 187.92M618.342 217.615L644.059 232.462M618.342 217.615L644.059 202.767M644.059 232.462L669.775 247.31M644.059 232.462L669.775 217.615M669.775 247.31L695.492 262.157M669.775 247.31L695.492 232.462M695.492 262.157L721.208 277.004M695.492 262.157L721.208 247.31M721.208 277.004L746.924 291.852M721.208 277.004L746.924 262.157M746.924 291.852L772.641 306.699M746.924 291.852L772.641 277.004M772.641 306.699L798.357 291.852M309.746 9.75174L335.462 24.5991M309.746 9.75174L335.462 -5.09564M309.746 9.75174L296.888 2.32805M335.462 24.5991L361.179 39.4465M335.462 24.5991L361.179 9.75172M361.179 39.4465L386.895 24.5991M361.179 39.4465L438.328 83.9886M438.328 83.9886L464.044 98.8359M438.328 83.9886L849.79 -153.569M464.044 98.8359L489.761 113.683M464.044 98.8359L875.506 -138.722M489.761 113.683L515.477 128.531M489.761 113.683L515.477 98.8359M515.477 128.531L541.193 143.378M515.477 128.531L541.193 113.683M541.193 143.378L566.91 158.225M541.193 143.378L566.91 128.531M566.91 158.225L592.626 173.073M566.91 158.225L592.626 143.378M592.626 173.073L618.342 187.92M592.626 173.073L618.343 158.225M618.342 187.92L644.059 202.767M618.342 187.92L644.059 173.073M644.059 202.767L669.775 217.615M644.059 202.767L669.775 187.92M669.775 217.615L695.492 232.462M669.775 217.615L695.492 202.767M695.492 232.462L721.208 247.31M695.492 232.462L721.208 217.615M721.208 247.31L746.924 262.157M721.208 247.31L746.924 232.462M746.924 262.157L772.641 277.004M746.924 262.157L772.641 247.31M772.641 277.004L798.357 291.852M772.641 277.004L798.357 262.157M798.357 291.852L824.074 277.004M335.462 -5.09564L309.746 -19.943L335.462 -34.7904M335.462 -5.09564L361.179 9.75172M335.462 -5.09564L361.179 -19.943M361.179 9.75172L386.895 24.5991M361.179 9.75172L386.895 -5.09564M386.895 24.5991L412.611 9.75173M386.895 24.5991L515.477 98.8359M515.477 98.8359L541.193 113.683M515.477 98.8359L541.193 83.9886M541.193 113.683L566.91 128.531M541.193 113.683L566.91 98.8359M566.91 128.531L592.626 143.378M566.91 128.531L592.626 113.683M592.626 143.378L618.343 158.225M592.626 143.378L618.343 128.531M618.343 158.225L644.059 173.073M618.343 158.225L644.059 143.378M644.059 173.073L669.775 187.92M644.059 173.073L669.775 158.225M669.775 187.92L695.492 202.767M669.775 187.92L695.492 173.073M695.492 202.767L721.208 217.615M695.492 202.767L721.208 187.92M721.208 217.615L746.924 232.462M721.208 217.615L746.924 202.767M746.924 232.462L772.641 247.31M746.924 232.462L772.641 217.615M772.641 247.31L798.357 262.157M772.641 247.31L798.357 232.462M798.357 262.157L824.074 277.004M798.357 262.157L824.074 247.31M824.074 277.004L849.79 262.157M335.462 -34.7904L361.179 -19.943M335.462 -34.7904L361.179 -49.6377M361.179 -19.943L386.895 -5.09564M361.179 -19.943L386.895 -34.7904M386.895 -5.09564L412.611 9.75173M386.895 -5.09564L412.611 -19.943M412.611 9.75173L438.328 -5.09563M412.611 9.75173L541.193 83.9886M541.193 83.9886L566.91 98.8359M541.193 83.9886L566.91 69.1412M566.91 98.8359L592.626 113.683M566.91 98.8359L592.626 83.9886M592.626 113.683L618.343 128.531M592.626 113.683L618.342 98.8359M618.343 128.531L644.059 143.378M618.343 128.531L644.059 113.683M644.059 143.378L669.775 158.225M644.059 143.378L669.775 128.531M669.775 158.225L695.492 173.073M669.775 158.225L695.492 143.378M695.492 173.073L721.208 187.92M695.492 173.073L721.208 158.225M721.208 187.92L746.924 202.767M721.208 187.92L746.924 173.073M746.924 202.767L772.641 217.615M746.924 202.767L772.641 187.92M772.641 217.615L798.357 232.462M772.641 217.615L798.357 202.767M798.357 232.462L824.074 247.31M798.357 232.462L824.074 217.615M824.074 247.31L849.79 262.157M824.074 247.31L849.79 232.462M849.79 262.157L875.506 247.31M361.179 -49.6377L386.895 -34.7904M361.179 -49.6377L386.895 -64.4851M386.895 -34.7904L412.611 -19.943M386.895 -34.7904L412.611 -49.6377M412.611 -19.943L438.328 -5.09563M412.611 -19.943L438.328 -34.7904M438.328 -5.09563L464.044 -19.943M438.328 -5.09563L566.91 69.1412M566.91 69.1412L592.626 83.9886M566.91 69.1412L592.626 54.2938M592.626 83.9886L618.342 98.8359M592.626 83.9886L618.342 69.1412M618.342 98.8359L644.059 113.683M618.342 98.8359L644.059 83.9886M644.059 113.683L669.775 128.531M644.059 113.683L669.775 98.8359M669.775 128.531L695.492 143.378M669.775 128.531L695.492 113.683M695.492 143.378L721.208 158.225M695.492 143.378L721.208 128.531M721.208 158.225L746.924 173.073M721.208 158.225L746.924 143.378M746.924 173.073L772.641 187.92M746.924 173.073L772.641 158.225M772.641 187.92L798.357 202.767M772.641 187.92L798.357 173.073M798.357 202.767L824.074 217.615M798.357 202.767L824.074 187.92M824.074 217.615L849.79 232.462M824.074 217.615L849.79 202.767M849.79 232.462L875.506 247.31M849.79 232.462L875.506 217.615M875.506 247.31L901.223 232.462M386.895 -64.4851L412.611 -49.6377M386.895 -64.4851L412.611 -79.3324M412.611 -49.6377L438.328 -34.7904M412.611 -49.6377L438.328 -64.4851M438.328 -34.7904L464.044 -19.943M438.328 -34.7904L464.044 -49.6377M464.044 -19.943L489.761 -34.7903M464.044 -19.943L592.626 54.2938M592.626 54.2938L618.342 69.1412M592.626 54.2938L618.342 39.4465M618.342 69.1412L644.059 83.9886M618.342 69.1412L644.059 54.2938M644.059 83.9886L669.775 98.8359M644.059 83.9886L669.775 69.1412M669.775 98.8359L695.492 113.683M669.775 98.8359L695.492 83.9886M695.492 113.683L721.208 128.531M695.492 113.683L721.208 98.8359M721.208 128.531L746.924 143.378M721.208 128.531L746.924 113.683M746.924 143.378L772.641 158.225M746.924 143.378L772.641 128.531M772.641 158.225L798.357 173.073M772.641 158.225L798.357 143.378M798.357 173.073L824.074 187.92M798.357 173.073L824.074 158.225M824.074 187.92L849.79 202.767M824.074 187.92L849.79 173.073M849.79 202.767L875.506 217.615M849.79 202.767L875.506 187.92M875.506 217.615L901.223 232.462M875.506 217.615L901.223 202.767M901.223 232.462L926.939 217.615M412.611 -79.3324L438.328 -64.4851M412.611 -79.3324L438.328 -94.1798M438.328 -64.4851L464.044 -49.6377M438.328 -64.4851L464.044 -79.3325M464.044 -49.6377L489.761 -34.7903M464.044 -49.6377L489.761 -64.4851M489.761 -34.7903L515.477 -49.6377M489.761 -34.7903L618.342 39.4465M618.342 39.4465L644.059 54.2938M618.342 39.4465L644.059 24.5991M644.059 54.2938L669.775 69.1412M644.059 54.2938L669.775 39.4465M669.775 69.1412L695.492 83.9886M669.775 69.1412L695.492 54.2938M695.492 83.9886L721.208 98.8359M695.492 83.9886L721.208 69.1412M721.208 98.8359L746.924 113.683M721.208 98.8359L746.924 83.9886M746.924 113.683L772.641 128.531M746.924 113.683L772.641 98.8359M772.641 128.531L798.357 143.378M772.641 128.531L798.357 113.683M798.357 143.378L824.074 158.225M798.357 143.378L824.074 128.531M824.074 158.225L849.79 173.073M824.074 158.225L849.79 143.378M849.79 173.073L875.506 187.92M849.79 173.073L875.506 158.225M875.506 187.92L901.223 202.767M875.506 187.92L901.223 173.073M901.223 202.767L926.939 217.615M901.223 202.767L926.939 187.92M926.939 217.615L952.656 202.767M438.328 -94.1798L464.044 -79.3325M438.328 -94.1798L464.044 -109.027M464.044 -79.3325L489.761 -64.4851M464.044 -79.3325L489.761 -94.1798M489.761 -64.4851L515.477 -49.6377M489.761 -64.4851L515.477 -79.3325M515.477 -49.6377L541.193 -64.4851M515.477 -49.6377L644.059 24.5991M644.059 24.5991L669.775 39.4465M644.059 24.5991L669.775 9.75174M669.775 39.4465L695.492 54.2938M669.775 39.4465L695.492 24.5991M695.492 54.2938L721.208 69.1412M695.492 54.2938L721.208 39.4465M721.208 69.1412L746.924 83.9886M721.208 69.1412L746.924 54.2938M746.924 83.9886L772.641 98.8359M746.924 83.9886L772.641 69.1412M772.641 98.8359L798.357 113.683M772.641 98.8359L798.357 83.9886M798.357 113.683L824.074 128.531M798.357 113.683L824.074 98.8359M824.074 128.531L849.79 143.378M824.074 128.531L849.79 113.683M849.79 143.378L875.506 158.225M849.79 143.378L875.506 128.531M875.506 158.225L901.223 173.073M875.506 158.225L901.223 143.378M901.223 173.073L926.939 187.92M901.223 173.073L926.939 158.225M926.939 187.92L952.656 202.767M926.939 187.92L952.656 173.073M952.656 202.767L978.372 187.92M464.044 -109.027L489.761 -94.1798M464.044 -109.027L489.761 -123.875M489.761 -94.1798L515.477 -109.027M489.761 -94.1798L515.477 -79.3325M515.477 -79.3325L541.193 -64.4851M515.477 -79.3325L541.193 -94.1798M541.193 -64.4851L566.91 -79.3324M541.193 -64.4851L669.775 9.75174M669.775 9.75174L695.492 24.5991M669.775 9.75174L695.492 -5.09562M695.492 24.5991L721.208 39.4465M695.492 24.5991L721.208 9.75174M721.208 39.4465L746.924 54.2938M721.208 39.4465L746.924 24.5991M746.924 54.2938L772.641 69.1412M746.924 54.2938L772.641 39.4465M772.641 69.1412L798.357 83.9886M772.641 69.1412L798.357 54.2938M798.357 83.9886L824.074 98.8359M798.357 83.9886L824.074 69.1412M824.074 98.8359L849.79 113.683M824.074 98.8359L849.79 83.9886M849.79 113.683L875.506 128.531M849.79 113.683L875.506 98.8359M875.506 128.531L901.223 143.378M875.506 128.531L901.223 113.683M901.223 143.378L926.939 158.225M901.223 143.378L926.939 128.531M926.939 158.225L952.656 173.073M926.939 158.225L952.656 143.378M952.656 173.073L978.372 187.92M952.656 173.073L978.372 158.225M978.372 187.92L1004.09 173.073M489.761 -123.875L515.477 -109.027M489.761 -123.875L515.477 -138.722M515.477 -109.027L541.193 -123.875M515.477 -109.027L541.193 -94.1798M541.193 -94.1798L566.91 -79.3324M541.193 -94.1798L566.91 -109.027M566.91 -79.3324L592.626 -94.1798M566.91 -79.3324L695.492 -5.09562M695.492 -5.09562L721.208 9.75174M695.492 -5.09562L721.208 -19.943M721.208 9.75174L746.924 24.5991M721.208 9.75174L746.924 -5.09562M746.924 24.5991L772.641 39.4465M746.924 24.5991L772.641 9.75175M772.641 39.4465L798.357 54.2938M772.641 39.4465L798.357 24.5991M798.357 54.2938L824.074 69.1412M798.357 54.2938L824.074 39.4465M824.074 69.1412L849.79 83.9886M824.074 69.1412L849.79 54.2938M849.79 83.9886L875.506 98.8359M849.79 83.9886L875.506 69.1412M875.506 98.8359L901.223 113.683M875.506 98.8359L901.223 83.9886M901.223 113.683L926.939 128.531M901.223 113.683L926.939 98.8359M926.939 128.531L952.656 143.378M926.939 128.531L952.656 113.683M952.656 143.378L978.372 158.225M952.656 143.378L978.372 128.531M978.372 158.225L1004.09 173.073M978.372 158.225L1004.09 143.378M1004.09 173.073L1029.8 158.225M515.477 -138.722L541.193 -123.875M515.477 -138.722L541.193 -153.569M541.193 -123.875L566.91 -138.722M541.193 -123.875L566.91 -109.027M566.91 -109.027L592.626 -94.1798M566.91 -109.027L592.626 -123.875M592.626 -94.1798L618.342 -109.027M592.626 -94.1798L721.208 -19.943M721.208 -19.943L746.924 -5.09562M721.208 -19.943L746.924 -34.7904M746.924 -5.09562L772.641 9.75175M746.924 -5.09562L772.641 -19.943M772.641 9.75175L798.357 24.5991M772.641 9.75175L798.357 -5.09563M798.357 24.5991L824.074 39.4465M798.357 24.5991L824.074 9.75173M824.074 39.4465L849.79 54.2938M824.074 39.4465L849.79 24.5991M849.79 54.2938L875.506 69.1412M849.79 54.2938L875.506 39.4465M875.506 69.1412L901.223 83.9886M875.506 69.1412L901.223 54.2938M901.223 83.9886L926.939 98.8359M901.223 83.9886L926.939 69.1412M926.939 98.8359L952.656 113.683M926.939 98.8359L952.656 83.9886M952.656 113.683L978.372 128.531M952.656 113.683L978.372 98.8359M978.372 128.531L1004.09 143.378M978.372 128.531L1004.09 113.683M1004.09 143.378L1029.8 158.225M1004.09 143.378L1029.8 128.531M1029.8 158.225L1055.52 143.378M541.193 -153.569L566.91 -138.722M541.193 -153.569L566.91 -168.417M566.91 -138.722L592.626 -153.569M566.91 -138.722L592.626 -123.875M592.626 -123.875L618.342 -109.027M592.626 -123.875L618.342 -138.722M618.342 -109.027L644.059 -123.875M618.342 -109.027L746.924 -34.7904M746.924 -34.7904L772.641 -19.943M746.924 -34.7904L772.641 -49.6377M772.641 -19.943L798.357 -5.09563M772.641 -19.943L798.357 -34.7903M798.357 -5.09563L824.074 9.75173M798.357 -5.09563L824.074 -19.943M824.074 9.75173L849.79 24.5991M824.074 9.75173L849.79 -5.09561M849.79 24.5991L875.506 39.4465M849.79 24.5991L875.506 9.75177M875.506 39.4465L901.223 54.2938M875.506 39.4465L901.223 24.5991M901.223 54.2938L926.939 69.1412M901.223 54.2938L926.939 39.4465M926.939 69.1412L952.656 83.9886M926.939 69.1412L952.656 54.2939M952.656 83.9886L978.372 98.8359M952.656 83.9886L978.372 69.1412M978.372 98.8359L1004.09 113.683M978.372 98.8359L1004.09 83.9886M1004.09 113.683L1029.8 128.531M1004.09 113.683L1029.8 98.8359M1029.8 128.531L1055.52 143.378M1029.8 128.531L1055.52 113.683M1055.52 143.378L1081.24 128.531M566.91 -168.417L592.626 -153.569M566.91 -168.417L592.626 -183.264M592.626 -153.569L618.342 -138.722M592.626 -153.569L618.342 -168.417M618.342 -138.722L644.059 -123.875M618.342 -138.722L644.059 -153.569M644.059 -123.875L669.775 -138.722M644.059 -123.875L772.641 -49.6377M772.641 -49.6377L798.357 -34.7903M772.641 -49.6377L798.357 -64.4851M798.357 -34.7903L824.074 -19.943M798.357 -34.7903L824.074 -49.6377M824.074 -19.943L849.79 -5.09561M824.074 -19.943L849.79 -34.7903M849.79 -5.09561L875.506 9.75177M849.79 -5.09561L875.506 -19.943M875.506 9.75177L901.223 24.5991M875.506 9.75177L901.223 -5.09561M901.223 24.5991L926.939 39.4465M901.223 24.5991L926.939 9.75174M926.939 39.4465L952.656 54.2939M926.939 39.4465L952.656 24.5991M952.656 54.2939L978.372 69.1412M952.656 54.2939L978.372 39.4465M978.372 69.1412L1004.09 83.9886M978.372 69.1412L1004.09 54.2938M1004.09 83.9886L1029.8 98.8359M1004.09 83.9886L1029.8 69.1412M1029.8 98.8359L1055.52 113.683M1029.8 98.8359L1055.52 83.9886M1055.52 113.683L1081.24 128.531M1055.52 113.683L1081.24 98.8359M1081.24 128.531L1106.95 113.683M592.626 -183.264L618.342 -168.417M592.626 -183.264L618.342 -198.111M618.342 -168.417L644.059 -153.569M618.342 -168.417L644.059 -183.264M644.059 -153.569L669.775 -138.722M644.059 -153.569L669.775 -168.417M669.775 -138.722L695.492 -153.569M669.775 -138.722L798.357 -64.4851M798.357 -64.4851L824.074 -49.6377M798.357 -64.4851L824.074 -79.3325M824.074 -49.6377L849.79 -34.7903M824.074 -49.6377L849.79 -64.4851M849.79 -34.7903L875.506 -19.943M849.79 -34.7903L875.506 -49.6377M875.506 -19.943L901.223 -5.09561M875.506 -19.943L901.223 -34.7904M901.223 -5.09561L926.939 9.75174M901.223 -5.09561L926.939 -19.943M926.939 9.75174L952.656 24.5991M926.939 9.75174L952.656 -5.09564M952.656 24.5991L978.372 39.4465M952.656 24.5991L978.372 9.75172M978.372 39.4465L1004.09 54.2938M978.372 39.4465L1004.09 24.5991M1004.09 54.2938L1029.8 69.1412M1004.09 54.2938L1029.8 39.4465M1029.8 69.1412L1055.52 83.9886M1029.8 69.1412L1055.52 54.2938M1055.52 83.9886L1081.24 98.8359M1055.52 83.9886L1081.24 69.1412M1081.24 98.8359L1106.95 113.683M1081.24 98.8359L1106.95 83.9885M1106.95 113.683L1132.67 98.8359M618.342 -198.111L644.059 -183.264M618.342 -198.111L644.059 -212.959M644.059 -183.264L669.775 -168.417M644.059 -183.264L669.775 -198.111M669.775 -168.417L695.492 -153.569M669.775 -168.417L695.492 -183.264M695.492 -153.569L721.208 -168.417M695.492 -153.569L824.074 -79.3325M824.074 -79.3325L849.79 -64.4851M824.074 -79.3325L849.79 -94.1798M849.79 -64.4851L875.506 -49.6377M849.79 -64.4851L875.506 -79.3324M875.506 -49.6377L901.223 -34.7904M875.506 -49.6377L901.223 -64.4851M901.223 -34.7904L926.939 -19.943M901.223 -34.7904L926.939 -49.6377M926.939 -19.943L952.656 -5.09564M926.939 -19.943L952.656 -34.7903M952.656 -5.09564L978.372 9.75172M952.656 -5.09564L978.372 -19.943M978.372 9.75172L1004.09 24.5991M978.372 9.75172L1004.09 -5.09561M1004.09 24.5991L1029.8 39.4465M1004.09 24.5991L1029.8 9.75177M1029.8 39.4465L1055.52 54.2938M1029.8 39.4465L1055.52 24.5991M1055.52 54.2938L1081.24 69.1412M1055.52 54.2938L1081.24 39.4465M1081.24 69.1412L1106.95 83.9885M1081.24 69.1412L1106.95 54.2938M1106.95 83.9885L1132.67 98.8359M1106.95 83.9885L1132.67 69.1412M1132.67 98.8359L1158.39 83.9886M644.059 -212.959L669.775 -198.111M644.059 -212.959L669.775 -227.806M669.775 -198.111L695.492 -183.264M669.775 -198.111L695.492 -212.959M695.492 -183.264L721.208 -168.417M695.492 -183.264L721.208 -198.111M721.208 -168.417L746.924 -183.264M721.208 -168.417L849.79 -94.1798M849.79 -94.1798L875.506 -79.3324M849.79 -94.1798L875.506 -109.027M875.506 -79.3324L901.223 -64.4851M875.506 -79.3324L901.223 -94.1798M901.223 -64.4851L926.939 -49.6377M901.223 -64.4851L926.939 -79.3324M926.939 -49.6377L952.656 -34.7903M926.939 -49.6377L952.656 -64.4851M952.656 -34.7903L978.372 -19.943M952.656 -34.7903L978.372 -49.6377M978.372 -19.943L1004.09 -5.09561M978.372 -19.943L1004.09 -34.7904M1004.09 -5.09561L1029.8 9.75177M1004.09 -5.09561L1029.8 -19.943M1029.8 9.75177L1055.52 24.5991M1029.8 9.75177L1055.52 -5.09561M1055.52 24.5991L1081.24 39.4465M1055.52 24.5991L1081.24 9.75175M1081.24 39.4465L1106.95 54.2938M1081.24 39.4465L1106.95 24.5991M1106.95 54.2938L1132.67 69.1412M1106.95 54.2938L1132.67 39.4465M1132.67 69.1412L1158.39 83.9886M1132.67 69.1412L1158.39 54.2938M1158.39 83.9886L1184.1 69.1412M669.775 -227.806L695.492 -212.959M669.775 -227.806L695.492 -242.653M695.492 -212.959L721.208 -198.111M695.492 -212.959L721.208 -227.806M721.208 -198.111L746.924 -183.264M721.208 -198.111L746.924 -212.959M746.924 -183.264L772.641 -198.111M746.924 -183.264L875.506 -109.027M875.506 -109.027L901.223 -94.1798M875.506 -109.027L901.223 -123.875M901.223 -94.1798L926.939 -79.3324M901.223 -94.1798L926.939 -109.027M926.939 -79.3324L952.656 -64.4851M926.939 -79.3324L952.656 -94.1798M952.656 -64.4851L978.372 -49.6377M952.656 -64.4851L978.372 -79.3325M978.372 -49.6377L1004.09 -34.7904M978.372 -49.6377L1004.09 -64.4851M1004.09 -34.7904L1029.8 -19.943M1004.09 -34.7904L1029.8 -49.6377M1029.8 -19.943L1055.52 -5.09561M1029.8 -19.943L1055.52 -34.7904M1055.52 -5.09561L1081.24 9.75175M1055.52 -5.09561L1081.24 -19.943M1081.24 9.75175L1106.95 24.5991M1081.24 9.75175L1106.95 -5.09563M1106.95 24.5991L1132.67 39.4465M1106.95 24.5991L1132.67 9.75173M1132.67 39.4465L1158.39 54.2938M1132.67 39.4465L1158.39 24.5991M1158.39 54.2938L1184.1 69.1412M1158.39 54.2938L1184.1 39.4464M1184.1 69.1412L1209.82 54.2938M695.492 -242.653L721.208 -227.806M695.492 -242.653L721.208 -257.501M721.208 -227.806L746.924 -212.959M721.208 -227.806L746.924 -242.653M746.924 -212.959L772.641 -198.111M746.924 -212.959L772.641 -227.806M772.641 -198.111L798.357 -212.959M772.641 -198.111L849.79 -153.569M849.79 -153.569L875.506 -138.722M849.79 -153.569L875.506 -168.417M875.506 -138.722L901.223 -123.875M875.506 -138.722L901.223 -153.569M901.223 -123.875L926.939 -109.027M901.223 -123.875L926.939 -138.722M926.939 -109.027L952.656 -94.1798M926.939 -109.027L952.656 -123.875M952.656 -94.1798L978.372 -79.3325M952.656 -94.1798L978.372 -109.027M978.372 -79.3325L1004.09 -64.4851M978.372 -79.3325L1004.09 -94.1798M1004.09 -64.4851L1029.8 -49.6377M1004.09 -64.4851L1029.8 -79.3324M1029.8 -49.6377L1055.52 -34.7904M1029.8 -49.6377L1055.52 -64.4851M1055.52 -34.7904L1081.24 -19.943M1055.52 -34.7904L1081.24 -49.6377M1081.24 -19.943L1106.95 -5.09563M1081.24 -19.943L1106.95 -34.7903M1106.95 -5.09563L1132.67 9.75173M1106.95 -5.09563L1132.67 -19.943M1132.67 9.75173L1158.39 24.5991M1132.67 9.75173L1158.39 -5.09561M1158.39 24.5991L1184.1 39.4464M1158.39 24.5991L1184.1 9.75175M1184.1 39.4464L1209.82 54.2938M1184.1 39.4464L1209.82 24.5991M1209.82 54.2938L1235.54 39.4465M721.208 -257.501L746.924 -242.653M721.208 -257.501L746.924 -272.348M746.924 -242.653L772.641 -227.806M746.924 -242.653L772.641 -257.501M772.641 -227.806L798.357 -212.959M772.641 -227.806L798.357 -242.653M798.357 -212.959L824.074 -227.806M798.357 -212.959L875.506 -168.417M875.506 -168.417L901.223 -153.569M875.506 -168.417L901.223 -183.264M901.223 -153.569L926.939 -138.722M901.223 -153.569L926.939 -168.417M926.939 -138.722L952.656 -123.875M926.939 -138.722L952.656 -153.569M952.656 -123.875L978.372 -109.027M952.656 -123.875L978.372 -138.722M978.372 -109.027L1004.09 -94.1798M978.372 -109.027L1004.09 -123.875M1004.09 -94.1798L1029.8 -79.3324M1004.09 -94.1798L1029.8 -109.027M1029.8 -79.3324L1055.52 -64.4851M1029.8 -79.3324L1055.52 -94.1798M1055.52 -64.4851L1081.24 -49.6377M1055.52 -64.4851L1081.24 -79.3325M1081.24 -49.6377L1106.95 -34.7903M1081.24 -49.6377L1106.95 -64.4851M1106.95 -34.7903L1132.67 -19.943M1106.95 -34.7903L1132.67 -49.6377M1132.67 -19.943L1158.39 -5.09561M1132.67 -19.943L1158.39 -34.7903M1158.39 -5.09561L1184.1 9.75175M1158.39 -5.09561L1184.1 -19.943M1184.1 9.75175L1209.82 24.5991M1184.1 9.75175L1209.82 -5.09563M1209.82 24.5991L1235.54 39.4465M1209.82 24.5991L1235.54 9.75173M1235.54 39.4465L1261.25 24.5991M746.924 -272.348L772.641 -257.501M746.924 -272.348L772.641 -287.196M772.641 -257.501L798.357 -242.653M772.641 -257.501L798.357 -272.348M798.357 -242.653L824.074 -227.806M798.357 -242.653L824.074 -257.501M824.074 -227.806L849.79 -242.653M824.074 -227.806L901.223 -183.264M901.223 -183.264L926.939 -168.417M901.223 -183.264L926.939 -198.111M926.939 -168.417L952.656 -153.569M926.939 -168.417L952.655 -183.264M952.656 -153.569L978.372 -138.722M952.656 -153.569L978.372 -168.417M978.372 -138.722L1004.09 -123.875M978.372 -138.722L1004.09 -153.569M1004.09 -123.875L1029.8 -109.027M1004.09 -123.875L1029.8 -138.722M1029.8 -109.027L1055.52 -94.1798M1029.8 -109.027L1055.52 -123.875M1055.52 -94.1798L1081.24 -79.3325M1055.52 -94.1798L1081.24 -109.027M1081.24 -79.3325L1106.95 -64.4851M1081.24 -79.3325L1106.95 -94.1798M1106.95 -64.4851L1132.67 -49.6377M1106.95 -64.4851L1132.67 -79.3324M1132.67 -49.6377L1158.39 -34.7903M1132.67 -49.6377L1158.39 -64.485M1158.39 -34.7903L1184.1 -19.943M1158.39 -34.7903L1184.1 -49.6377M1184.1 -19.943L1209.82 -5.09563M1184.1 -19.943L1209.82 -34.7903M1209.82 -5.09563L1235.54 9.75173M1209.82 -5.09563L1235.54 -19.943M1235.54 9.75173L1261.25 24.5991M1235.54 9.75173L1261.25 -5.09561M1261.25 24.5991L1286.97 9.75178M772.641 -287.196L798.357 -272.348M772.641 -287.196L798.357 -302.043M798.357 -272.348L824.074 -257.501M798.357 -272.348L824.074 -287.196M824.074 -257.501L849.79 -242.653M824.074 -257.501L849.79 -272.348M849.79 -242.653L875.506 -227.806M849.79 -242.653L875.506 -257.501M875.506 -227.806L901.223 -212.959M875.506 -227.806L901.223 -242.653M901.223 -212.959L926.939 -198.111M901.223 -212.959L926.939 -227.806M926.939 -198.111L952.655 -183.264M926.939 -198.111L952.656 -212.959M952.655 -183.264L978.372 -168.417M952.655 -183.264L978.372 -198.111M978.372 -168.417L1004.09 -153.569M978.372 -168.417L1004.09 -183.264M1004.09 -153.569L1029.8 -138.722M1004.09 -153.569L1029.8 -168.417M1029.8 -138.722L1055.52 -123.875M1029.8 -138.722L1055.52 -153.569M1055.52 -123.875L1081.24 -109.027M1055.52 -123.875L1081.24 -138.722M1081.24 -109.027L1106.95 -94.1798M1081.24 -109.027L1106.95 -123.875M1106.95 -94.1798L1132.67 -79.3324M1106.95 -94.1798L1132.67 -109.027M1132.67 -79.3324L1158.39 -64.485M1132.67 -79.3324L1158.39 -94.1798M1158.39 -64.485L1184.1 -49.6377M1158.39 -64.485L1184.1 -79.3324M1184.1 -49.6377L1209.82 -34.7903M1184.1 -49.6377L1209.82 -64.4851M1209.82 -34.7903L1235.54 -19.943M1209.82 -34.7903L1235.54 -49.6377M1235.54 -19.943L1261.25 -5.09561M1235.54 -19.943L1261.25 -34.7903M1261.25 -5.09561L1286.97 9.75178M1261.25 -5.09561L1286.97 -19.943M1286.97 9.75178L1312.68 -5.09561M798.357 -302.043L824.074 -287.196M798.357 -302.043L824.074 -316.89M824.074 -287.196L849.79 -272.348M824.074 -287.196L849.79 -302.043M849.79 -272.348L875.506 -257.501M849.79 -272.348L875.506 -287.196M875.506 -257.501L901.223 -242.653M875.506 -257.501L901.223 -272.348M901.223 -242.653L926.939 -227.806M901.223 -242.653L926.939 -257.501M926.939 -227.806L952.656 -212.959M926.939 -227.806L952.656 -242.653M952.656 -212.959L978.372 -198.111M952.656 -212.959L978.372 -227.806M978.372 -198.111L1004.09 -183.264M978.372 -198.111L1004.09 -212.959M1004.09 -183.264L1029.8 -168.417M1004.09 -183.264L1029.8 -198.111M1029.8 -168.417L1055.52 -153.569M1029.8 -168.417L1055.52 -183.264M1055.52 -153.569L1081.24 -138.722M1055.52 -153.569L1081.24 -168.417M1081.24 -138.722L1106.95 -123.875M1081.24 -138.722L1106.95 -153.569M1106.95 -123.875L1132.67 -109.027M1106.95 -123.875L1132.67 -138.722M1132.67 -109.027L1158.39 -94.1798M1132.67 -109.027L1158.39 -123.875M1158.39 -94.1798L1184.1 -79.3324M1158.39 -94.1798L1184.1 -109.027M1184.1 -79.3324L1209.82 -64.4851M1184.1 -79.3324L1209.82 -94.1798M1209.82 -64.4851L1235.54 -49.6377M1209.82 -64.4851L1235.54 -79.3324M1235.54 -49.6377L1261.25 -34.7903M1235.54 -49.6377L1261.25 -64.4851M1261.25 -34.7903L1286.97 -19.943M1261.25 -34.7903L1286.97 -49.6377M1286.97 -19.943L1312.68 -5.09561M1286.97 -19.943L1312.68 -34.7904M1312.68 -5.09561L1338.4 -19.943M824.074 -316.89L849.79 -302.043M824.074 -316.89L849.79 -331.738M849.79 -302.043L875.506 -287.196M849.79 -302.043L875.506 -316.89M875.506 -287.196L901.223 -272.348M875.506 -287.196L901.223 -302.043M901.223 -272.348L926.939 -257.501M901.223 -272.348L926.939 -287.196M926.939 -257.501L952.656 -242.653M926.939 -257.501L952.656 -272.348M952.656 -242.653L978.372 -227.806M952.656 -242.653L978.372 -257.501M978.372 -227.806L1004.09 -212.959M978.372 -227.806L1004.09 -242.653M1004.09 -212.959L1029.8 -198.111M1004.09 -212.959L1029.8 -227.806M1029.8 -198.111L1055.52 -183.264M1029.8 -198.111L1055.52 -212.959M1055.52 -183.264L1081.24 -168.417M1055.52 -183.264L1081.24 -198.111M1081.24 -168.417L1106.95 -153.569M1081.24 -168.417L1106.95 -183.264M1106.95 -153.569L1132.67 -138.722M1106.95 -153.569L1132.67 -168.417M1132.67 -138.722L1158.39 -123.875M1132.67 -138.722L1158.39 -153.569M1158.39 -123.875L1184.1 -109.027M1158.39 -123.875L1184.1 -138.722M1184.1 -109.027L1209.82 -94.1798M1184.1 -109.027L1209.82 -123.875M1209.82 -94.1798L1235.54 -79.3324M1209.82 -94.1798L1235.54 -109.027M1235.54 -79.3324L1261.25 -64.4851M1235.54 -79.3324L1261.25 -94.1798M1261.25 -64.4851L1286.97 -49.6377M1261.25 -64.4851L1286.97 -79.3324M1286.97 -49.6377L1312.68 -34.7904M1286.97 -49.6377L1312.68 -64.4851M1312.68 -34.7904L1338.4 -19.943M1312.68 -34.7904L1338.4 -49.6377M1338.4 -19.943L1364.12 -34.7903M849.79 -331.738L875.506 -316.89M849.79 -331.738L875.506 -346.585M875.506 -316.89L901.223 -302.043M875.506 -316.89L901.223 -331.738M901.223 -302.043L926.939 -287.196M901.223 -302.043L926.939 -316.89M926.939 -287.196L952.656 -272.348M926.939 -287.196L952.656 -302.043M952.656 -272.348L978.372 -257.501M952.656 -272.348L978.372 -287.196M978.372 -257.501L1004.09 -242.653M978.372 -257.501L1004.09 -272.348M1004.09 -242.653L1029.8 -227.806M1004.09 -242.653L1029.8 -257.501M1029.8 -227.806L1055.52 -212.959M1029.8 -227.806L1055.52 -242.653M1055.52 -212.959L1081.24 -198.111M1055.52 -212.959L1081.24 -227.806M1081.24 -198.111L1106.95 -183.264M1081.24 -198.111L1106.95 -212.959M1106.95 -183.264L1132.67 -168.417M1106.95 -183.264L1132.67 -198.111M1132.67 -168.417L1158.39 -153.569M1132.67 -168.417L1158.39 -183.264M1158.39 -153.569L1184.1 -138.722M1158.39 -153.569L1184.1 -168.417M1184.1 -138.722L1209.82 -123.875M1184.1 -138.722L1209.82 -153.569M1209.82 -123.875L1235.54 -109.027M1209.82 -123.875L1235.54 -138.722M1235.54 -109.027L1261.25 -94.1798M1235.54 -109.027L1261.25 -123.875M1261.25 -94.1798L1286.97 -79.3324M1261.25 -94.1798L1286.97 -109.027M1286.97 -79.3324L1312.68 -64.4851M1286.97 -79.3324L1312.68 -94.1798M1312.68 -64.4851L1338.4 -49.6377M1312.68 -64.4851L1338.4 -79.3324M1338.4 -49.6377L1364.12 -34.7903M1338.4 -49.6377L1364.12 -64.4851M1364.12 -34.7903L1389.83 -49.6377M875.506 -346.585L901.223 -331.738M875.506 -346.585L901.223 -361.432M901.223 -331.738L926.939 -316.89M901.223 -331.738L926.939 -346.585M926.939 -316.89L952.656 -302.043M926.939 -316.89L952.655 -331.738M952.656 -302.043L978.372 -287.196M952.656 -302.043L978.372 -316.89M978.372 -287.196L1004.09 -272.348M978.372 -287.196L1004.09 -302.043M1004.09 -272.348L1029.8 -257.501M1004.09 -272.348L1029.8 -287.196M1029.8 -257.501L1055.52 -242.653M1029.8 -257.501L1055.52 -272.348M1055.52 -242.653L1081.24 -257.501M1055.52 -242.653L1081.24 -227.806M1081.24 -227.806L1106.95 -212.959M1081.24 -227.806L1106.95 -242.653M1106.95 -212.959L1132.67 -198.111M1106.95 -212.959L1132.67 -227.806M1132.67 -198.111L1158.39 -183.264M1132.67 -198.111L1158.39 -212.959M1158.39 -183.264L1184.1 -168.417M1158.39 -183.264L1184.1 -198.111M1184.1 -168.417L1209.82 -153.569M1184.1 -168.417L1209.82 -183.264M1209.82 -153.569L1235.54 -138.722M1209.82 -153.569L1235.54 -168.417M1235.54 -138.722L1261.25 -123.875M1235.54 -138.722L1261.25 -153.569M1261.25 -123.875L1286.97 -109.027M1261.25 -123.875L1286.97 -138.722M1286.97 -109.027L1312.68 -94.1798M1286.97 -109.027L1312.68 -123.875M1312.68 -94.1798L1338.4 -79.3324M1312.68 -94.1798L1338.4 -109.027M1338.4 -79.3324L1364.12 -64.4851M1338.4 -79.3324L1364.12 -94.1798M1364.12 -64.4851L1389.83 -49.6377M1364.12 -64.4851L1389.83 -79.3324M1389.83 -49.6377L1415.55 -64.485M901.223 -361.432L926.939 -346.585M901.223 -361.432L926.939 -376.28M926.939 -346.585L952.655 -331.738M926.939 -346.585L952.656 -361.432M952.655 -331.738L978.372 -316.89M952.655 -331.738L978.372 -346.585M978.372 -316.89L1004.09 -302.043M978.372 -316.89L1004.09 -331.738M1004.09 -302.043L1029.8 -287.196M1004.09 -302.043L1029.8 -316.89M1029.8 -287.196L1055.52 -272.348M1029.8 -287.196L1055.52 -302.043M1055.52 -272.348L1081.24 -257.501M1055.52 -272.348L1081.24 -287.196M1081.24 -257.501L1106.95 -242.653M1081.24 -257.501L1106.95 -272.348M1106.95 -242.653L1132.67 -227.806M1106.95 -242.653L1132.67 -257.501M1132.67 -227.806L1158.39 -212.959M1132.67 -227.806L1158.39 -242.653M1158.39 -212.959L1184.1 -198.111M1158.39 -212.959L1184.1 -227.806M1184.1 -198.111L1209.82 -183.264M1184.1 -198.111L1209.82 -212.959M1209.82 -183.264L1235.54 -168.417M1209.82 -183.264L1235.54 -198.111M1235.54 -168.417L1261.25 -153.569M1235.54 -168.417L1261.25 -183.264M1261.25 -153.569L1286.97 -138.722M1261.25 -153.569L1286.97 -168.417M1286.97 -138.722L1312.68 -123.875M1286.97 -138.722L1312.68 -153.569M1312.68 -123.875L1338.4 -109.027M1312.68 -123.875L1338.4 -138.722M1338.4 -109.027L1364.12 -94.1798M1338.4 -109.027L1364.12 -123.875M1364.12 -94.1798L1389.83 -79.3324M1364.12 -94.1798L1389.83 -109.027M1389.83 -79.3324L1415.55 -64.485M1389.83 -79.3324L1415.55 -94.1798M1415.55 -64.485L1441.27 -79.3324M926.939 -376.28L952.656 -361.432M926.939 -376.28L952.656 -391.127M952.656 -361.432L978.372 -346.585M952.656 -361.432L978.372 -376.28M978.372 -346.585L1004.09 -331.738M978.372 -346.585L1004.09 -361.432M1004.09 -331.738L1029.8 -316.89M1004.09 -331.738L1029.8 -346.585M1029.8 -316.89L1055.52 -302.043M1029.8 -316.89L1055.52 -331.738M1055.52 -302.043L1081.24 -287.196M1055.52 -302.043L1081.24 -316.89M1081.24 -287.196L1106.95 -272.348M1081.24 -287.196L1106.95 -302.043M1106.95 -272.348L1132.67 -257.501M1106.95 -272.348L1132.67 -287.196M1132.67 -257.501L1158.39 -242.653M1132.67 -257.501L1158.39 -272.348M1158.39 -242.653L1184.1 -227.806M1158.39 -242.653L1184.1 -257.501M1184.1 -227.806L1209.82 -212.959M1184.1 -227.806L1209.82 -242.653M1209.82 -212.959L1235.54 -198.111M1209.82 -212.959L1235.54 -227.806M1235.54 -198.111L1261.25 -183.264M1235.54 -198.111L1261.25 -212.959M1261.25 -183.264L1286.97 -168.417M1261.25 -183.264L1286.97 -198.111M1286.97 -168.417L1312.68 -153.569M1286.97 -168.417L1312.68 -183.264M1312.68 -153.569L1338.4 -138.722M1312.68 -153.569L1338.4 -168.417M1338.4 -138.722L1364.12 -123.875M1338.4 -138.722L1364.12 -153.569M1364.12 -123.875L1389.83 -109.027M1364.12 -123.875L1389.83 -138.722M1389.83 -109.027L1415.55 -94.1798M1389.83 -109.027L1415.55 -123.875M1415.55 -94.1798L1441.27 -79.3324M1415.55 -94.1798L1441.27 -109.027M1441.27 -79.3324L1466.98 -94.1798M952.656 -391.127L978.372 -376.28M952.656 -391.127L978.372 -405.974M978.372 -376.28L1004.09 -361.432M978.372 -376.28L1004.09 -391.127M1004.09 -361.432L1029.8 -346.585M1004.09 -361.432L1029.8 -376.28M1029.8 -346.585L1055.52 -331.738M1029.8 -346.585L1055.52 -361.432M1055.52 -331.738L1081.24 -316.89M1055.52 -331.738L1081.24 -346.585M1081.24 -316.89L1106.95 -302.043M1081.24 -316.89L1106.95 -331.738M1106.95 -302.043L1132.67 -287.196M1106.95 -302.043L1132.67 -316.89M1132.67 -287.196L1158.39 -272.348M1132.67 -287.196L1158.39 -302.043M1158.39 -272.348L1184.1 -257.501M1158.39 -272.348L1184.1 -287.196M1184.1 -257.501L1209.82 -242.653M1184.1 -257.501L1209.82 -272.348M1209.82 -242.653L1235.54 -227.806M1209.82 -242.653L1235.54 -257.501M1235.54 -227.806L1261.25 -212.959M1235.54 -227.806L1261.25 -242.653M1261.25 -212.959L1286.97 -198.111M1261.25 -212.959L1286.97 -227.806M1286.97 -198.111L1312.68 -183.264M1286.97 -198.111L1312.68 -212.959M1312.68 -183.264L1338.4 -168.417M1312.68 -183.264L1338.4 -198.111M1338.4 -168.417L1364.12 -153.569M1338.4 -168.417L1364.12 -183.264M1364.12 -153.569L1389.83 -138.722M1364.12 -153.569L1389.83 -168.417M1389.83 -138.722L1415.55 -123.875M1389.83 -138.722L1415.55 -153.569M1415.55 -123.875L1441.27 -109.027M1415.55 -123.875L1441.27 -138.722M1441.27 -109.027L1466.98 -94.1798M1441.27 -109.027L1466.98 -123.875M1466.98 -94.1798L1492.7 -109.027M978.372 -405.974L1004.09 -391.127M978.372 -405.974L1004.09 -420.822M1004.09 -391.127L1029.8 -376.28M1004.09 -391.127L1029.8 -405.974M1029.8 -376.28L1055.52 -361.432M1029.8 -376.28L1055.52 -391.127M1055.52 -361.432L1081.24 -346.585M1055.52 -361.432L1081.24 -376.28M1081.24 -346.585L1106.95 -331.738M1081.24 -346.585L1106.95 -361.432M1106.95 -331.738L1132.67 -316.89M1106.95 -331.738L1132.67 -346.585M1132.67 -316.89L1158.39 -302.043M1132.67 -316.89L1158.39 -331.738M1158.39 -302.043L1184.1 -287.196M1158.39 -302.043L1184.1 -316.89M1184.1 -287.196L1209.82 -272.348M1184.1 -287.196L1209.82 -302.043M1209.82 -272.348L1235.54 -257.501M1209.82 -272.348L1235.54 -287.196M1235.54 -257.501L1261.25 -242.653M1235.54 -257.501L1261.25 -272.348M1261.25 -242.653L1286.97 -227.806M1261.25 -242.653L1286.97 -257.501M1286.97 -227.806L1312.68 -212.959M1286.97 -227.806L1312.68 -242.653M1312.68 -212.959L1338.4 -198.111M1312.68 -212.959L1338.4 -227.806M1338.4 -198.111L1364.12 -183.264M1338.4 -198.111L1364.12 -212.959M1364.12 -183.264L1389.83 -168.417M1364.12 -183.264L1389.83 -198.111M1389.83 -168.417L1415.55 -153.569M1389.83 -168.417L1415.55 -183.264M1415.55 -153.569L1441.27 -138.722M1415.55 -153.569L1441.27 -168.417M1441.27 -138.722L1466.98 -123.875M1441.27 -138.722L1466.98 -153.569M1466.98 -123.875L1492.7 -109.027M1466.98 -123.875L1492.7 -138.722M1492.7 -109.027L1518.42 -123.875M1004.09 -420.822L1029.8 -405.974M1004.09 -420.822L1029.8 -435.669M1029.8 -405.974L1055.52 -391.127M1029.8 -405.974L1055.52 -420.822M1055.52 -391.127L1081.24 -376.28M1055.52 -391.127L1081.24 -405.974M1081.24 -376.28L1106.95 -361.432M1081.24 -376.28L1106.95 -391.127M1106.95 -361.432L1132.67 -346.585M1106.95 -361.432L1132.67 -376.28M1132.67 -346.585L1158.39 -331.738M1132.67 -346.585L1158.39 -361.432M1158.39 -331.738L1184.1 -316.89M1158.39 -331.738L1184.1 -346.585M1184.1 -316.89L1209.82 -302.043M1184.1 -316.89L1209.82 -331.738M1209.82 -302.043L1235.54 -287.196M1209.82 -302.043L1235.54 -316.89M1235.54 -287.196L1261.25 -272.348M1235.54 -287.196L1261.25 -302.043M1261.25 -272.348L1286.97 -257.501M1261.25 -272.348L1286.97 -287.196M1286.97 -257.501L1312.68 -242.653M1286.97 -257.501L1312.68 -272.348M1312.68 -242.653L1338.4 -227.806M1312.68 -242.653L1338.4 -257.501M1338.4 -227.806L1364.12 -212.959M1338.4 -227.806L1364.12 -242.653M1364.12 -212.959L1389.83 -198.111M1364.12 -212.959L1389.83 -227.806M1389.83 -198.111L1415.55 -183.264M1389.83 -198.111L1415.55 -212.959M1415.55 -183.264L1441.27 -168.417M1415.55 -183.264L1441.27 -198.111M1441.27 -168.417L1466.98 -153.569M1441.27 -168.417L1466.98 -183.264M1466.98 -153.569L1492.7 -138.722M1466.98 -153.569L1492.7 -168.417M1492.7 -138.722L1518.42 -123.875M1492.7 -138.722L1518.42 -153.569M1518.42 -123.875L1544.13 -138.722M1029.8 -435.669L1055.52 -420.822M1029.8 -435.669L1055.52 -450.517L1081.24 -435.669M1055.52 -420.822L1081.24 -405.974M1055.52 -420.822L1081.24 -435.669M1081.24 -405.974L1106.95 -391.127M1081.24 -405.974L1106.95 -420.822M1106.95 -391.127L1132.67 -376.28M1106.95 -391.127L1132.67 -405.974M1132.67 -376.28L1158.39 -361.432M1132.67 -376.28L1158.39 -391.127M1158.39 -361.432L1184.1 -346.585M1158.39 -361.432L1184.1 -376.28M1184.1 -346.585L1209.82 -331.738M1184.1 -346.585L1209.82 -361.432M1209.82 -331.738L1235.54 -316.89M1209.82 -331.738L1235.54 -346.585M1235.54 -316.89L1261.25 -302.043M1235.54 -316.89L1261.25 -331.738M1261.25 -302.043L1286.97 -287.196M1261.25 -302.043L1286.97 -316.89M1286.97 -287.196L1312.68 -272.348M1286.97 -287.196L1312.68 -302.043M1312.68 -272.348L1338.4 -257.501M1312.68 -272.348L1338.4 -287.196M1338.4 -257.501L1364.12 -242.653M1338.4 -257.501L1364.12 -272.348M1364.12 -242.653L1389.83 -227.806M1364.12 -242.653L1389.83 -257.501M1389.83 -227.806L1415.55 -212.959M1389.83 -227.806L1415.55 -242.653M1415.55 -212.959L1441.27 -198.111M1415.55 -212.959L1441.27 -227.806M1441.27 -198.111L1466.98 -183.264M1441.27 -198.111L1466.98 -212.959M1466.98 -183.264L1492.7 -168.417M1466.98 -183.264L1492.7 -198.111M1492.7 -168.417L1518.42 -153.569M1492.7 -168.417L1518.42 -183.264M1518.42 -153.569L1544.13 -138.722M1518.42 -153.569L1544.13 -168.417M1544.13 -138.722L1569.85 -153.569L1544.13 -168.417M1081.24 -435.669L1106.95 -420.822M1106.95 -420.822L1132.67 -405.974M1132.67 -405.974L1158.39 -391.127M1158.39 -391.127L1184.1 -376.28M1184.1 -376.28L1209.82 -361.432M1209.82 -361.432L1235.54 -346.585M1235.54 -346.585L1261.25 -331.738M1261.25 -331.738L1286.97 -316.89M1286.97 -316.89L1312.68 -302.043M1312.68 -302.043L1338.4 -287.196M1338.4 -287.196L1364.12 -272.348M1364.12 -272.348L1389.83 -257.501M1389.83 -257.501L1415.55 -242.653M1415.55 -242.653L1441.27 -227.806M1441.27 -227.806L1466.98 -212.959M1466.98 -212.959L1492.7 -198.111M1492.7 -198.111L1518.42 -183.264M1518.42 -183.264L1544.13 -168.417" stroke="#BBBBBB" stroke-opacity="0.7" stroke-width="0.207494"/>
</g>
<rect width="661.096" height="271.792" transform="matrix(0.866025 -0.5 0.866025 0.5 -21.209 200.965)" fill="black"/>
<g clip-path="url(#clip1_533_133334)">
<rect width="459.438" height="22.1086" transform="matrix(0.866025 -0.5 0.866025 0.5 68.187 199.575)" fill="white" fill-opacity="0.15"/>
<rect x="0.624347" width="458.717" height="21.3877" transform="matrix(0.866025 -0.5 0.866025 0.5 68.2707 199.887)" stroke="white" stroke-opacity="0.1" stroke-width="0.720933"/>
<path d="M548.029 1096.91L-1165.19 107.787" stroke="#BBBBBB" stroke-opacity="0.5" stroke-width="0.208396"/>
<path d="M1164.79 740.828L-548.429 -248.298" stroke="#BBBBBB" stroke-opacity="0.5" stroke-width="0.208396"/>
<path d="M856.408 918.87L-856.808 -70.2556" stroke="#BBBBBB" stroke-opacity="0.5" stroke-width="0.208396"/>
<path d="M1473.17 562.785L-240.05 -426.341" stroke="#BBBBBB" stroke-opacity="0.5" stroke-width="0.208396"/>
<path d="M1832.94 355.069L119.725 -634.057" stroke="#BBBBBB" stroke-opacity="0.5" stroke-width="0.208396"/>
<path d="M702.219 1007.89L-1011 18.7659" stroke="#BBBBBB" stroke-opacity="0.5" stroke-width="0.208396"/>
<path d="M1318.98 651.806L-394.24 -337.319" stroke="#BBBBBB" stroke-opacity="0.5" stroke-width="0.208396"/>
<path d="M1010.6 829.849L-702.619 -159.277" stroke="#BBBBBB" stroke-opacity="0.5" stroke-width="0.208396"/>
<path d="M1627.35 473.764L770.746 -20.7992L-85.8615 -515.362" stroke="#BBBBBB" stroke-opacity="0.5" stroke-width="0.208396"/>
<path d="M1987.13 266.047L273.914 -723.079" stroke="#BBBBBB" stroke-opacity="0.5" stroke-width="0.208396"/>
<path d="M599.426 1067.24L-1113.79 78.113" stroke="#BBBBBB" stroke-opacity="0.5" stroke-width="0.208396"/>
<path d="M1216.18 711.154L-497.033 -277.972" stroke="#BBBBBB" stroke-opacity="0.5" stroke-width="0.208396"/>
<path d="M907.804 889.196L-805.412 -99.9293" stroke="#BBBBBB" stroke-opacity="0.5" stroke-width="0.208396"/>
<path d="M1524.56 533.111L-188.655 -456.015" stroke="#BBBBBB" stroke-opacity="0.5" stroke-width="0.208396"/>
<path d="M1884.34 325.395L171.121 -663.731" stroke="#BBBBBB" stroke-opacity="0.5" stroke-width="0.208396"/>
<path d="M753.615 978.218L-959.601 -10.9082" stroke="#BBBBBB" stroke-opacity="0.5" stroke-width="0.208396"/>
<path d="M1370.37 622.132L-342.844 -366.993" stroke="#BBBBBB" stroke-opacity="0.5" stroke-width="0.208396"/>
<path d="M1061.99 800.175L-651.223 -188.951" stroke="#BBBBBB" stroke-opacity="0.5" stroke-width="0.208396"/>
<path d="M1678.75 444.09L-34.4645 -545.036" stroke="#BBBBBB" stroke-opacity="0.5" stroke-width="0.208396"/>
<path d="M2038.53 236.373L325.31 -752.752" stroke="#BBBBBB" stroke-opacity="0.5" stroke-width="0.208396"/>
<path d="M650.822 1037.56L-1062.39 48.4392" stroke="#BBBBBB" stroke-opacity="0.5" stroke-width="0.208396"/>
<path d="M1267.58 681.48L-445.636 -307.646" stroke="#BBBBBB" stroke-opacity="0.5" stroke-width="0.208396"/>
<path d="M959.201 859.523L-754.015 -129.603" stroke="#BBBBBB" stroke-opacity="0.5" stroke-width="0.208396"/>
<path d="M1575.96 503.437L-137.257 -485.688" stroke="#BBBBBB" stroke-opacity="0.5" stroke-width="0.208396"/>
<path d="M1935.73 295.721L222.518 -693.405" stroke="#BBBBBB" stroke-opacity="0.5" stroke-width="0.208396"/>
<path d="M805.012 948.544L-908.204 -40.5818" stroke="#BBBBBB" stroke-opacity="0.5" stroke-width="0.208396"/>
<path d="M1421.77 592.459L-291.447 -396.667" stroke="#BBBBBB" stroke-opacity="0.5" stroke-width="0.208396"/>
<path d="M1781.54 384.742L68.328 -604.383" stroke="#BBBBBB" stroke-opacity="0.5" stroke-width="0.208396"/>
<path d="M1113.39 770.501L-599.825 -218.625" stroke="#BBBBBB" stroke-opacity="0.5" stroke-width="0.208396"/>
<path d="M1730.15 414.416L16.9315 -574.71" stroke="#BBBBBB" stroke-opacity="0.5" stroke-width="0.208396"/>
<path fill-rule="evenodd" clip-rule="evenodd" d="M289.152 116.976L231.478 83.8133L232.199 83.4529L289.873 116.616L289.152 116.976Z" fill="#D4FFFF"/>
<rect width="210.513" height="66.3259" transform="matrix(0.866025 -0.5 0.866025 0.5 49.4426 189.07)" fill="url(#paint0_linear_533_133334)"/>
<rect x="0.624347" width="449.349" height="21.3877" transform="matrix(0.866025 -0.5 0.866025 0.5 68.2707 199.887)" fill="url(#paint1_linear_533_133334)"/>
<rect x="0.624347" width="449.349" height="21.3877" transform="matrix(0.866025 -0.5 0.866025 0.5 68.2707 199.887)" stroke="url(#paint2_linear_533_133334)" stroke-width="0.720933"/>
</g>
<path d="M249.943 5.08557L254.431 7.67688M249.943 7.67688L254.431 5.08557" stroke="#BBBBBB" stroke-width="0.209071"/>
<path d="M146.85 64.2019L151.338 66.7932M146.85 66.7932L151.338 64.2019" stroke="#BBBBBB" stroke-width="0.209071"/>
<path d="M198.036 34.6438L202.524 37.2351M198.036 37.2351L202.524 34.6438" stroke="#BBBBBB" stroke-width="0.209071"/>
<path d="M94.9426 93.7603L99.4309 96.3516M94.9426 96.3516L99.4309 93.7603" stroke="#BBBBBB" stroke-width="0.209071"/>
<rect width="405.987" height="22.1086" transform="matrix(0.866025 -0.5 0.866025 0.5 135.233 240.667)" fill="white" fill-opacity="0.15"/>
<rect x="0.624347" width="405.266" height="21.3877" transform="matrix(0.866025 -0.5 0.866025 0.5 135.317 240.979)" stroke="white" stroke-opacity="0.1" stroke-width="0.720933"/>
<path d="M154.38 251.722C143.806 245.616 143.806 235.718 154.38 229.613L361.158 110.229C366.446 107.177 375.018 107.177 380.305 110.229V110.229C385.592 113.282 385.592 118.231 380.305 121.284L154.38 251.722V251.722Z" fill="white" fill-opacity="0.15"/>
<path d="M154.692 229.793L361.471 110.41C366.585 107.457 374.878 107.457 379.993 110.41C385.108 113.363 385.108 118.15 379.993 121.103L154.383 251.36C144.291 245.341 144.394 235.739 154.692 229.793Z" stroke="white" stroke-opacity="0.1" stroke-width="0.720933"/>
<path d="M229.311 82.1914C228.449 82.6891 227.052 82.6891 226.19 82.1914C225.328 81.6937 225.328 80.8867 226.19 80.389C227.052 79.8913 228.449 79.8913 229.311 80.389C230.174 80.8867 230.174 81.6937 229.311 82.1914Z" fill="#D4FFFF"/>
<g opacity="0.8" filter="url(#filter0_bddd_533_133334)">
<rect width="86.6393" height="15.8837" rx="2.88373" transform="matrix(0.866025 -0.5 0.866025 0.5 47.1064 93.5625)" fill="black" fill-opacity="0.6" shape-rendering="crispEdges"/>
<rect x="0.18106" width="86.4303" height="15.6747" rx="2.7792" transform="matrix(0.866025 -0.5 0.866025 0.5 47.1307 93.653)" stroke="white" stroke-opacity="0.07" stroke-width="0.209071" shape-rendering="crispEdges"/>
<rect x="0.18106" width="86.4303" height="15.6747" rx="2.7792" transform="matrix(0.866025 -0.5 0.866025 0.5 47.1307 93.653)" stroke="url(#paint3_linear_533_133334)" stroke-width="0.209071" style="mix-blend-mode:overlay" shape-rendering="crispEdges"/>
<path d="M72.6007 85.3975L72.3772 85.2685L74.3527 84.1279L74.5762 84.257L73.7128 84.7554L76.2138 86.1993L75.965 86.343L73.4641 84.899L72.6007 85.3975ZM78.5005 84.9221C78.3329 85.0188 78.1529 85.088 77.9604 85.1294C77.7671 85.1704 77.5777 85.1819 77.3924 85.164C77.207 85.1461 77.0416 85.0977 76.8962 85.0188L77.1476 84.8737C77.2514 84.9285 77.3689 84.961 77.5001 84.9712C77.6305 84.981 77.7635 84.9707 77.8992 84.9405C78.034 84.9098 78.1591 84.8611 78.2744 84.7946C78.4003 84.7219 78.4877 84.6443 78.5364 84.5619C78.5861 84.4789 78.5972 84.3983 78.5697 84.3199C78.5422 84.2406 78.4766 84.1709 78.3728 84.111C78.2628 84.0475 78.1378 84.0076 77.9977 83.9912C77.8576 83.9748 77.7117 83.9833 77.56 84.0166C77.4092 84.0493 77.2616 84.1074 77.117 84.1909L76.9574 84.2831L76.7339 84.154L76.8935 84.0619C77.0115 83.9938 77.0944 83.9213 77.1423 83.8445C77.1902 83.7667 77.2013 83.6901 77.1756 83.6149C77.1498 83.5396 77.0842 83.4715 76.9787 83.4106C76.8785 83.3527 76.7676 83.3148 76.6461 83.2969C76.5246 83.279 76.4009 83.2813 76.275 83.3038C76.1499 83.3258 76.0328 83.3683 75.9238 83.4313C75.8182 83.4922 75.742 83.5598 75.695 83.6341C75.648 83.7083 75.6346 83.7826 75.655 83.8568C75.6763 83.9305 75.7362 83.9979 75.8346 84.0588L75.5939 84.1978C75.4555 84.1138 75.3699 84.0194 75.3371 83.9144C75.3043 83.8084 75.3198 83.7022 75.3837 83.5957C75.4475 83.4881 75.5553 83.3906 75.7069 83.303C75.8674 83.2104 76.0391 83.1492 76.2217 83.1195C76.4044 83.0898 76.5823 83.088 76.7552 83.1141C76.9281 83.1392 77.0798 83.1894 77.2101 83.2646C77.3653 83.3543 77.4563 83.4554 77.4829 83.568C77.5086 83.6802 77.4713 83.7897 77.3711 83.8967L77.3884 83.9067C77.5968 83.8263 77.8105 83.792 78.0296 83.8038C78.2487 83.8146 78.4447 83.8699 78.6176 83.9697C78.763 84.0537 78.8557 84.1512 78.8956 84.2623C78.9346 84.3729 78.9213 84.4861 78.8557 84.6018C78.7901 84.7165 78.6717 84.8233 78.5005 84.9221Z" fill="#BBBBBB"/>
</g>
<defs>
<filter id="filter0_bddd_533_133334" x="32.6878" y="35.8241" width="117.625" height="80.0989" filterUnits="userSpaceOnUse" color-interpolation-filters="sRGB">
<feFlood flood-opacity="0" result="BackgroundImageFix"/>
<feGaussianBlur in="BackgroundImageFix" stdDeviation="7.20933"/>
<feComposite in2="SourceAlpha" operator="in" result="effect1_backgroundBlur_533_133334"/>
<feColorMatrix in="SourceAlpha" type="matrix" values="0 0 0 0 0 0 0 0 0 0 0 0 0 0 0 0 0 0 127 0" result="hardAlpha"/>
<feOffset dy="7.20933"/>
<feGaussianBlur stdDeviation="3.60467"/>
<feComposite in2="hardAlpha" operator="out"/>
<feColorMatrix type="matrix" values="0 0 0 0 0 0 0 0 0 0 0 0 0 0 0 0 0 0 0.1 0"/>
<feBlend mode="normal" in2="effect1_backgroundBlur_533_133334" result="effect2_dropShadow_533_133334"/>
<feColorMatrix in="SourceAlpha" type="matrix" values="0 0 0 0 0 0 0 0 0 0 0 0 0 0 0 0 0 0 127 0" result="hardAlpha"/>
<feOffset dy="2.88373"/>
<feGaussianBlur stdDeviation="1.44187"/>
<feComposite in2="hardAlpha" operator="out"/>
<feColorMatrix type="matrix" values="0 0 0 0 0 0 0 0 0 0 0 0 0 0 0 0 0 0 0.05 0"/>
<feBlend mode="normal" in2="effect2_dropShadow_533_133334" result="effect3_dropShadow_533_133334"/>
<feColorMatrix in="SourceAlpha" type="matrix" values="0 0 0 0 0 0 0 0 0 0 0 0 0 0 0 0 0 0 127 0" result="hardAlpha"/>
<feOffset dy="0.720933"/>
<feComposite in2="hardAlpha" operator="out"/>
<feColorMatrix type="matrix" values="0 0 0 0 0 0 0 0 0 0 0 0 0 0 0 0 0 0 0.05 0"/>
<feBlend mode="normal" in2="effect3_dropShadow_533_133334" result="effect4_dropShadow_533_133334"/>
<feBlend mode="normal" in="SourceGraphic" in2="effect4_dropShadow_533_133334" result="shape"/>
</filter>
<linearGradient id="paint0_linear_533_133334" x1="0" y1="33.1629" x2="210.513" y2="33.1629" gradientUnits="userSpaceOnUse">
<stop stop-color="#89FFFF" stop-opacity="0.3"/>
<stop offset="1" stop-color="#89FFFF" stop-opacity="0.05"/>
</linearGradient>
<linearGradient id="paint1_linear_533_133334" x1="119.816" y1="10.4938" x2="450.069" y2="11.5367" gradientUnits="userSpaceOnUse">
<stop offset="0.215" stop-color="#292929"/>
<stop offset="1" stop-color="#B3FFFF"/>
</linearGradient>
<linearGradient id="paint2_linear_533_133334" x1="0" y1="11.0543" x2="450.07" y2="11.0543" gradientUnits="userSpaceOnUse">
<stop offset="0.335" stop-color="white" stop-opacity="0.16"/>
<stop offset="1" stop-color="#00FFFF"/>
</linearGradient>
<linearGradient id="paint3_linear_533_133334" x1="32.7605" y1="11.0172" x2="34.678" y2="-3.79713" gradientUnits="userSpaceOnUse">
<stop stop-color="white" stop-opacity="0"/>
<stop offset="1" stop-color="white"/>
</linearGradient>
<clipPath id="clip0_533_133334">
<rect width="533.491" height="593.895" fill="white" transform="matrix(0.866025 -0.5 0.866025 0.5 -76 202.767)"/>
</clipPath>
<clipPath id="clip1_533_133334">
<rect width="593.475" height="473" fill="white" transform="matrix(0.866025 -0.5 0.866025 0.5 52.0525 157.738)"/>
</clipPath>
</defs>
</svg>
