<svg width="714" height="263" viewBox="0 0 714 263" fill="none" xmlns="http://www.w3.org/2000/svg">
<g clip-path="url(#clip0_533_100304)">
<path d="M-7.32903 290.468L-43 311.062L-7.32903 331.657M-7.32903 290.468L28.3419 311.062M-7.32903 290.468L28.3419 269.873M28.3419 311.062L-7.32903 331.657M28.3419 311.062L64.0129 331.657M28.3419 311.062L64.0129 290.468M-7.32903 331.657L28.3419 352.252M64.0129 331.657L28.3419 352.252M64.0129 331.657L99.6839 352.252M64.0129 331.657L99.6839 311.062M28.3419 352.252L64.0129 372.846M99.6839 352.252L64.0129 372.846M99.6839 352.252L135.355 372.846M99.6839 352.252L135.355 331.657M64.0129 372.846L99.6839 393.441M135.355 372.846L99.6839 393.441M135.355 372.846L171.026 393.441M135.355 372.846L171.026 352.252M99.6839 393.441L135.355 414.036M171.026 393.441L135.355 414.036M171.026 393.441L206.697 414.036M171.026 393.441L206.697 372.846M135.355 414.036L171.026 434.63M206.697 414.036L171.026 434.63M206.697 414.036L242.368 434.63M206.697 414.036L242.368 393.441M171.026 434.63L206.697 455.225M242.368 434.63L206.697 455.225M242.368 434.63L278.039 455.225M242.368 434.63L278.039 414.036M206.697 455.225L242.368 475.82M278.039 455.225L242.368 475.82M278.039 455.225L313.71 475.82M278.039 455.225L313.71 434.63M242.368 475.82L278.039 496.414M313.71 475.82L278.039 496.414M313.71 475.82L349.381 496.414M313.71 475.82L349.381 455.225M278.039 496.414L313.71 517.009M349.381 496.414L313.71 517.009M349.381 496.414L385.052 517.009M349.381 496.414L385.052 475.82M313.71 517.009L349.381 537.604M385.052 517.009L349.381 537.604M385.052 517.009L420.723 537.604M385.052 517.009L420.723 496.414M349.381 537.604L385.052 558.198M420.723 537.604L385.052 558.198M420.723 537.604L456.394 558.198M420.723 537.604L456.394 517.009M385.052 558.198L420.723 578.793M456.394 558.198L420.723 578.793M456.394 558.198L492.064 578.793M456.394 558.198L492.064 537.604M420.723 578.793L456.394 599.387M492.064 578.793L456.394 599.387M492.064 578.793L527.735 599.388M492.064 578.793L527.735 558.198M456.394 599.387L492.065 619.982M527.735 599.388L492.065 619.982M527.735 599.388L563.406 619.982M527.735 599.388L563.406 578.793M492.065 619.982L527.735 640.577M563.406 619.982L527.735 640.577M563.406 619.982L599.077 640.577M563.406 619.982L599.077 599.387M527.735 640.577L563.406 661.171M599.077 640.577L563.406 661.171M599.077 640.577L634.748 661.171M599.077 640.577L634.748 619.982M563.406 661.171L599.077 681.766M634.748 661.171L599.077 681.766M634.748 661.171L670.419 681.766M634.748 661.171L670.419 640.577M599.077 681.766L634.748 702.361M670.419 681.766L634.748 702.361M670.419 681.766L706.09 702.361M670.419 681.766L706.09 661.171M634.748 702.361L670.419 722.955L706.09 702.361M706.09 702.361L741.761 681.766M28.3419 269.873L64.0129 290.468M28.3419 269.873L64.0129 249.279M64.0129 290.468L99.6839 311.062M64.0129 290.468L99.6839 269.873M99.6839 311.062L135.355 331.657M99.6839 311.062L135.355 290.468M135.355 331.657L171.026 352.252M135.355 331.657L171.026 311.062M171.026 352.252L206.697 372.846M171.026 352.252L206.697 331.657M206.697 372.846L242.368 393.441M206.697 372.846L242.368 352.252M242.368 393.441L278.039 414.036M242.368 393.441L278.039 372.846M278.039 414.036L313.71 434.63M278.039 414.036L313.71 393.441M313.71 434.63L349.381 455.225M313.71 434.63L349.381 414.036M349.381 455.225L385.052 475.82M349.381 455.225L385.052 434.63M385.052 475.82L420.723 496.414M385.052 475.82L420.723 455.225M420.723 496.414L456.394 517.009M420.723 496.414L456.394 475.82M456.394 517.009L492.064 537.604M456.394 517.009L492.065 496.414M492.064 537.604L527.735 558.198M492.064 537.604L527.735 517.009M527.735 558.198L563.406 578.793M527.735 558.198L563.406 537.604M563.406 578.793L599.077 599.387M563.406 578.793L599.077 558.198M599.077 599.387L634.748 619.982M599.077 599.387L634.748 578.793M634.748 619.982L670.419 640.577M634.748 619.982L670.419 599.387M670.419 640.577L706.09 661.171M670.419 640.577L706.09 619.982M706.09 661.171L741.761 681.766M706.09 661.171L741.761 640.577M741.761 681.766L777.432 661.171M64.0129 249.279L99.6839 269.873M64.0129 249.279L99.6839 228.684M99.6839 269.873L135.355 290.468M99.6839 269.873L135.355 249.279M135.355 290.468L171.026 311.062M135.355 290.468L171.026 269.873M171.026 311.062L206.697 331.657M171.026 311.062L206.697 290.468M206.697 331.657L242.368 352.252M206.697 331.657L242.368 311.062M242.368 352.252L278.039 372.846M242.368 352.252L278.039 331.657M278.039 372.846L313.71 393.441M278.039 372.846L313.71 352.252M313.71 393.441L349.381 414.036M313.71 393.441L349.381 372.846M349.381 414.036L385.052 434.63M349.381 414.036L385.052 393.441M385.052 434.63L420.723 455.225M385.052 434.63L420.723 414.036M420.723 455.225L456.394 475.82M420.723 455.225L456.394 434.63M456.394 475.82L492.065 496.414M456.394 475.82L492.064 455.225M492.065 496.414L527.735 517.009M492.065 496.414L527.735 475.82M527.735 517.009L563.406 537.604M527.735 517.009L563.406 496.414M563.406 537.604L599.077 558.198M563.406 537.604L599.077 517.009M599.077 558.198L634.748 578.793M599.077 558.198L634.748 537.604M634.748 578.793L670.419 599.387M634.748 578.793L670.419 558.198M670.419 599.387L706.09 619.982M670.419 599.387L706.09 578.793M706.09 619.982L741.761 640.577M706.09 619.982L741.761 599.387M741.761 640.577L777.432 661.171M741.761 640.577L777.432 619.982M777.432 661.171L813.103 640.577M99.6839 228.684L135.355 249.279M99.6839 228.684L135.355 208.089L171.026 228.684M135.355 249.279L171.026 269.873M135.355 249.279L171.026 228.684M171.026 269.873L206.697 290.468M171.026 269.873L206.697 249.279M206.697 290.468L242.368 311.062M206.697 290.468L242.368 269.873M242.368 311.062L278.039 331.657M242.368 311.062L278.039 290.468M278.039 331.657L313.71 352.252M278.039 331.657L313.71 311.062M313.71 352.252L349.381 372.846M313.71 352.252L349.381 331.657M349.381 372.846L385.052 393.441M349.381 372.846L385.052 352.252M385.052 393.441L420.723 414.036M385.052 393.441L420.723 372.846M420.723 414.036L456.394 434.63M420.723 414.036L456.394 393.441M456.394 434.63L492.064 455.225M456.394 434.63L492.065 414.036M492.064 455.225L527.735 475.82M492.064 455.225L527.735 434.63M527.735 475.82L563.406 496.414M527.735 475.82L563.406 455.225M563.406 496.414L599.077 517.009M563.406 496.414L599.077 475.82M599.077 517.009L634.748 537.604M599.077 517.009L634.748 496.414M634.748 537.604L670.419 558.198M634.748 537.604L670.419 517.009M670.419 558.198L706.09 578.793M670.419 558.198L706.09 537.604M706.09 578.793L741.761 599.387M706.09 578.793L741.761 558.198M741.761 599.387L777.432 619.982M741.761 599.387L777.432 578.793M777.432 619.982L813.103 640.577M777.432 619.982L813.103 599.387M813.103 640.577L848.774 619.982M171.026 228.684L206.697 249.279M171.026 228.684L206.697 208.089M206.697 249.279L242.368 269.873M206.697 249.279L242.368 228.684M242.368 269.873L278.039 290.468M242.368 269.873L278.039 249.279M278.039 290.468L313.71 311.062M278.039 290.468L313.71 269.873M313.71 311.062L349.381 331.657M313.71 311.062L349.381 290.468M349.381 331.657L385.052 352.252M349.381 331.657L385.052 311.062M385.052 352.252L420.723 372.846M385.052 352.252L420.723 331.657M420.723 372.846L456.394 393.441M420.723 372.846L456.394 352.252M456.394 393.441L492.065 414.036M456.394 393.441L492.064 372.846M492.065 414.036L527.735 434.63M492.065 414.036L527.735 393.441M527.735 434.63L563.406 455.225M527.735 434.63L563.406 414.036M563.406 455.225L599.077 475.82M563.406 455.225L599.077 434.63M599.077 475.82L634.748 496.414M599.077 475.82L634.748 455.225M634.748 496.414L670.419 517.009M634.748 496.414L670.419 475.82M670.419 517.009L706.09 537.604M670.419 517.009L706.09 496.414M706.09 537.604L741.761 558.198M706.09 537.604L741.761 517.009M741.761 558.198L777.432 578.793M741.761 558.198L777.432 537.604M777.432 578.793L813.103 599.387M777.432 578.793L813.103 558.198M813.103 599.387L848.774 619.982M813.103 599.387L848.774 578.793M848.774 619.982L884.445 599.387M206.697 208.089L242.368 228.684M206.697 208.089L242.368 187.495M206.697 208.089L188.861 197.792M242.368 228.684L278.039 249.279M242.368 228.684L278.039 208.089M278.039 249.279L313.71 269.873M278.039 249.279L313.71 228.684M313.71 269.873L349.381 290.468M313.71 269.873L349.381 249.279M349.381 290.468L385.052 311.062M349.381 290.468L385.052 269.873M385.052 311.062L420.723 331.657M385.052 311.062L420.723 290.468M420.723 331.657L456.394 352.252M420.723 331.657L456.394 311.062M456.394 352.252L492.064 372.846M456.394 352.252L492.064 331.657M492.064 372.846L527.735 393.441M492.064 372.846L527.735 352.252M527.735 393.441L563.406 414.036M527.735 393.441L563.406 372.846M563.406 414.036L599.077 434.63M563.406 414.036L599.077 393.441M599.077 434.63L634.748 455.225M599.077 434.63L634.748 414.036M634.748 455.225L670.419 475.82M634.748 455.225L670.419 434.63M670.419 475.82L706.09 496.414M670.419 475.82L706.09 455.225M706.09 496.414L741.761 517.009M706.09 496.414L741.761 475.82M741.761 517.009L777.432 537.604M741.761 517.009L777.432 496.414M777.432 537.604L813.103 558.198M777.432 537.604L813.103 517.009M813.103 558.198L848.774 578.793M813.103 558.198L848.774 537.604M848.774 578.793L884.445 599.387M848.774 578.793L884.445 558.198M884.445 599.387L920.116 578.793M206.697 166.9L242.368 187.495M242.368 187.495L278.039 208.089M242.368 187.495L278.039 166.9M278.039 208.089L313.71 228.684M278.039 208.089L313.71 187.495M313.71 228.684L349.381 249.279M313.71 228.684L349.381 208.089M349.381 249.279L385.052 269.873M349.381 249.279L385.052 228.684M385.052 269.873L420.723 290.468M385.052 269.873L420.723 249.279M420.723 290.468L456.394 311.062M420.723 290.468L456.394 269.873M456.394 311.062L492.064 290.468M456.394 311.062L492.064 331.657M492.064 331.657L527.735 352.252M492.064 331.657L527.735 311.062M527.735 352.252L563.406 372.846M527.735 352.252L563.406 331.657M563.406 372.846L599.077 393.441M563.406 372.846L599.077 352.252M599.077 393.441L634.748 414.036M599.077 393.441L634.748 372.846M634.748 414.036L670.419 434.63M634.748 414.036L670.419 393.441M670.419 434.63L706.09 455.225M670.419 434.63L706.09 414.036M706.09 455.225L741.761 475.82M706.09 455.225L741.761 434.63M741.761 475.82L777.432 496.414M741.761 475.82L777.432 455.225M777.432 496.414L813.103 517.009M777.432 496.414L813.103 475.82M813.103 517.009L848.774 537.604M813.103 517.009L848.774 496.414M848.774 537.604L884.445 558.198M848.774 537.604L884.445 517.009M884.445 558.198L920.116 578.793M884.445 558.198L920.116 537.604M920.116 578.793L955.787 558.198M278.039 166.9L313.71 187.495M278.039 166.9L313.71 146.305M278.039 166.9L260.203 156.603M313.71 187.495L349.381 208.089M313.71 187.495L349.381 166.9M349.381 208.089L385.052 228.684M349.381 208.089L385.052 187.495M385.052 228.684L420.723 249.279M385.052 228.684L420.723 208.089M420.723 249.279L456.394 269.873M420.723 249.279L456.394 228.684M456.394 269.873L492.064 290.468M456.394 269.873L492.064 249.279M492.064 290.468L527.735 311.062M492.064 290.468L527.735 269.873M527.735 311.062L563.406 331.657M527.735 311.062L563.406 290.468M563.406 331.657L599.077 352.252M563.406 331.657L599.077 311.062M599.077 352.252L634.748 372.846M599.077 352.252L634.748 331.657M634.748 372.846L670.419 393.441M634.748 372.846L670.419 352.252M670.419 393.441L706.09 414.036M670.419 393.441L706.09 372.846M706.09 414.036L741.761 434.63M706.09 414.036C706.09 414.036 727.831 401.484 741.761 393.441M741.761 434.63L777.432 455.225M741.761 434.63L777.432 414.036M777.432 455.225L813.103 475.82M777.432 455.225L813.103 434.63M813.103 475.82L848.774 496.414M813.103 475.82L848.774 455.225M848.774 496.414L884.445 517.009M848.774 496.414L884.445 475.82M884.445 517.009L920.116 537.604M884.445 517.009L920.116 496.414M920.116 537.604L955.787 558.198M920.116 537.604L955.787 517.009M955.787 558.198L991.458 537.604M278.039 125.711L313.71 146.305M313.71 146.305L349.381 166.9M313.71 146.305L349.381 125.711M349.381 166.9L385.052 187.495M349.381 166.9L385.052 146.305M385.052 187.495L420.723 208.089M385.052 187.495L420.723 166.9M420.723 208.089L456.394 228.684M420.723 208.089L456.394 187.495M456.394 228.684L492.064 249.279M456.394 228.684L492.065 208.089M492.064 249.279L527.735 269.873M492.064 249.279L527.735 228.684M527.735 269.873L563.406 290.468M527.735 269.873L563.406 249.279M563.406 290.468L599.077 311.062M563.406 290.468L599.077 269.873M599.077 311.062L634.748 331.657M599.077 311.062L634.748 290.468M634.748 331.657L670.419 352.252M634.748 331.657L670.419 311.062M670.419 352.252L706.09 372.846M670.419 352.252L706.09 331.657M706.09 372.846C706.09 372.846 727.831 385.398 741.761 393.441M706.09 372.846L741.761 352.252M741.761 393.441C755.692 401.484 777.432 414.036 777.432 414.036M741.761 393.441C755.692 385.398 777.432 372.846 777.432 372.846M777.432 414.036L813.103 434.63M777.432 414.036L813.103 393.441M813.103 434.63L848.774 455.225M813.103 434.63L848.774 414.036M848.774 455.225L884.445 475.82M848.774 455.225L884.445 434.63M884.445 475.82L920.116 496.414M884.445 475.82L920.116 455.225M920.116 496.414L955.787 517.009M920.116 496.414L955.787 475.82M955.787 517.009L991.458 537.604M955.787 517.009L991.458 496.414M991.458 537.604L1027.13 517.009M349.381 125.711L385.052 146.305M349.381 125.711L385.052 105.116M349.381 125.711L331.545 115.413M385.052 146.305L420.723 166.9M385.052 146.305L420.723 125.711M420.723 166.9L456.394 187.495M420.723 166.9L456.394 146.305M456.394 187.495L492.065 208.089M456.394 187.495L492.064 166.9M492.065 208.089L527.735 228.684M492.065 208.089L527.735 187.495M527.735 228.684L563.406 249.279M527.735 228.684L563.406 208.089M563.406 249.279L599.077 269.873M563.406 249.279L599.077 228.684M599.077 269.873L634.748 290.468M599.077 269.873L634.748 249.279M634.748 290.468L670.419 311.062M634.748 290.468L670.419 269.873M670.419 311.062L706.09 331.657M670.419 311.062L706.09 290.468M706.09 331.657L741.761 352.252M706.09 331.657L741.761 311.062M741.761 352.252L777.432 372.846M741.761 352.252L777.432 331.657M777.432 372.846L813.103 393.441M777.432 372.846L813.103 352.252M813.103 393.441L848.774 414.036M813.103 393.441L848.774 372.846M848.774 414.036L884.445 434.63M848.774 414.036L884.445 393.441M884.445 434.63L920.116 455.225M884.445 434.63L920.116 414.036M920.116 455.225L955.787 475.82M920.116 455.225L955.787 434.63M955.787 475.82L991.458 496.414M955.787 475.82L991.458 455.225M991.458 496.414L1027.13 517.009M991.458 496.414L1027.13 475.82M1027.13 517.009L1062.8 496.414M349.381 84.5214L385.052 105.116M385.052 105.116L420.723 125.711M385.052 105.116L420.723 84.5214M420.723 125.711L456.394 146.305M420.723 125.711L456.394 105.116M456.394 146.305L492.064 166.9M456.394 146.305L492.065 125.711M492.064 166.9L527.735 187.495M492.064 166.9L1276.83 -286.182M527.735 187.495L563.406 208.089M527.735 187.495L1312.5 -265.587M563.406 208.089L599.077 228.684M563.406 208.089L599.077 187.495M599.077 228.684L634.748 249.279M599.077 228.684L634.748 208.089M634.748 249.279L670.419 269.873M634.748 249.279L670.419 228.684M670.419 269.873L706.09 290.468M670.419 269.873L706.09 249.279M706.09 290.468L741.761 311.062M706.09 290.468L741.761 269.873M741.761 311.062L777.432 331.657M741.761 311.062L777.432 290.468M777.432 331.657L813.103 352.252M777.432 331.657L813.103 311.062M813.103 352.252L848.774 372.846M813.103 352.252L848.774 331.657M848.774 372.846L884.445 393.441M848.774 372.846L884.445 352.252M884.445 393.441L920.116 414.036M884.445 393.441L920.116 372.846M920.116 414.036L955.787 434.63M920.116 414.036L955.787 393.441M955.787 434.63L991.458 455.225M955.787 434.63L991.458 414.036M991.458 455.225L1027.13 475.82M991.458 455.225L1027.13 434.63M1027.13 475.82L1062.8 496.414M1027.13 475.82L1062.8 455.225M1062.8 496.414L1098.47 475.82M420.723 84.5214L456.394 105.116M420.723 84.5214L456.394 63.9268M420.723 84.5214L402.887 74.2241M456.394 105.116L492.065 125.711M456.394 105.116L492.064 84.5214M492.065 125.711L527.735 105.116M492.065 125.711L599.077 187.495M599.077 187.495L634.748 208.089M599.077 187.495L634.748 166.9M634.748 208.089L670.419 228.684M634.748 208.089L670.419 187.495M670.419 228.684L706.09 249.279M670.419 228.684L706.09 208.089M706.09 249.279L741.761 269.873M706.09 249.279L741.761 228.684M741.761 269.873L777.432 290.468M741.761 269.873L777.432 249.279M777.432 290.468L813.103 311.062M777.432 290.468L813.103 269.873M813.103 311.062L848.774 331.657M813.103 311.062L848.774 290.468M848.774 331.657L884.445 352.252M848.774 331.657L884.445 311.062M884.445 352.252L920.116 372.846M884.445 352.252L920.116 331.657M920.116 372.846L955.787 393.441M920.116 372.846L955.787 352.252M955.787 393.441L991.458 414.036M955.787 393.441L991.458 372.846M991.458 414.036L1027.13 434.63M991.458 414.036L1027.13 393.441M1027.13 434.63L1062.8 455.225M1027.13 434.63L1062.8 414.036M1062.8 455.225L1098.47 475.82M1062.8 455.225L1098.47 434.63M1098.47 475.82L1134.14 455.225M420.723 43.3322L456.394 63.9268M456.394 63.9268L492.064 84.5214M456.394 63.9268L492.064 43.3322M492.064 84.5214L527.735 105.116M492.064 84.5214L527.735 63.9268M527.735 105.116L563.406 84.5214M527.735 105.116L634.748 166.9M634.748 166.9L670.419 187.495M634.748 166.9L670.419 146.305M670.419 187.495L706.09 208.089M670.419 187.495L706.09 166.9M706.09 208.089L741.761 228.684M706.09 208.089L741.761 187.495M741.761 228.684L777.432 249.279M741.761 228.684L777.432 208.089M777.432 249.279L813.103 269.873M777.432 249.279L813.103 228.684M813.103 269.873L848.774 290.468M813.103 269.873L848.774 249.279M848.774 290.468L884.445 311.062M848.774 290.468L884.445 269.873M884.445 311.062L920.116 331.657M884.445 311.062L920.116 290.468M920.116 331.657L955.787 352.252M920.116 331.657L955.787 311.062M955.787 352.252L991.458 372.846M955.787 352.252L991.458 331.657M991.458 372.846L1027.13 393.441M991.458 372.846L1027.13 352.252M1027.13 393.441L1062.8 414.036M1027.13 393.441L1062.8 372.846M1062.8 414.036L1098.47 434.63M1062.8 414.036L1098.47 393.441M1098.47 434.63L1134.14 455.225M1098.47 434.63L1134.14 414.036M1134.14 455.225L1169.81 434.63M492.064 43.3322L527.735 63.9268M492.064 43.3322L527.735 22.7375M492.064 43.3322L474.229 33.0348M527.735 63.9268L563.406 84.5214M527.735 63.9268L563.406 43.3321M563.406 84.5214L599.077 63.9268M563.406 84.5214L670.419 146.305M670.419 146.305L706.09 166.9M670.419 146.305L1241.15 -183.209M706.09 166.9L741.761 187.495M706.09 166.9L1276.83 -162.614M741.761 187.495L777.432 208.089M741.761 187.495L777.432 166.9M777.432 208.089L813.103 228.684M777.432 208.089L813.103 187.495M813.103 228.684L848.774 249.279M813.103 228.684L848.774 208.089M848.774 249.279L884.445 269.873M848.774 249.279L884.445 228.684M884.445 269.873L920.116 290.468M884.445 269.873L920.116 249.279M920.116 290.468L955.787 311.062M920.116 290.468L955.787 269.873M955.787 311.062L991.458 331.657M955.787 311.062L991.458 290.468M991.458 331.657L1027.13 352.252M991.458 331.657L1027.13 311.062M1027.13 352.252L1062.8 372.846M1027.13 352.252L1062.8 331.657M1062.8 372.846L1098.47 393.441M1062.8 372.846L1098.47 352.252M1098.47 393.441L1134.14 414.036M1098.47 393.441L1134.14 372.846M1134.14 414.036L1169.81 434.63M1134.14 414.036L1169.81 393.441M1169.81 434.63L1205.48 414.036M527.735 22.7375L492.065 2.14285L527.735 -18.4518M527.735 22.7375L563.406 43.3321M527.735 22.7375L563.406 2.14286M563.406 43.3321L599.077 63.9268M563.406 43.3321L599.077 22.7375M599.077 63.9268L634.748 43.3321M599.077 63.9268L777.432 166.9M777.432 166.9L813.103 187.495M777.432 166.9L813.103 146.305M813.103 187.495L848.774 208.089M813.103 187.495L848.774 166.9M848.774 208.089L884.445 228.684M848.774 208.089L884.445 187.495M884.445 228.684L920.116 249.279M884.445 228.684L920.116 208.089M920.116 249.279L955.787 269.873M920.116 249.279L955.787 228.684M955.787 269.873L991.458 290.468M955.787 269.873L991.458 249.279M991.458 290.468L1027.13 311.062M991.458 290.468L1027.13 269.873M1027.13 311.062L1062.8 331.657M1027.13 311.062L1062.8 290.468M1062.8 331.657L1098.47 352.252M1062.8 331.657L1098.47 311.062M1098.47 352.252L1134.14 372.846M1098.47 352.252L1134.14 331.657M1134.14 372.846L1169.81 393.441M1134.14 372.846L1169.81 352.252M1169.81 393.441L1205.48 414.036M1169.81 393.441L1205.48 372.846M1205.48 414.036L1241.15 393.441M527.735 -18.4518L563.406 2.14286M527.735 -18.4518L563.406 -39.0464M563.406 2.14286L599.077 22.7375M563.406 2.14286L599.077 -18.4518M599.077 22.7375L634.748 43.3321M599.077 22.7375L634.748 2.14287M634.748 43.3321L670.419 22.7375M634.748 43.3321L813.103 146.305M813.103 146.305L848.774 166.9M813.103 146.305L848.774 125.711M848.774 166.9L884.445 187.495M848.774 166.9L884.445 146.305M884.445 187.495L920.116 208.089M884.445 187.495L920.116 166.9M920.116 208.089L955.787 228.684M920.116 208.089L955.787 187.495M955.787 228.684L991.458 249.279M955.787 228.684L991.458 208.089M991.458 249.279L1027.13 269.873M991.458 249.279L1027.13 228.684M1027.13 269.873L1062.8 290.468M1027.13 269.873L1062.8 249.279M1062.8 290.468L1098.47 311.062M1062.8 290.468L1098.47 269.873M1098.47 311.062L1134.14 331.657M1098.47 311.062L1134.14 290.468M1134.14 331.657L1169.81 352.252M1134.14 331.657L1169.81 311.062M1169.81 352.252L1205.48 372.846M1169.81 352.252L1205.48 331.657M1205.48 372.846L1241.15 393.441M1205.48 372.846L1241.15 352.252M1241.15 393.441L1276.83 372.846M563.406 -39.0464L599.077 -18.4518M563.406 -39.0464L599.077 -59.6411M599.077 -18.4518L634.748 2.14287M599.077 -18.4518L634.748 -39.0464M634.748 2.14287L670.419 22.7375M634.748 2.14287L670.419 -18.4518M670.419 22.7375L706.09 2.14288M670.419 22.7375L848.774 125.711M848.774 125.711L884.445 146.305M848.774 125.711L884.445 105.116M884.445 146.305L920.116 166.9M884.445 146.305L920.116 125.711M920.116 166.9L955.787 187.495M920.116 166.9L955.787 146.305M955.787 187.495L991.458 208.089M955.787 187.495L991.458 166.9M991.458 208.089L1027.13 228.684M991.458 208.089L1027.13 187.495M1027.13 228.684L1062.8 249.279M1027.13 228.684L1062.8 208.089M1062.8 249.279L1098.47 269.873M1062.8 249.279L1098.47 228.684M1098.47 269.873L1134.14 290.468M1098.47 269.873L1134.14 249.279M1134.14 290.468L1169.81 311.062M1134.14 290.468L1169.81 269.873M1169.81 311.062L1205.48 331.657M1169.81 311.062L1205.48 290.468M1205.48 331.657L1241.15 352.252M1205.48 331.657L1241.15 311.062M1241.15 352.252L1276.83 372.846M1241.15 352.252L1276.83 331.657M1276.83 372.846L1312.5 352.252M599.077 -59.6411L634.748 -39.0464M599.077 -59.6411L634.748 -80.2357M634.748 -39.0464L670.419 -18.4518M634.748 -39.0464L670.419 -59.641M670.419 -18.4518L706.09 2.14288M670.419 -18.4518L706.09 -39.0464M706.09 2.14288L741.761 -18.4518M706.09 2.14288L884.445 105.116M884.445 105.116L920.116 125.711M884.445 105.116L920.116 84.5215M920.116 125.711L955.787 146.305M920.116 125.711L955.787 105.116M955.787 146.305L991.458 166.9M955.787 146.305L991.458 125.711M991.458 166.9L1027.13 187.495M991.458 166.9L1027.13 146.305M1027.13 187.495L1062.8 208.089M1027.13 187.495L1062.8 166.9M1062.8 208.089L1098.47 228.684M1062.8 208.089L1098.47 187.495M1098.47 228.684L1134.14 249.279M1098.47 228.684L1134.14 208.089M1134.14 249.279L1169.81 269.873M1134.14 249.279L1169.81 228.684M1169.81 269.873L1205.48 290.468M1169.81 269.873L1205.48 249.279M1205.48 290.468L1241.15 311.062M1205.48 290.468L1241.15 269.873M1241.15 311.062L1276.83 331.657M1241.15 311.062L1276.83 290.468M1276.83 331.657L1312.5 352.252M1276.83 331.657L1312.5 311.062M1312.5 352.252L1348.17 331.657M634.748 -80.2357L670.419 -59.641M634.748 -80.2357L670.419 -100.83M670.419 -59.641L706.09 -39.0464M670.419 -59.641L706.09 -80.2357M706.09 -39.0464L741.761 -18.4518M706.09 -39.0464L741.761 -59.6411M741.761 -18.4518L777.432 -39.0464M741.761 -18.4518L920.116 84.5215M920.116 84.5215L955.787 105.116M920.116 84.5215L955.787 63.9268M955.787 105.116L991.458 125.711M955.787 105.116L991.458 84.5214M991.458 125.711L1027.13 146.305M991.458 125.711L1027.13 105.116M1027.13 146.305L1062.8 166.9M1027.13 146.305L1062.8 125.711M1062.8 166.9L1098.47 187.495M1062.8 166.9L1098.47 146.305M1098.47 187.495L1134.14 208.089M1098.47 187.495L1134.14 166.9M1134.14 208.089L1169.81 228.684M1134.14 208.089L1169.81 187.495M1169.81 228.684L1205.48 249.279M1169.81 228.684L1205.48 208.089M1205.48 249.279L1241.15 269.873M1205.48 249.279L1241.15 228.684M1241.15 269.873L1276.83 290.468M1241.15 269.873L1276.83 249.279M1276.83 290.468L1312.5 311.062M1276.83 290.468L1312.5 269.873M1312.5 311.062L1348.17 331.657M1312.5 311.062L1348.17 290.468M1348.17 331.657L1383.84 311.062M670.419 -100.83L706.09 -80.2357M670.419 -100.83L706.09 -121.425M706.09 -80.2357L741.761 -59.6411M706.09 -80.2357L741.761 -100.83M741.761 -59.6411L777.432 -39.0464M741.761 -59.6411L777.432 -80.2357M777.432 -39.0464L813.103 -59.6411M777.432 -39.0464L955.787 63.9268M955.787 63.9268L991.458 84.5214M955.787 63.9268L991.458 43.3322M991.458 84.5214L1027.13 105.116M991.458 84.5214L1027.13 63.9268M1027.13 105.116L1062.8 125.711M1027.13 105.116L1062.8 84.5214M1062.8 125.711L1098.47 146.305M1062.8 125.711L1098.47 105.116M1098.47 146.305L1134.14 166.9M1098.47 146.305L1134.14 125.711M1134.14 166.9L1169.81 187.495M1134.14 166.9L1169.81 146.305M1169.81 187.495L1205.48 208.089M1169.81 187.495L1205.48 166.9M1205.48 208.089L1241.15 228.684M1205.48 208.089L1241.15 187.495M1241.15 228.684L1276.83 249.279M1241.15 228.684L1276.83 208.089M1276.83 249.279L1312.5 269.873M1276.83 249.279L1312.5 228.684M1312.5 269.873L1348.17 290.468M1312.5 269.873L1348.17 249.279M1348.17 290.468L1383.84 311.062M1348.17 290.468L1383.84 269.873M1383.84 311.062L1419.51 290.468M706.09 -121.425L741.761 -100.83M706.09 -121.425L741.761 -142.02M741.761 -100.83L777.432 -121.425M741.761 -100.83L777.432 -80.2357M777.432 -80.2357L813.103 -59.6411M777.432 -80.2357L813.103 -100.83M813.103 -59.6411L848.774 -80.2357M813.103 -59.6411L991.458 43.3322M991.458 43.3322L1027.13 63.9268M991.458 43.3322L1027.13 22.7375M1027.13 63.9268L1062.8 84.5214M1027.13 63.9268L1062.8 43.3322M1062.8 84.5214L1098.47 105.116M1062.8 84.5214L1098.47 63.9268M1098.47 105.116L1134.14 125.711M1098.47 105.116L1134.14 84.5214M1134.14 125.711L1169.81 146.305M1134.14 125.711L1169.81 105.116M1169.81 146.305L1205.48 166.9M1169.81 146.305L1205.48 125.711M1205.48 166.9L1241.15 187.495M1205.48 166.9L1241.15 146.305M1241.15 187.495L1276.83 208.089M1241.15 187.495L1276.83 166.9M1276.83 208.089L1312.5 228.684M1276.83 208.089L1312.5 187.495M1312.5 228.684L1348.17 249.279M1312.5 228.684L1348.17 208.089M1348.17 249.279L1383.84 269.873M1348.17 249.279L1383.84 228.684M1383.84 269.873L1419.51 290.468M1383.84 269.873L1419.51 249.279M1419.51 290.468L1455.18 269.873M741.761 -142.02L777.432 -121.425M741.761 -142.02L777.432 -162.614M777.432 -121.425L813.103 -142.02M777.432 -121.425L813.103 -100.83M813.103 -100.83L848.774 -80.2357M813.103 -100.83L848.774 -121.425M848.774 -80.2357L884.445 -100.83M848.774 -80.2357L1027.13 22.7375M1027.13 22.7375L1062.8 43.3322M1027.13 22.7375L1062.8 2.14288M1062.8 43.3322L1098.47 63.9268M1062.8 43.3322L1098.47 22.7375M1098.47 63.9268L1134.14 84.5214M1098.47 63.9268L1134.14 43.3322M1134.14 84.5214L1169.81 105.116M1134.14 84.5214L1169.81 63.9268M1169.81 105.116L1205.48 125.711M1169.81 105.116L1205.48 84.5215M1205.48 125.711L1241.15 146.305M1205.48 125.711L1241.15 105.116M1241.15 146.305L1276.83 166.9M1241.15 146.305L1276.83 125.711M1276.83 166.9L1312.5 187.495M1276.83 166.9L1312.5 146.305M1312.5 187.495L1348.17 208.089M1312.5 187.495L1348.17 166.9M1348.17 208.089L1383.84 228.684M1348.17 208.089L1383.84 187.495M1383.84 228.684L1419.51 249.279M1383.84 228.684L1419.51 208.089M1419.51 249.279L1455.18 269.873M1419.51 249.279L1455.18 228.684M1455.18 269.873L1490.85 249.279M777.432 -162.614L813.103 -142.02M777.432 -162.614L813.103 -183.209M813.103 -142.02L848.774 -162.614M813.103 -142.02L848.774 -121.425M848.774 -121.425L884.445 -100.83M848.774 -121.425L884.445 -142.02M884.445 -100.83L920.116 -121.425M884.445 -100.83L1062.8 2.14288M1062.8 2.14288L1098.47 22.7375M1062.8 2.14288L1098.47 -18.4518M1098.47 22.7375L1134.14 43.3322M1098.47 22.7375L1134.14 2.14285M1134.14 43.3322L1169.81 63.9268M1134.14 43.3322L1169.81 22.7375M1169.81 63.9268L1205.48 84.5215M1169.81 63.9268L1205.48 43.3321M1205.48 84.5215L1241.15 105.116M1205.48 84.5215L1241.15 63.9268M1241.15 105.116L1276.83 125.711M1241.15 105.116L1276.83 84.5214M1276.83 125.711L1312.5 146.305M1276.83 125.711L1312.5 105.116M1312.5 146.305L1348.17 166.9M1312.5 146.305L1348.17 125.711M1348.17 166.9L1383.84 187.495M1348.17 166.9L1383.84 146.305M1383.84 187.495L1419.51 208.089M1383.84 187.495L1419.51 166.9M1419.51 208.089L1455.18 228.684M1419.51 208.089L1455.18 187.495M1455.18 228.684L1490.85 249.279M1455.18 228.684L1490.85 208.089M1490.85 249.279L1526.52 228.684M813.103 -183.209L848.774 -162.614M813.103 -183.209L848.774 -203.804M848.774 -162.614L884.445 -183.209M848.774 -162.614L884.445 -142.02M884.445 -142.02L920.116 -121.425M884.445 -142.02L920.116 -162.614M920.116 -121.425L955.787 -142.02M920.116 -121.425L1098.47 -18.4518M1098.47 -18.4518L1134.14 2.14285M1098.47 -18.4518L1134.14 -39.0464M1134.14 2.14285L1169.81 22.7375M1134.14 2.14285L1169.81 -18.4518M1169.81 22.7375L1205.48 43.3321M1169.81 22.7375L1205.48 2.1429M1205.48 43.3321L1241.15 63.9268M1205.48 43.3321L1241.15 22.7375M1241.15 63.9268L1276.83 84.5214M1241.15 63.9268L1276.83 43.3322M1276.83 84.5214L1312.5 105.116M1276.83 84.5214L1312.5 63.9268M1312.5 105.116L1348.17 125.711M1312.5 105.116L1348.17 84.5215M1348.17 125.711L1383.84 146.305M1348.17 125.711L1383.84 105.116M1383.84 146.305L1419.51 166.9M1383.84 146.305L1419.51 125.711M1419.51 166.9L1455.18 187.495M1419.51 166.9L1455.18 146.305M1455.18 187.495L1490.85 208.089M1455.18 187.495L1490.85 166.9M1490.85 208.089L1526.52 228.684M1490.85 208.089L1526.52 187.495M1526.52 228.684L1562.19 208.089M848.774 -203.804L884.445 -183.209M848.774 -203.804L884.445 -224.398M884.445 -183.209L920.116 -162.614M884.445 -183.209L920.116 -203.804M920.116 -162.614L955.787 -142.02M920.116 -162.614L955.787 -183.209M955.787 -142.02L991.458 -162.614M955.787 -142.02L1134.14 -39.0464M1134.14 -39.0464L1169.81 -18.4518M1134.14 -39.0464L1169.81 -59.6411M1169.81 -18.4518L1205.48 2.1429M1169.81 -18.4518L1205.48 -39.0464M1205.48 2.1429L1241.15 22.7375M1205.48 2.1429L1241.15 -18.4518M1241.15 22.7375L1276.83 43.3322M1241.15 22.7375L1276.83 2.14287M1276.83 43.3322L1312.5 63.9268M1276.83 43.3322L1312.5 22.7375M1312.5 63.9268L1348.17 84.5215M1312.5 63.9268L1348.17 43.3322M1348.17 84.5215L1383.84 105.116M1348.17 84.5215L1383.84 63.9268M1383.84 105.116L1419.51 125.711M1383.84 105.116L1419.51 84.5215M1419.51 125.711L1455.18 146.305M1419.51 125.711L1455.18 105.116M1455.18 146.305L1490.85 166.9M1455.18 146.305L1490.85 125.711M1490.85 166.9L1526.52 187.495M1490.85 166.9L1526.52 146.305M1526.52 187.495L1562.19 208.089M1526.52 187.495L1562.19 166.9M1562.19 208.089L1597.86 187.495M884.445 -224.398L920.116 -203.804M884.445 -224.398L920.116 -244.993M920.116 -203.804L955.787 -183.209M920.116 -203.804L955.787 -224.398M955.787 -183.209L991.458 -162.614M955.787 -183.209L991.458 -203.804M991.458 -162.614L1027.13 -183.209M991.458 -162.614L1169.81 -59.6411M1169.81 -59.6411L1205.48 -39.0464M1169.81 -59.6411L1205.48 -80.2357M1205.48 -39.0464L1241.15 -18.4518M1205.48 -39.0464L1241.15 -59.6411M1241.15 -18.4518L1276.83 2.14287M1241.15 -18.4518L1276.83 -39.0464M1276.83 2.14287L1312.5 22.7375M1276.83 2.14287L1312.5 -18.4518M1312.5 22.7375L1348.17 43.3322M1312.5 22.7375L1348.17 2.14285M1348.17 43.3322L1383.84 63.9268M1348.17 43.3322L1383.84 22.7375M1383.84 63.9268L1419.51 84.5215M1383.84 63.9268L1419.51 43.3321M1419.51 84.5215L1455.18 105.116M1419.51 84.5215L1455.18 63.9268M1455.18 105.116L1490.85 125.711M1455.18 105.116L1490.85 84.5214M1490.85 125.711L1526.52 146.305M1490.85 125.711L1526.52 105.116M1526.52 146.305L1562.19 166.9M1526.52 146.305L1562.19 125.711M1562.19 166.9L1597.86 187.495M1562.19 166.9L1597.86 146.305M1597.86 187.495L1633.54 166.9M920.116 -244.993L955.787 -224.398M920.116 -244.993L955.787 -265.587M955.787 -224.398L991.458 -203.804M955.787 -224.398L991.458 -244.993M991.458 -203.804L1027.13 -183.209M991.458 -203.804L1027.13 -224.398M1027.13 -183.209L1062.8 -203.804M1027.13 -183.209L1205.48 -80.2357M1205.48 -80.2357L1241.15 -59.6411M1205.48 -80.2357L1241.15 -100.83M1241.15 -59.6411L1276.83 -39.0464M1241.15 -59.6411L1276.83 -80.2357M1276.83 -39.0464L1312.5 -18.4518M1276.83 -39.0464L1312.5 -59.641M1312.5 -18.4518L1348.17 2.14285M1312.5 -18.4518L1348.17 -39.0464M1348.17 2.14285L1383.84 22.7375M1348.17 2.14285L1383.84 -18.4518M1383.84 22.7375L1419.51 43.3321M1383.84 22.7375L1419.51 2.14288M1419.51 43.3321L1455.18 63.9268M1419.51 43.3321L1455.18 22.7375M1455.18 63.9268L1490.85 84.5214M1455.18 63.9268L1490.85 43.3322M1490.85 84.5214L1526.52 105.116M1490.85 84.5214L1526.52 63.9268M1526.52 105.116L1562.19 125.711M1526.52 105.116L1562.19 84.5215M1562.19 125.711L1597.86 146.305M1562.19 125.711L1597.86 105.116M1597.86 146.305L1633.54 166.9M1597.86 146.305L1633.54 125.711M1633.54 166.9L1669.21 146.305M955.787 -265.587L991.458 -244.993M955.787 -265.587L991.458 -286.182M991.458 -244.993L1027.13 -224.398M991.458 -244.993L1027.13 -265.587M1027.13 -224.398L1062.8 -203.804M1027.13 -224.398L1062.8 -244.993M1062.8 -203.804L1098.47 -224.398M1062.8 -203.804L1241.15 -100.83M1241.15 -100.83L1276.83 -80.2357M1241.15 -100.83L1276.83 -121.425M1276.83 -80.2357L1312.5 -59.641M1276.83 -80.2357L1312.5 -100.83M1312.5 -59.641L1348.17 -39.0464M1312.5 -59.641L1348.17 -80.2357M1348.17 -39.0464L1383.84 -18.4518M1348.17 -39.0464L1383.84 -59.6411M1383.84 -18.4518L1419.51 2.14288M1383.84 -18.4518L1419.51 -39.0464M1419.51 2.14288L1455.18 22.7375M1419.51 2.14288L1455.18 -18.4518M1455.18 22.7375L1490.85 43.3322M1455.18 22.7375L1490.85 2.14285M1490.85 43.3322L1526.52 63.9268M1490.85 43.3322L1526.52 22.7375M1526.52 63.9268L1562.19 84.5215M1526.52 63.9268L1562.19 43.3322M1562.19 84.5215L1597.86 105.116M1562.19 84.5215L1597.86 63.9268M1597.86 105.116L1633.54 125.711M1597.86 105.116L1633.54 84.5214M1633.54 125.711L1669.21 146.305M1633.54 125.711L1669.21 105.116M1669.21 146.305L1704.88 125.711M991.458 -286.182L1027.13 -265.587M991.458 -286.182L1027.13 -306.777M1027.13 -265.587L1062.8 -244.993M1027.13 -265.587L1062.8 -286.182M1062.8 -244.993L1098.47 -224.398M1062.8 -244.993L1098.47 -265.588M1098.47 -224.398L1134.14 -244.993M1098.47 -224.398L1276.83 -121.425M1276.83 -121.425L1312.5 -100.83M1276.83 -121.425L1312.5 -142.02M1312.5 -100.83L1348.17 -80.2357M1312.5 -100.83L1348.17 -121.425M1348.17 -80.2357L1383.84 -59.6411M1348.17 -80.2357L1383.84 -100.83M1383.84 -59.6411L1419.51 -39.0464M1383.84 -59.6411L1419.51 -80.2357M1419.51 -39.0464L1455.18 -18.4518M1419.51 -39.0464L1455.18 -59.6411M1455.18 -18.4518L1490.85 2.14285M1455.18 -18.4518L1490.85 -39.0464M1490.85 2.14285L1526.52 22.7375M1490.85 2.14285L1526.52 -18.4518M1526.52 22.7375L1562.19 43.3322M1526.52 22.7375L1562.19 2.14285M1562.19 43.3322L1597.86 63.9268M1562.19 43.3322L1597.86 22.7375M1597.86 63.9268L1633.54 84.5214M1597.86 63.9268L1633.54 43.3321M1633.54 84.5214L1669.21 105.116M1633.54 84.5214L1669.21 63.9268M1669.21 105.116L1704.88 125.711M1669.21 105.116L1704.88 84.5214M1704.88 125.711L1740.55 105.116M1027.13 -306.777L1062.8 -286.182M1027.13 -306.777L1062.8 -327.371M1062.8 -286.182L1098.47 -265.588M1062.8 -286.182L1098.47 -306.777M1098.47 -265.588L1134.14 -244.993M1098.47 -265.588L1134.14 -286.182M1134.14 -244.993L1169.81 -265.587M1134.14 -244.993L1241.15 -183.209M1241.15 -183.209L1276.83 -162.614M1241.15 -183.209L1276.83 -203.804M1276.83 -162.614L1312.5 -142.02M1276.83 -162.614L1312.5 -183.209M1312.5 -142.02L1348.17 -121.425M1312.5 -142.02L1348.17 -162.614M1348.17 -121.425L1383.84 -100.83M1348.17 -121.425L1383.84 -142.02M1383.84 -100.83L1419.51 -80.2357M1383.84 -100.83L1419.51 -121.425M1419.51 -80.2357L1455.18 -59.6411M1419.51 -80.2357L1455.18 -100.83M1455.18 -59.6411L1490.85 -39.0464M1455.18 -59.6411L1490.85 -80.2357M1490.85 -39.0464L1526.52 -18.4518M1490.85 -39.0464L1526.52 -59.6411M1526.52 -18.4518L1562.19 2.14285M1526.52 -18.4518L1562.19 -39.0464M1562.19 2.14285L1597.86 22.7375M1562.19 2.14285L1597.86 -18.4518M1597.86 22.7375L1633.54 43.3321M1597.86 22.7375L1633.54 2.14288M1633.54 43.3321L1669.21 63.9268M1633.54 43.3321L1669.21 22.7375M1669.21 63.9268L1704.88 84.5214M1669.21 63.9268L1704.88 43.3322M1704.88 84.5214L1740.55 105.116M1704.88 84.5214L1740.55 63.9268M1740.55 105.116L1776.22 84.5215M1062.8 -327.371L1098.47 -306.777M1062.8 -327.371L1098.47 -347.966M1098.47 -306.777L1134.14 -286.182M1098.47 -306.777L1134.14 -327.371M1134.14 -286.182L1169.81 -265.587M1134.14 -286.182L1169.81 -306.777M1169.81 -265.587L1205.48 -286.182M1169.81 -265.587L1276.83 -203.804M1276.83 -203.804L1312.5 -183.209M1276.83 -203.804L1312.5 -224.398M1312.5 -183.209L1348.17 -162.614M1312.5 -183.209L1348.17 -203.804M1348.17 -162.614L1383.84 -142.02M1348.17 -162.614L1383.84 -183.209M1383.84 -142.02L1419.51 -121.425M1383.84 -142.02L1419.51 -162.614M1419.51 -121.425L1455.18 -100.83M1419.51 -121.425L1455.18 -142.02M1455.18 -100.83L1490.85 -80.2357M1455.18 -100.83L1490.85 -121.425M1490.85 -80.2357L1526.52 -59.6411M1490.85 -80.2357L1526.52 -100.83M1526.52 -59.6411L1562.19 -39.0464M1526.52 -59.6411L1562.19 -80.2357M1562.19 -39.0464L1597.86 -18.4518M1562.19 -39.0464L1597.86 -59.6411M1597.86 -18.4518L1633.54 2.14288M1597.86 -18.4518L1633.54 -39.0464M1633.54 2.14288L1669.21 22.7375M1633.54 2.14288L1669.21 -18.4518M1669.21 22.7375L1704.88 43.3322M1669.21 22.7375L1704.88 2.14285M1704.88 43.3322L1740.55 63.9268M1704.88 43.3322L1740.55 22.7375M1740.55 63.9268L1776.22 84.5215M1740.55 63.9268L1776.22 43.3321M1776.22 84.5215L1811.89 63.9268M1098.47 -347.966L1134.14 -327.371M1098.47 -347.966L1134.14 -368.561M1134.14 -327.371L1169.81 -306.777M1134.14 -327.371L1169.81 -347.966M1169.81 -306.777L1205.48 -286.182M1169.81 -306.777L1205.48 -327.371M1205.48 -286.182L1241.15 -306.777M1205.48 -286.182L1312.5 -224.398M1312.5 -224.398L1348.17 -203.804M1312.5 -224.398L1348.17 -244.993M1348.17 -203.804L1383.84 -183.209M1348.17 -203.804L1383.84 -224.398M1383.84 -183.209L1419.51 -162.614M1383.84 -183.209L1419.51 -203.804M1419.51 -162.614L1455.18 -142.02M1419.51 -162.614L1455.18 -183.209M1455.18 -142.02L1490.85 -121.425M1455.18 -142.02L1490.85 -162.614M1490.85 -121.425L1526.52 -100.83M1490.85 -121.425L1526.52 -142.02M1526.52 -100.83L1562.19 -80.2357M1526.52 -100.83L1562.19 -121.425M1562.19 -80.2357L1597.86 -59.6411M1562.19 -80.2357L1597.86 -100.83M1597.86 -59.6411L1633.54 -39.0464M1597.86 -59.6411L1633.54 -80.2357M1633.54 -39.0464L1669.21 -18.4518M1633.54 -39.0464L1669.21 -59.641M1669.21 -18.4518L1704.88 2.14285M1669.21 -18.4518L1704.88 -39.0464M1704.88 2.14285L1740.55 22.7375M1704.88 2.14285L1740.55 -18.4518M1740.55 22.7375L1776.22 43.3321M1740.55 22.7375L1776.22 2.14288M1776.22 43.3321L1811.89 63.9268M1776.22 43.3321L1811.89 22.7375M1811.89 63.9268L1847.56 43.3322M1134.14 -368.561L1169.81 -347.966M1134.14 -368.561L1169.81 -389.155M1169.81 -347.966L1205.48 -327.371M1169.81 -347.966L1205.48 -368.561M1205.48 -327.371L1241.15 -306.777M1205.48 -327.371L1241.15 -347.966M1241.15 -306.777L1276.83 -286.182M1241.15 -306.777L1276.83 -327.371M1276.83 -286.182L1312.5 -265.587M1276.83 -286.182L1312.5 -306.777M1312.5 -265.587L1348.17 -244.993M1312.5 -265.587L1348.17 -286.182M1348.17 -244.993L1383.84 -224.398M1348.17 -244.993L1383.84 -265.587M1383.84 -224.398L1419.51 -203.804M1383.84 -224.398L1419.51 -244.993M1419.51 -203.804L1455.18 -183.209M1419.51 -203.804L1455.18 -224.398M1455.18 -183.209L1490.85 -162.614M1455.18 -183.209L1490.85 -203.804M1490.85 -162.614L1526.52 -142.02M1490.85 -162.614L1526.52 -183.209M1526.52 -142.02L1562.19 -121.425M1526.52 -142.02L1562.19 -162.614M1562.19 -121.425L1597.86 -100.83M1562.19 -121.425L1597.86 -142.02M1597.86 -100.83L1633.54 -80.2357M1597.86 -100.83L1633.54 -121.425M1633.54 -80.2357L1669.21 -59.641M1633.54 -80.2357L1669.21 -100.83M1669.21 -59.641L1704.88 -39.0464M1669.21 -59.641L1704.88 -80.2357M1704.88 -39.0464L1740.55 -18.4518M1704.88 -39.0464L1740.55 -59.6411M1740.55 -18.4518L1776.22 2.14288M1740.55 -18.4518L1776.22 -39.0464M1776.22 2.14288L1811.89 22.7375M1776.22 2.14288L1811.89 -18.4518M1811.89 22.7375L1847.56 43.3322M1811.89 22.7375L1847.56 2.14285M1847.56 43.3322L1883.23 22.7375M1169.81 -389.155L1205.48 -368.561M1169.81 -389.155L1205.48 -409.75M1205.48 -368.561L1241.15 -347.966M1205.48 -368.561L1241.15 -389.155M1241.15 -347.966L1276.83 -327.371M1241.15 -347.966L1276.83 -368.561M1276.83 -327.371L1312.5 -306.777M1276.83 -327.371L1312.5 -347.966M1312.5 -306.777L1348.17 -286.182M1312.5 -306.777L1348.17 -327.371M1348.17 -286.182L1383.84 -265.587M1348.17 -286.182L1383.84 -306.777M1383.84 -265.587L1419.51 -244.993M1383.84 -265.587L1419.51 -286.182M1419.51 -244.993L1455.18 -224.398M1419.51 -244.993L1455.18 -265.588M1455.18 -224.398L1490.85 -203.804M1455.18 -224.398L1490.85 -244.993M1490.85 -203.804L1526.52 -183.209M1490.85 -203.804L1526.52 -224.398M1526.52 -183.209L1562.19 -162.614M1526.52 -183.209L1562.19 -203.804M1562.19 -162.614L1597.86 -142.02M1562.19 -162.614L1597.86 -183.209M1597.86 -142.02L1633.54 -121.425M1597.86 -142.02L1633.54 -162.614M1633.54 -121.425L1669.21 -100.83M1633.54 -121.425L1669.21 -142.02M1669.21 -100.83L1704.88 -80.2357M1669.21 -100.83L1704.88 -121.425M1704.88 -80.2357L1740.55 -59.6411M1704.88 -80.2357L1740.55 -100.83M1740.55 -59.6411L1776.22 -39.0464M1740.55 -59.6411L1776.22 -80.2357M1776.22 -39.0464L1811.89 -18.4518M1776.22 -39.0464L1811.89 -59.6411M1811.89 -18.4518L1847.56 2.14285M1811.89 -18.4518L1847.56 -39.0464M1847.56 2.14285L1883.23 22.7375M1847.56 2.14285L1883.23 -18.4518M1883.23 22.7375L1918.9 2.14285M1205.48 -409.75L1241.15 -389.155M1205.48 -409.75L1241.15 -430.345M1241.15 -389.155L1276.83 -368.561M1241.15 -389.155L1276.83 -409.75M1276.83 -368.561L1312.5 -347.966M1276.83 -368.561L1312.5 -389.155M1312.5 -347.966L1348.17 -327.371M1312.5 -347.966L1348.17 -368.561M1348.17 -327.371L1383.84 -306.777M1348.17 -327.371L1383.84 -347.966M1383.84 -306.777L1419.51 -286.182M1383.84 -306.777L1419.51 -327.371M1419.51 -286.182L1455.18 -265.588M1419.51 -286.182L1455.18 -306.777M1455.18 -265.588L1490.85 -244.993M1455.18 -265.588L1490.85 -286.182M1490.85 -244.993L1526.52 -224.398M1490.85 -244.993L1526.52 -265.587M1526.52 -224.398L1562.19 -203.804M1526.52 -224.398L1562.19 -244.993M1562.19 -203.804L1597.86 -183.209M1562.19 -203.804L1597.86 -224.398M1597.86 -183.209L1633.54 -162.614M1597.86 -183.209L1633.54 -203.804M1633.54 -162.614L1669.21 -142.02M1633.54 -162.614L1669.21 -183.209M1669.21 -142.02L1704.88 -121.425M1669.21 -142.02L1704.88 -162.614M1704.88 -121.425L1740.55 -100.83M1704.88 -121.425L1740.55 -142.02M1740.55 -100.83L1776.22 -80.2357M1740.55 -100.83L1776.22 -121.425M1776.22 -80.2357L1811.89 -59.6411M1776.22 -80.2357L1811.89 -100.83M1811.89 -59.6411L1847.56 -39.0464M1811.89 -59.6411L1847.56 -80.2357M1847.56 -39.0464L1883.23 -18.4518M1847.56 -39.0464L1883.23 -59.6411M1883.23 -18.4518L1918.9 2.14285M1883.23 -18.4518L1918.9 -39.0464M1918.9 2.14285L1954.57 -18.4518M1241.15 -430.345L1276.83 -409.75M1241.15 -430.345L1276.83 -450.939M1276.83 -409.75L1312.5 -389.155M1276.83 -409.75L1312.5 -430.345M1312.5 -389.155L1348.17 -368.561M1312.5 -389.155L1348.17 -409.75M1348.17 -368.561L1383.84 -347.966M1348.17 -368.561L1383.84 -389.155M1383.84 -347.966L1419.51 -327.371M1383.84 -347.966L1419.51 -368.561M1419.51 -327.371L1455.18 -306.777M1419.51 -327.371L1455.18 -347.966M1455.18 -306.777L1490.85 -286.182M1455.18 -306.777L1490.85 -327.371M1490.85 -286.182L1526.52 -265.587M1490.85 -286.182L1526.52 -306.777M1526.52 -265.587L1562.19 -244.993M1526.52 -265.587L1562.19 -286.182M1562.19 -244.993L1597.86 -224.398M1562.19 -244.993L1597.86 -265.587M1597.86 -224.398L1633.54 -203.804M1597.86 -224.398L1633.54 -244.993M1633.54 -203.804L1669.21 -183.209M1633.54 -203.804L1669.21 -224.398M1669.21 -183.209L1704.88 -162.614M1669.21 -183.209L1704.88 -203.804M1704.88 -162.614L1740.55 -142.02M1704.88 -162.614L1740.55 -183.209M1740.55 -142.02L1776.22 -121.425M1740.55 -142.02L1776.22 -162.614M1776.22 -121.425L1811.89 -100.83M1776.22 -121.425L1811.89 -142.02M1811.89 -100.83L1847.56 -80.2357M1811.89 -100.83L1847.56 -121.425M1847.56 -80.2357L1883.23 -59.6411M1847.56 -80.2357L1883.23 -100.83M1883.23 -59.6411L1918.9 -39.0464M1883.23 -59.6411L1918.9 -80.2357M1918.9 -39.0464L1954.57 -18.4518M1918.9 -39.0464L1954.57 -59.6411M1954.57 -18.4518L1990.25 -39.0464M1276.83 -450.939L1312.5 -430.345M1276.83 -450.939L1312.5 -471.534M1312.5 -430.345L1348.17 -409.75M1312.5 -430.345L1348.17 -450.939M1348.17 -409.75L1383.84 -389.155M1348.17 -409.75L1383.84 -430.345M1383.84 -389.155L1419.51 -368.561M1383.84 -389.155L1419.51 -409.75M1419.51 -368.561L1455.18 -347.966M1419.51 -368.561L1455.18 -389.155M1455.18 -347.966L1490.85 -327.371M1455.18 -347.966L1490.85 -368.561M1490.85 -327.371L1526.52 -306.777M1490.85 -327.371L1526.52 -347.966M1526.52 -306.777L1562.19 -327.371M1526.52 -306.777L1562.19 -286.182M1562.19 -286.182L1597.86 -265.587M1562.19 -286.182L1597.86 -306.777M1597.86 -265.587L1633.54 -244.993M1597.86 -265.587L1633.54 -286.182M1633.54 -244.993L1669.21 -224.398M1633.54 -244.993L1669.21 -265.587M1669.21 -224.398L1704.88 -203.804M1669.21 -224.398L1704.88 -244.993M1704.88 -203.804L1740.55 -183.209M1704.88 -203.804L1740.55 -224.398M1740.55 -183.209L1776.22 -162.614M1740.55 -183.209L1776.22 -203.804M1776.22 -162.614L1811.89 -142.02M1776.22 -162.614L1811.89 -183.209M1811.89 -142.02L1847.56 -121.425M1811.89 -142.02L1847.56 -162.614M1847.56 -121.425L1883.23 -100.83M1847.56 -121.425L1883.23 -142.02M1883.23 -100.83L1918.9 -80.2357M1883.23 -100.83L1918.9 -121.425M1918.9 -80.2357L1954.57 -59.6411M1918.9 -80.2357L1954.57 -100.83M1954.57 -59.6411L1990.25 -39.0464M1954.57 -59.6411L1990.24 -80.2357M1990.25 -39.0464L2025.92 -59.641M1312.5 -471.534L1348.17 -450.939M1312.5 -471.534L1348.17 -492.129M1348.17 -450.939L1383.84 -430.345M1348.17 -450.939L1383.84 -471.534M1383.84 -430.345L1419.51 -409.75M1383.84 -430.345L1419.51 -450.939M1419.51 -409.75L1455.18 -389.155M1419.51 -409.75L1455.18 -430.345M1455.18 -389.155L1490.85 -368.561M1455.18 -389.155L1490.85 -409.75M1490.85 -368.561L1526.52 -347.966M1490.85 -368.561L1526.52 -389.155M1526.52 -347.966L1562.19 -327.371M1526.52 -347.966L1562.19 -368.561M1562.19 -327.371L1597.86 -306.777M1562.19 -327.371L1597.86 -347.966M1597.86 -306.777L1633.54 -286.182M1597.86 -306.777L1633.54 -327.371M1633.54 -286.182L1669.21 -265.587M1633.54 -286.182L1669.21 -306.777M1669.21 -265.587L1704.88 -244.993M1669.21 -265.587L1704.88 -286.182M1704.88 -244.993L1740.55 -224.398M1704.88 -244.993L1740.55 -265.587M1740.55 -224.398L1776.22 -203.804M1740.55 -224.398L1776.22 -244.993M1776.22 -203.804L1811.89 -183.209M1776.22 -203.804L1811.89 -224.398M1811.89 -183.209L1847.56 -162.614M1811.89 -183.209L1847.56 -203.804M1847.56 -162.614L1883.23 -142.02M1847.56 -162.614L1883.23 -183.209M1883.23 -142.02L1918.9 -121.425M1883.23 -142.02L1918.9 -162.614M1918.9 -121.425L1954.57 -100.83M1918.9 -121.425L1954.57 -142.02M1954.57 -100.83L1990.24 -80.2357M1954.57 -100.83L1990.25 -121.425M1990.24 -80.2357L2025.92 -59.641M1990.24 -80.2357L2025.92 -100.83M2025.92 -59.641L2061.59 -80.2357M1348.17 -492.129L1383.84 -471.534M1348.17 -492.129L1383.84 -512.723M1383.84 -471.534L1419.51 -450.939M1383.84 -471.534L1419.51 -492.129M1419.51 -450.939L1455.18 -430.345M1419.51 -450.939L1455.18 -471.534M1455.18 -430.345L1490.85 -409.75M1455.18 -430.345L1490.85 -450.939M1490.85 -409.75L1526.52 -389.155M1490.85 -409.75L1526.52 -430.345M1526.52 -389.155L1562.19 -368.561M1526.52 -389.155L1562.19 -409.75M1562.19 -368.561L1597.86 -347.966M1562.19 -368.561L1597.86 -389.155M1597.86 -347.966L1633.54 -327.371M1597.86 -347.966L1633.54 -368.561M1633.54 -327.371L1669.21 -306.777M1633.54 -327.371L1669.21 -347.966M1669.21 -306.777L1704.88 -286.182M1669.21 -306.777L1704.88 -327.371M1704.88 -286.182L1740.55 -265.587M1704.88 -286.182L1740.55 -306.777M1740.55 -265.587L1776.22 -244.993M1740.55 -265.587L1776.22 -286.182M1776.22 -244.993L1811.89 -224.398M1776.22 -244.993L1811.89 -265.587M1811.89 -224.398L1847.56 -203.804M1811.89 -224.398L1847.56 -244.993M1847.56 -203.804L1883.23 -183.209M1847.56 -203.804L1883.23 -224.398M1883.23 -183.209L1918.9 -162.614M1883.23 -183.209L1918.9 -203.804M1918.9 -162.614L1954.57 -142.02M1918.9 -162.614L1954.57 -183.209M1954.57 -142.02L1990.25 -121.425M1954.57 -142.02L1990.25 -162.614M1990.25 -121.425L2025.92 -100.83M1990.25 -121.425L2025.92 -142.02M2025.92 -100.83L2061.59 -80.2357M2025.92 -100.83L2061.59 -121.425M2061.59 -80.2357L2097.26 -100.83M1383.84 -512.723L1419.51 -492.129M1383.84 -512.723L1419.51 -533.318M1419.51 -492.129L1455.18 -471.534M1419.51 -492.129L1455.18 -512.723M1455.18 -471.534L1490.85 -450.939M1455.18 -471.534L1490.85 -492.129M1490.85 -450.939L1526.52 -430.345M1490.85 -450.939L1526.52 -471.534M1526.52 -430.345L1562.19 -409.75M1526.52 -430.345L1562.19 -450.939M1562.19 -409.75L1597.86 -389.155M1562.19 -409.75L1597.86 -430.345M1597.86 -389.155L1633.54 -368.561M1597.86 -389.155L1633.54 -409.75M1633.54 -368.561L1669.21 -347.966M1633.54 -368.561L1669.21 -389.155M1669.21 -347.966L1704.88 -327.371M1669.21 -347.966L1704.88 -368.561M1704.88 -327.371L1740.55 -306.777M1704.88 -327.371L1740.55 -347.966M1740.55 -306.777L1776.22 -286.182M1740.55 -306.777L1776.22 -327.371M1776.22 -286.182L1811.89 -265.587M1776.22 -286.182L1811.89 -306.777M1811.89 -265.587L1847.56 -244.993M1811.89 -265.587L1847.56 -286.182M1847.56 -244.993L1883.23 -224.398M1847.56 -244.993L1883.23 -265.587M1883.23 -224.398L1918.9 -203.804M1883.23 -224.398L1918.9 -244.993M1918.9 -203.804L1954.57 -183.209M1918.9 -203.804L1954.57 -224.398M1954.57 -183.209L1990.25 -162.614M1954.57 -183.209L1990.25 -203.804M1990.25 -162.614L2025.92 -142.02M1990.25 -162.614L2025.92 -183.209M2025.92 -142.02L2061.59 -121.425M2025.92 -142.02L2061.59 -162.614M2061.59 -121.425L2097.26 -100.83M2061.59 -121.425L2097.26 -142.02M2097.26 -100.83L2132.93 -121.425M1419.51 -533.318L1455.18 -512.723M1419.51 -533.318L1455.18 -553.912M1455.18 -512.723L1490.85 -492.129M1455.18 -512.723L1490.85 -533.318M1490.85 -492.129L1526.52 -471.534M1490.85 -492.129L1526.52 -512.723M1526.52 -471.534L1562.19 -450.939M1526.52 -471.534L1562.19 -492.129M1562.19 -450.939L1597.86 -430.345M1562.19 -450.939L1597.86 -471.534M1597.86 -430.345L1633.54 -409.75M1597.86 -430.345L1633.54 -450.939M1633.54 -409.75L1669.21 -389.155M1633.54 -409.75L1669.21 -430.345M1669.21 -389.155L1704.88 -368.561M1669.21 -389.155L1704.88 -409.75M1704.88 -368.561L1740.55 -347.966M1704.88 -368.561L1740.55 -389.155M1740.55 -347.966L1776.22 -327.371M1740.55 -347.966L1776.22 -368.561M1776.22 -327.371L1811.89 -306.777M1776.22 -327.371L1811.89 -347.966M1811.89 -306.777L1847.56 -286.182M1811.89 -306.777L1847.56 -327.371M1847.56 -286.182L1883.23 -265.587M1847.56 -286.182L1883.23 -306.777M1883.23 -265.587L1918.9 -244.993M1883.23 -265.587L1918.9 -286.182M1918.9 -244.993L1954.57 -224.398M1918.9 -244.993L1954.57 -265.587M1954.57 -224.398L1990.25 -203.804M1954.57 -224.398L1990.25 -244.993M1990.25 -203.804L2025.92 -183.209M1990.25 -203.804L2025.92 -224.398M2025.92 -183.209L2061.59 -162.614M2025.92 -183.209L2061.59 -203.804M2061.59 -162.614L2097.26 -142.02M2061.59 -162.614L2097.26 -183.209M2097.26 -142.02L2132.93 -121.425M2097.26 -142.02L2132.93 -162.614M2132.93 -121.425L2168.6 -142.02M1455.18 -553.912L1490.85 -533.318M1455.18 -553.912L1490.85 -574.507M1490.85 -533.318L1526.52 -512.723M1490.85 -533.318L1526.52 -553.912M1526.52 -512.723L1562.19 -492.129M1526.52 -512.723L1562.19 -533.318M1562.19 -492.129L1597.86 -471.534M1562.19 -492.129L1597.86 -512.723M1597.86 -471.534L1633.54 -450.939M1597.86 -471.534L1633.54 -492.129M1633.54 -450.939L1669.21 -430.345M1633.54 -450.939L1669.21 -471.534M1669.21 -430.345L1704.88 -409.75M1669.21 -430.345L1704.88 -450.939M1704.88 -409.75L1740.55 -389.155M1704.88 -409.75L1740.55 -430.345M1740.55 -389.155L1776.22 -368.561M1740.55 -389.155L1776.22 -409.75M1776.22 -368.561L1811.89 -347.966M1776.22 -368.561L1811.89 -389.155M1811.89 -347.966L1847.56 -327.371M1811.89 -347.966L1847.56 -368.561M1847.56 -327.371L1883.23 -306.777M1847.56 -327.371L1883.23 -347.966M1883.23 -306.777L1918.9 -286.182M1883.23 -306.777L1918.9 -327.371M1918.9 -286.182L1954.57 -265.587M1918.9 -286.182L1954.57 -306.777M1954.57 -265.587L1990.25 -244.993M1954.57 -265.587L1990.25 -286.182M1990.25 -244.993L2025.92 -224.398M1990.25 -244.993L2025.92 -265.587M2025.92 -224.398L2061.59 -203.804M2025.92 -224.398L2061.59 -244.993M2061.59 -203.804L2097.26 -183.209M2061.59 -203.804L2097.26 -224.398M2097.26 -183.209L2132.93 -162.614M2097.26 -183.209L2132.93 -203.804M2132.93 -162.614L2168.6 -142.02M2132.93 -162.614L2168.6 -183.209M2168.6 -142.02L2204.27 -162.614M1490.85 -574.507L1526.52 -553.912M1490.85 -574.507L1526.52 -595.102L1562.19 -574.507M1526.52 -553.912L1562.19 -533.318M1526.52 -553.912L1562.19 -574.507M1562.19 -533.318L1597.86 -512.723M1562.19 -533.318L1597.86 -553.912M1597.86 -512.723L1633.54 -492.129M1597.86 -512.723L1633.54 -533.318M1633.54 -492.129L1669.21 -471.534M1633.54 -492.129L1669.21 -512.723M1669.21 -471.534L1704.88 -450.939M1669.21 -471.534L1704.88 -492.129M1704.88 -450.939L1740.55 -430.345M1704.88 -450.939L1740.55 -471.534M1740.55 -430.345L1776.22 -409.75M1740.55 -430.345L1776.22 -450.939M1776.22 -409.75L1811.89 -389.155M1776.22 -409.75L1811.89 -430.345M1811.89 -389.155L1847.56 -368.561M1811.89 -389.155L1847.56 -409.75M1847.56 -368.561L1883.23 -347.966M1847.56 -368.561L1883.23 -389.155M1883.23 -347.966L1918.9 -327.371M1883.23 -347.966L1918.9 -368.561M1918.9 -327.371L1954.57 -306.777M1918.9 -327.371L1954.57 -347.966M1954.57 -306.777L1990.25 -286.182M1954.57 -306.777L1990.25 -327.371M1990.25 -286.182L2025.92 -265.587M1990.25 -286.182L2025.92 -306.777M2025.92 -265.587L2061.59 -244.993M2025.92 -265.587L2061.59 -286.182M2061.59 -244.993L2097.26 -224.398M2061.59 -244.993L2097.26 -265.587M2097.26 -224.398L2132.93 -203.804M2097.26 -224.398L2132.93 -244.993M2132.93 -203.804L2168.6 -183.209M2132.93 -203.804L2168.6 -224.398M2168.6 -183.209L2204.27 -162.614M2168.6 -183.209L2204.27 -203.804M2204.27 -162.614L2239.94 -183.209L2204.27 -203.804M1562.19 -574.507L1597.86 -553.912M1597.86 -553.912L1633.54 -533.318M1633.54 -533.318L1669.21 -512.723M1669.21 -512.723L1704.88 -492.129M1704.88 -492.129L1740.55 -471.534M1740.55 -471.534L1776.22 -450.939M1776.22 -450.939L1811.89 -430.345M1811.89 -430.345L1847.56 -409.75M1847.56 -409.75L1883.23 -389.155M1883.23 -389.155L1918.9 -368.561M1918.9 -368.561L1954.57 -347.966M1954.57 -347.966L1990.25 -327.371M1990.25 -327.371L2025.92 -306.777M2025.92 -306.777L2061.59 -286.182M2061.59 -286.182L2097.26 -265.587M2097.26 -265.587L2132.93 -244.993M2132.93 -244.993L2168.6 -224.398M2168.6 -224.398L2204.27 -203.804" stroke="#BBBBBB" stroke-opacity="0.7" stroke-width="0.287813"/>
</g>
<rect width="917" height="377" transform="matrix(0.866025 -0.5 0.866025 0.5 33 308.562)" fill="black"/>
<g clip-path="url(#clip1_533_100304)">
<rect width="637.282" height="30.6667" transform="matrix(0.866025 -0.5 0.866025 0.5 157 306.634)" fill="white" fill-opacity="0.15"/>
<rect x="0.866025" width="636.282" height="29.6667" transform="matrix(0.866025 -0.5 0.866025 0.5 157.116 307.067)" stroke="white" stroke-opacity="0.1"/>
<path d="M822.584 1551.32L-1553.8 179.316" stroke="#BBBBBB" stroke-opacity="0.5" stroke-width="0.289064"/>
<path d="M1678.08 1057.4L-698.303 -314.607" stroke="#BBBBBB" stroke-opacity="0.5" stroke-width="0.289064"/>
<path d="M1250.33 1304.36L-1126.05 -67.6454" stroke="#BBBBBB" stroke-opacity="0.5" stroke-width="0.289064"/>
<path d="M2105.83 810.439L-270.553 -561.568" stroke="#BBBBBB" stroke-opacity="0.5" stroke-width="0.289064"/>
<path d="M2604.87 522.318L228.488 -849.689" stroke="#BBBBBB" stroke-opacity="0.5" stroke-width="0.289064"/>
<path d="M1036.46 1427.84L-1339.93 55.8355" stroke="#BBBBBB" stroke-opacity="0.5" stroke-width="0.289064"/>
<path d="M1891.96 933.92L-484.428 -438.087" stroke="#BBBBBB" stroke-opacity="0.5" stroke-width="0.289064"/>
<path d="M1464.21 1180.88L-912.178 -191.126" stroke="#BBBBBB" stroke-opacity="0.5" stroke-width="0.289064"/>
<path d="M2319.71 686.959L1131.51 0.955174L-56.679 -685.048" stroke="#BBBBBB" stroke-opacity="0.5" stroke-width="0.289064"/>
<path d="M2818.75 398.837L442.362 -973.17" stroke="#BBBBBB" stroke-opacity="0.5" stroke-width="0.289064"/>
<path d="M893.875 1510.16L-1482.51 138.156" stroke="#BBBBBB" stroke-opacity="0.5" stroke-width="0.289064"/>
<path d="M1749.38 1016.24L-627.011 -355.767" stroke="#BBBBBB" stroke-opacity="0.5" stroke-width="0.289064"/>
<path d="M1321.62 1263.2L-1054.76 -108.806" stroke="#BBBBBB" stroke-opacity="0.5" stroke-width="0.289064"/>
<path d="M2177.12 769.279L-199.263 -602.728" stroke="#BBBBBB" stroke-opacity="0.5" stroke-width="0.289064"/>
<path d="M2676.17 481.157L299.78 -890.85" stroke="#BBBBBB" stroke-opacity="0.5" stroke-width="0.289064"/>
<path d="M1107.75 1386.68L-1268.64 14.6751" stroke="#BBBBBB" stroke-opacity="0.5" stroke-width="0.289064"/>
<path d="M1963.25 892.76L-413.137 -479.247" stroke="#BBBBBB" stroke-opacity="0.5" stroke-width="0.289064"/>
<path d="M1535.5 1139.72L-840.887 -232.286" stroke="#BBBBBB" stroke-opacity="0.5" stroke-width="0.289064"/>
<path d="M2391 645.798L14.6128 -726.209" stroke="#BBBBBB" stroke-opacity="0.5" stroke-width="0.289064"/>
<path d="M2890.04 357.677L513.654 -1014.33" stroke="#BBBBBB" stroke-opacity="0.5" stroke-width="0.289064"/>
<path d="M3032.62 275.356L656.237 -1096.65" stroke="#BBBBBB" stroke-opacity="0.5" stroke-width="0.289064"/>
<path d="M965.167 1469L-1411.22 96.9955" stroke="#BBBBBB" stroke-opacity="0.5" stroke-width="0.289064"/>
<path d="M1820.67 975.08L-555.72 -396.927" stroke="#BBBBBB" stroke-opacity="0.5" stroke-width="0.289064"/>
<path d="M1392.92 1222.04L-983.47 -149.966" stroke="#BBBBBB" stroke-opacity="0.5" stroke-width="0.289064"/>
<path d="M2248.42 728.119L-127.97 -643.888" stroke="#BBBBBB" stroke-opacity="0.5" stroke-width="0.289064"/>
<path d="M2747.46 439.997L371.071 -932.01" stroke="#BBBBBB" stroke-opacity="0.5" stroke-width="0.289064"/>
<path d="M1179.04 1345.52L-1197.34 -26.485" stroke="#BBBBBB" stroke-opacity="0.5" stroke-width="0.289064"/>
<path d="M2034.54 851.6L-341.845 -520.408" stroke="#BBBBBB" stroke-opacity="0.5" stroke-width="0.289064"/>
<path d="M2533.58 563.478L157.196 -808.529" stroke="#BBBBBB" stroke-opacity="0.5" stroke-width="0.289064"/>
<path d="M1606.79 1098.56L-769.594 -273.446" stroke="#BBBBBB" stroke-opacity="0.5" stroke-width="0.289064"/>
<path d="M2462.29 604.638L85.9043 -767.369" stroke="#BBBBBB" stroke-opacity="0.5" stroke-width="0.289064"/>
<path d="M2961.33 316.517L584.945 -1055.49" stroke="#BBBBBB" stroke-opacity="0.5" stroke-width="0.289064"/>
<path fill-rule="evenodd" clip-rule="evenodd" d="M463.5 192.062L383.5 146.062L384.5 145.562L464.5 191.562L463.5 192.062Z" fill="#D4FFFF"/>
<rect width="292" height="92" transform="matrix(0.866025 -0.5 0.866025 0.5 131 292.062)" fill="url(#paint0_linear_533_100304)"/>
<rect x="0.866025" width="623.288" height="29.6667" transform="matrix(0.866025 -0.5 0.866025 0.5 157.116 307.067)" fill="url(#paint1_linear_533_100304)"/>
<rect x="0.866025" width="623.288" height="29.6667" transform="matrix(0.866025 -0.5 0.866025 0.5 157.116 307.067)" stroke="url(#paint2_linear_533_100304)"/>
</g>
<path d="M409.113 36.8597L415.338 40.4541M409.113 40.4541L415.338 36.8597" stroke="#BBBBBB" stroke-width="0.29"/>
<path d="M266.113 118.86L272.338 122.454M266.113 122.454L272.338 118.86" stroke="#BBBBBB" stroke-width="0.29"/>
<path d="M337.113 77.8597L343.338 81.4541M337.113 81.4541L343.338 77.8597" stroke="#BBBBBB" stroke-width="0.29"/>
<path d="M194.113 159.86L200.338 163.454M194.113 163.454L200.338 159.86" stroke="#BBBBBB" stroke-width="0.29"/>
<rect width="563.141" height="30.6667" transform="matrix(0.866025 -0.5 0.866025 0.5 250 363.633)" fill="white" fill-opacity="0.15"/>
<rect x="0.866025" width="562.141" height="29.6667" transform="matrix(0.866025 -0.5 0.866025 0.5 250.116 364.066)" stroke="white" stroke-opacity="0.1"/>
<path d="M276.558 378.966C261.89 370.498 261.89 356.768 276.558 348.3L563.379 182.704C570.712 178.47 582.603 178.47 589.937 182.704V182.704C597.271 186.938 597.271 193.803 589.937 198.037L276.558 378.966V378.966Z" fill="white" fill-opacity="0.15"/>
<path d="M276.991 348.55L563.812 182.954C570.906 178.858 582.409 178.858 589.504 182.954C596.598 187.05 596.598 193.691 589.504 197.787L276.562 378.464C262.564 370.116 262.707 356.797 276.991 348.55Z" stroke="white" stroke-opacity="0.1"/>
<path d="M250 363.633L421.014 264.898C428.348 260.664 440.239 260.664 447.573 264.898V264.898C454.906 269.132 454.906 275.997 447.573 280.231L276.558 378.966L250 363.633Z" fill="white" fill-opacity="0.15"/>
<path d="M250.866 363.633L421.447 265.148C428.542 261.052 440.045 261.052 447.14 265.148C454.234 269.244 454.234 275.885 447.14 279.981L276.558 378.466L250.866 363.633Z" stroke="white" stroke-opacity="0.1"/>
<path d="M380.495 143.812C379.3 144.503 377.361 144.503 376.165 143.812C374.969 143.122 374.969 142.003 376.165 141.312C377.361 140.622 379.3 140.622 380.495 141.312C381.691 142.003 381.691 143.122 380.495 143.812Z" fill="#D4FFFF"/>
<g opacity="0.8" filter="url(#filter0_bddd_533_100304)">
<rect width="120.177" height="21" rx="4" transform="matrix(0.866025 -0.5 0.866025 0.5 127.76 159.585)" fill="black" fill-opacity="0.6" shape-rendering="crispEdges"/>
<rect x="0.251147" width="119.887" height="20.71" rx="3.855" transform="matrix(0.866025 -0.5 0.866025 0.5 127.793 159.711)" stroke="white" stroke-opacity="0.07" stroke-width="0.29" shape-rendering="crispEdges"/>
<rect x="0.251147" width="119.887" height="20.71" rx="3.855" transform="matrix(0.866025 -0.5 0.866025 0.5 127.793 159.711)" stroke="url(#paint3_linear_533_100304)" stroke-width="0.29" style="mix-blend-mode:overlay" shape-rendering="crispEdges"/>
<path d="M163.178 148.131L162.868 147.952L165.609 146.37L165.919 146.549L164.721 147.24L168.19 149.243L167.845 149.442L164.376 147.439L163.178 148.131ZM171.362 147.471C171.13 147.605 170.88 147.701 170.613 147.759C170.345 147.816 170.082 147.832 169.825 147.807C169.568 147.782 169.338 147.715 169.137 147.605L169.485 147.404C169.629 147.48 169.792 147.525 169.974 147.539C170.155 147.553 170.34 147.539 170.528 147.497C170.715 147.454 170.888 147.387 171.048 147.294C171.223 147.193 171.344 147.086 171.412 146.972C171.481 146.856 171.496 146.745 171.458 146.636C171.42 146.526 171.329 146.429 171.185 146.346C171.032 146.258 170.859 146.203 170.665 146.18C170.47 146.157 170.268 146.169 170.057 146.215C169.848 146.261 169.644 146.341 169.443 146.457L169.222 146.585L168.912 146.406L169.133 146.278C169.297 146.184 169.412 146.083 169.478 145.977C169.545 145.869 169.56 145.762 169.524 145.658C169.489 145.554 169.398 145.459 169.251 145.375C169.112 145.294 168.958 145.242 168.79 145.217C168.621 145.192 168.45 145.195 168.275 145.227C168.102 145.257 167.939 145.316 167.788 145.403C167.641 145.488 167.536 145.582 167.47 145.685C167.405 145.788 167.387 145.891 167.415 145.994C167.445 146.096 167.528 146.189 167.664 146.274L167.33 146.467C167.138 146.35 167.02 146.219 166.974 146.073C166.929 145.926 166.95 145.779 167.039 145.631C167.127 145.482 167.277 145.347 167.487 145.225C167.71 145.097 167.948 145.012 168.201 144.971C168.455 144.93 168.701 144.927 168.941 144.963C169.181 144.998 169.391 145.068 169.572 145.172C169.787 145.296 169.914 145.437 169.95 145.593C169.986 145.749 169.934 145.901 169.795 146.049L169.819 146.063C170.109 145.951 170.405 145.904 170.709 145.92C171.013 145.935 171.285 146.012 171.524 146.15C171.726 146.267 171.855 146.402 171.91 146.556C171.964 146.709 171.946 146.866 171.855 147.027C171.764 147.186 171.599 147.334 171.362 147.471Z" fill="#BBBBBB"/>
</g>
<defs>
<filter id="filter0_bddd_533_100304" x="107.76" y="79.4971" width="162.262" height="110.588" filterUnits="userSpaceOnUse" color-interpolation-filters="sRGB">
<feFlood flood-opacity="0" result="BackgroundImageFix"/>
<feGaussianBlur in="BackgroundImageFix" stdDeviation="10"/>
<feComposite in2="SourceAlpha" operator="in" result="effect1_backgroundBlur_533_100304"/>
<feColorMatrix in="SourceAlpha" type="matrix" values="0 0 0 0 0 0 0 0 0 0 0 0 0 0 0 0 0 0 127 0" result="hardAlpha"/>
<feOffset dy="10"/>
<feGaussianBlur stdDeviation="5"/>
<feComposite in2="hardAlpha" operator="out"/>
<feColorMatrix type="matrix" values="0 0 0 0 0 0 0 0 0 0 0 0 0 0 0 0 0 0 0.1 0"/>
<feBlend mode="normal" in2="effect1_backgroundBlur_533_100304" result="effect2_dropShadow_533_100304"/>
<feColorMatrix in="SourceAlpha" type="matrix" values="0 0 0 0 0 0 0 0 0 0 0 0 0 0 0 0 0 0 127 0" result="hardAlpha"/>
<feOffset dy="4"/>
<feGaussianBlur stdDeviation="2"/>
<feComposite in2="hardAlpha" operator="out"/>
<feColorMatrix type="matrix" values="0 0 0 0 0 0 0 0 0 0 0 0 0 0 0 0 0 0 0.05 0"/>
<feBlend mode="normal" in2="effect2_dropShadow_533_100304" result="effect3_dropShadow_533_100304"/>
<feColorMatrix in="SourceAlpha" type="matrix" values="0 0 0 0 0 0 0 0 0 0 0 0 0 0 0 0 0 0 127 0" result="hardAlpha"/>
<feOffset dy="1"/>
<feComposite in2="hardAlpha" operator="out"/>
<feColorMatrix type="matrix" values="0 0 0 0 0 0 0 0 0 0 0 0 0 0 0 0 0 0 0.05 0"/>
<feBlend mode="normal" in2="effect3_dropShadow_533_100304" result="effect4_dropShadow_533_100304"/>
<feBlend mode="normal" in="SourceGraphic" in2="effect4_dropShadow_533_100304" result="shape"/>
</filter>
<linearGradient id="paint0_linear_533_100304" x1="0" y1="46" x2="292" y2="46" gradientUnits="userSpaceOnUse">
<stop stop-color="#89FFFF" stop-opacity="0.3"/>
<stop offset="1" stop-color="#89FFFF" stop-opacity="0.05"/>
</linearGradient>
<linearGradient id="paint1_linear_533_100304" x1="166.196" y1="14.5559" x2="624.286" y2="16.0024" gradientUnits="userSpaceOnUse">
<stop offset="0.215" stop-color="#292929"/>
<stop offset="1" stop-color="#B3FFFF"/>
</linearGradient>
<linearGradient id="paint2_linear_533_100304" x1="0" y1="15.3333" x2="624.288" y2="15.3333" gradientUnits="userSpaceOnUse">
<stop offset="0.335" stop-color="white" stop-opacity="0.16"/>
<stop offset="1" stop-color="#00FFFF"/>
</linearGradient>
<linearGradient id="paint3_linear_533_100304" x1="45.4418" y1="14.5659" x2="47.8618" y2="-5.04979" gradientUnits="userSpaceOnUse">
<stop stop-color="white" stop-opacity="0"/>
<stop offset="1" stop-color="white"/>
</linearGradient>
<clipPath id="clip0_533_100304">
<rect width="740" height="823.786" fill="white" transform="matrix(0.866025 -0.5 0.866025 0.5 -43 311.062)"/>
</clipPath>
<clipPath id="clip1_533_100304">
<rect width="823.204" height="656.094" fill="white" transform="matrix(0.866025 -0.5 0.866025 0.5 134.62 248.602)"/>
</clipPath>
</defs>
</svg>
