<svg width="239" height="120" viewBox="0 0 239 120" fill="none" xmlns="http://www.w3.org/2000/svg">
<circle cx="119.5" cy="120" r="119" fill="url(#paint0_radial_532_49379)" fill-opacity="0.1" stroke="white" stroke-opacity="0.15" stroke-width="0.254394"/>
<circle cx="119.5" cy="120.565" r="111.086" fill="url(#paint1_radial_532_49379)" fill-opacity="0.2" stroke="white" stroke-opacity="0.2" stroke-width="0.254394"/>
<circle cx="119.5" cy="120.565" r="82.2542" fill="url(#paint2_radial_532_49379)" fill-opacity="0.4" stroke="white" stroke-opacity="0.25" stroke-width="0.254394"/>
<circle cx="119.218" cy="120.848" r="55.4014" fill="url(#paint3_radial_532_49379)" fill-opacity="0.6" stroke="white" stroke-opacity="0.3" stroke-width="0.254394"/>
<circle cx="119.217" cy="120.848" r="29.962" fill="url(#paint4_radial_532_49379)" fill-opacity="0.8" stroke="white" stroke-opacity="0.4" stroke-width="0.254394"/>
<path opacity="0.3" d="M119.217 11.1757V120.848" stroke="#F1FFFF" stroke-opacity="0.7" stroke-width="0.254394"/>
<path opacity="0.3" d="M174.619 24.1781L119.218 120.795" stroke="#F1FFFF" stroke-opacity="0.7" stroke-width="0.254394"/>
<path opacity="0.3" d="M215.887 64.8812L119.217 120.795" stroke="#F1FFFF" stroke-opacity="0.7" stroke-width="0.254394"/>
<path opacity="0.3" d="M63.8162 24.1781L119.218 120.795" stroke="#F1FFFF" stroke-opacity="0.7" stroke-width="0.254394"/>
<path opacity="0.3" d="M23.1128 65.1638L119.217 120.795" stroke="#F1FFFF" stroke-opacity="0.7" stroke-width="0.254394"/>
<circle cx="149.179" cy="120.283" r="1.69596" fill="#012929"/>
<circle cx="149.179" cy="120.283" r="1.56876" stroke="white" stroke-opacity="0.2" stroke-width="0.254394"/>
<circle cx="119.217" cy="90.8859" r="1.69596" fill="#012929"/>
<circle cx="119.217" cy="90.8859" r="1.56876" stroke="white" stroke-opacity="0.2" stroke-width="0.254394"/>
<circle cx="119.217" cy="65.4464" r="1.69596" fill="#012929"/>
<circle cx="119.217" cy="65.4464" r="1.56876" stroke="white" stroke-opacity="0.2" stroke-width="0.254394"/>
<circle cx="119.217" cy="38.3111" r="1.69596" fill="#012929"/>
<circle cx="119.217" cy="38.3111" r="1.56876" stroke="white" stroke-opacity="0.2" stroke-width="0.254394"/>
<circle cx="119.217" cy="9.47965" r="1.69596" fill="#012929"/>
<circle cx="119.217" cy="9.47965" r="1.56876" stroke="white" stroke-opacity="0.2" stroke-width="0.254394"/>
<circle cx="174.618" cy="120.283" r="1.69596" fill="#012929"/>
<circle cx="174.618" cy="120.283" r="1.56876" stroke="white" stroke-opacity="0.2" stroke-width="0.254394"/>
<circle cx="201.754" cy="120.283" r="1.69596" fill="#012929"/>
<circle cx="201.754" cy="120.283" r="1.56876" stroke="white" stroke-opacity="0.2" stroke-width="0.254394"/>
<circle cx="119.217" cy="90.8859" r="1.69596" fill="#012929"/>
<circle cx="119.217" cy="90.8859" r="1.56876" stroke="white" stroke-opacity="0.2" stroke-width="0.254394"/>
<circle cx="118.935" cy="120" r="16.1116" fill="url(#paint5_radial_532_49379)" fill-opacity="0.6"/>
<circle cx="89.2555" cy="120.283" r="1.69596" fill="#012929"/>
<circle cx="89.2555" cy="120.283" r="1.56876" stroke="white" stroke-opacity="0.2" stroke-width="0.254394"/>
<circle cx="63.8161" cy="120.283" r="1.69596" fill="#012929"/>
<circle cx="63.8161" cy="120.283" r="1.56876" stroke="white" stroke-opacity="0.2" stroke-width="0.254394"/>
<circle cx="37.2458" cy="120.283" r="1.69596" fill="#012929"/>
<circle cx="37.2458" cy="120.283" r="1.56876" stroke="white" stroke-opacity="0.2" stroke-width="0.254394"/>
<circle cx="67.7729" cy="76.7531" r="15.2637" fill="#00FFFF" fill-opacity="0.1"/>
<circle cx="67.7729" cy="76.753" r="10.1758" fill="#00FFFF" fill-opacity="0.1"/>
<circle cx="67.7725" cy="76.753" r="5.08789" fill="#00FFFF" fill-opacity="0.1"/>
<circle cx="67.7734" cy="76.753" r="1.69596" fill="#D4FFFF"/>
<circle cx="104.519" cy="40.0071" r="15.2637" fill="#00FFFF" fill-opacity="0.1"/>
<circle cx="104.519" cy="40.0071" r="10.1758" fill="#00FFFF" fill-opacity="0.1"/>
<circle cx="104.519" cy="40.0071" r="5.08789" fill="#00FFFF" fill-opacity="0.1"/>
<circle cx="104.519" cy="40.0071" r="1.69596" fill="#D4FFFF"/>
<circle cx="172.923" cy="78.449" r="15.2637" fill="#00FFFF" fill-opacity="0.1"/>
<circle cx="172.923" cy="78.4489" r="10.1758" fill="#00FFFF" fill-opacity="0.1"/>
<circle cx="172.923" cy="78.4489" r="5.08789" fill="#00FFFF" fill-opacity="0.1"/>
<circle cx="172.923" cy="78.4489" r="1.69596" fill="#D4FFFF"/>
<circle cx="171.227" cy="36.6152" r="15.2637" fill="#00FFFF" fill-opacity="0.1"/>
<circle cx="171.227" cy="36.6153" r="10.1758" fill="#00FFFF" fill-opacity="0.1"/>
<circle cx="171.227" cy="36.6153" r="5.08789" fill="#00FFFF" fill-opacity="0.1"/>
<circle cx="171.227" cy="36.6153" r="1.69596" fill="#D4FFFF"/>
<circle cx="119.217" cy="120.283" r="2.26128" fill="white" fill-opacity="0.1"/>
<defs>
<radialGradient id="paint0_radial_532_49379" cx="0" cy="0" r="1" gradientUnits="userSpaceOnUse" gradientTransform="translate(119.5 120) rotate(180) scale(119)">
<stop stop-color="#012929" stop-opacity="0.03"/>
<stop offset="0.52" stop-color="#012929" stop-opacity="0.03"/>
<stop offset="1" stop-color="#00FFFF" stop-opacity="0.2"/>
</radialGradient>
<radialGradient id="paint1_radial_532_49379" cx="0" cy="0" r="1" gradientUnits="userSpaceOnUse" gradientTransform="translate(119.5 120.565) rotate(180) scale(111.086)">
<stop stop-color="#012929" stop-opacity="0.03"/>
<stop offset="0.52" stop-color="#012929" stop-opacity="0.03"/>
<stop offset="1" stop-color="#00FFFF" stop-opacity="0.2"/>
</radialGradient>
<radialGradient id="paint2_radial_532_49379" cx="0" cy="0" r="1" gradientUnits="userSpaceOnUse" gradientTransform="translate(119.5 120.565) rotate(180) scale(82.2542)">
<stop stop-color="#012929" stop-opacity="0.03"/>
<stop offset="0.52" stop-color="#012929" stop-opacity="0.03"/>
<stop offset="1" stop-color="#00FFFF" stop-opacity="0.2"/>
</radialGradient>
<radialGradient id="paint3_radial_532_49379" cx="0" cy="0" r="1" gradientUnits="userSpaceOnUse" gradientTransform="translate(119.218 120.848) rotate(180) scale(55.4014)">
<stop stop-color="#012929" stop-opacity="0.03"/>
<stop offset="0.52" stop-color="#012929" stop-opacity="0.03"/>
<stop offset="1" stop-color="#00FFFF" stop-opacity="0.2"/>
</radialGradient>
<radialGradient id="paint4_radial_532_49379" cx="0" cy="0" r="1" gradientUnits="userSpaceOnUse" gradientTransform="translate(119.217 120.848) rotate(180) scale(29.962)">
<stop stop-color="#012929" stop-opacity="0.03"/>
<stop offset="0.52" stop-color="#012929" stop-opacity="0.03"/>
<stop offset="1" stop-color="#00FFFF" stop-opacity="0.2"/>
</radialGradient>
<radialGradient id="paint5_radial_532_49379" cx="0" cy="0" r="1" gradientUnits="userSpaceOnUse" gradientTransform="translate(119.217 120.283) rotate(-90) scale(13.5677)">
<stop offset="0.135" stop-opacity="0.5"/>
<stop offset="0.1351" stop-color="#00FFFF"/>
<stop offset="1" stop-opacity="0"/>
</radialGradient>
</defs>
</svg>
