<svg width="422" height="211" viewBox="0 0 422 211" fill="none" xmlns="http://www.w3.org/2000/svg">
<circle cx="211" cy="211.31" r="210.5" fill="url(#paint0_radial_532_37999)" fill-opacity="0.1" stroke="white" stroke-opacity="0.15" stroke-width="0.45"/>
<circle cx="211" cy="212.31" r="196.5" fill="url(#paint1_radial_532_37999)" fill-opacity="0.2" stroke="white" stroke-opacity="0.2" stroke-width="0.45"/>
<circle cx="211" cy="212.31" r="145.5" fill="url(#paint2_radial_532_37999)" fill-opacity="0.4" stroke="white" stroke-opacity="0.25" stroke-width="0.45"/>
<circle cx="210.5" cy="212.81" r="98" fill="url(#paint3_radial_532_37999)" fill-opacity="0.6" stroke="white" stroke-opacity="0.3" stroke-width="0.45"/>
<circle cx="210.5" cy="212.81" r="53" fill="url(#paint4_radial_532_37999)" fill-opacity="0.8" stroke="white" stroke-opacity="0.4" stroke-width="0.45"/>
<path opacity="0.3" d="M210.5 18.8101V212.81" stroke="#F1FFFF" stroke-opacity="0.7" stroke-width="0.45"/>
<path opacity="0.3" d="M308.5 41.8101L210.5 212.717" stroke="#F1FFFF" stroke-opacity="0.7" stroke-width="0.45"/>
<path opacity="0.3" d="M381.5 113.81L210.5 212.717" stroke="#F1FFFF" stroke-opacity="0.7" stroke-width="0.45"/>
<path opacity="0.3" d="M112.5 41.8101L210.5 212.717" stroke="#F1FFFF" stroke-opacity="0.7" stroke-width="0.45"/>
<path opacity="0.3" d="M40.4998 114.31L210.499 212.717" stroke="#F1FFFF" stroke-opacity="0.7" stroke-width="0.45"/>
<circle cx="263.5" cy="211.81" r="3" fill="#012929"/>
<circle cx="263.5" cy="211.81" r="2.775" stroke="white" stroke-opacity="0.2" stroke-width="0.45"/>
<circle cx="210.5" cy="159.81" r="3" fill="#012929"/>
<circle cx="210.5" cy="159.81" r="2.775" stroke="white" stroke-opacity="0.2" stroke-width="0.45"/>
<circle cx="210.5" cy="114.81" r="3" fill="#012929"/>
<circle cx="210.5" cy="114.81" r="2.775" stroke="white" stroke-opacity="0.2" stroke-width="0.45"/>
<circle cx="210.5" cy="66.8101" r="3" fill="#012929"/>
<circle cx="210.5" cy="66.8101" r="2.775" stroke="white" stroke-opacity="0.2" stroke-width="0.45"/>
<circle cx="210.5" cy="15.8101" r="3" fill="#012929"/>
<circle cx="210.5" cy="15.8101" r="2.775" stroke="white" stroke-opacity="0.2" stroke-width="0.45"/>
<circle cx="308.5" cy="211.81" r="3" fill="#012929"/>
<circle cx="308.5" cy="211.81" r="2.775" stroke="white" stroke-opacity="0.2" stroke-width="0.45"/>
<circle cx="356.5" cy="211.81" r="3" fill="#012929"/>
<circle cx="356.5" cy="211.81" r="2.775" stroke="white" stroke-opacity="0.2" stroke-width="0.45"/>
<circle cx="210.5" cy="159.81" r="3" fill="#012929"/>
<circle cx="210.5" cy="159.81" r="2.775" stroke="white" stroke-opacity="0.2" stroke-width="0.45"/>
<circle cx="210" cy="211.31" r="28.5" fill="url(#paint5_radial_532_37999)" fill-opacity="0.6"/>
<circle cx="157.5" cy="211.81" r="3" fill="#012929"/>
<circle cx="157.5" cy="211.81" r="2.775" stroke="white" stroke-opacity="0.2" stroke-width="0.45"/>
<circle cx="112.5" cy="211.81" r="3" fill="#012929"/>
<circle cx="112.5" cy="211.81" r="2.775" stroke="white" stroke-opacity="0.2" stroke-width="0.45"/>
<circle cx="65.5" cy="211.81" r="3" fill="#012929"/>
<circle cx="65.5" cy="211.81" r="2.775" stroke="white" stroke-opacity="0.2" stroke-width="0.45"/>
<circle cx="119.5" cy="134.81" r="27" fill="#00FFFF" fill-opacity="0.1"/>
<circle cx="119.5" cy="134.81" r="18" fill="#00FFFF" fill-opacity="0.1"/>
<circle cx="119.5" cy="134.81" r="9" fill="#00FFFF" fill-opacity="0.1"/>
<circle cx="119.5" cy="134.81" r="3" fill="#D4FFFF"/>
<circle cx="184.5" cy="69.8101" r="27" fill="#00FFFF" fill-opacity="0.1"/>
<circle cx="184.5" cy="69.8101" r="18" fill="#00FFFF" fill-opacity="0.1"/>
<circle cx="184.5" cy="69.8101" r="9" fill="#00FFFF" fill-opacity="0.1"/>
<circle cx="184.5" cy="69.8101" r="3" fill="#D4FFFF"/>
<circle cx="305.5" cy="137.81" r="27" fill="#00FFFF" fill-opacity="0.1"/>
<circle cx="305.5" cy="137.81" r="18" fill="#00FFFF" fill-opacity="0.1"/>
<circle cx="305.5" cy="137.81" r="9" fill="#00FFFF" fill-opacity="0.1"/>
<circle cx="305.5" cy="137.81" r="3" fill="#D4FFFF"/>
<circle cx="302.5" cy="63.8101" r="27" fill="#00FFFF" fill-opacity="0.1"/>
<circle cx="302.5" cy="63.8101" r="18" fill="#00FFFF" fill-opacity="0.1"/>
<circle cx="302.5" cy="63.8101" r="9" fill="#00FFFF" fill-opacity="0.1"/>
<circle cx="302.5" cy="63.8101" r="3" fill="#D4FFFF"/>
<circle cx="210.5" cy="211.81" r="4" fill="white" fill-opacity="0.1"/>
<defs>
<radialGradient id="paint0_radial_532_37999" cx="0" cy="0" r="1" gradientUnits="userSpaceOnUse" gradientTransform="translate(211 211.31) rotate(180) scale(210.5)">
<stop stop-color="#012929" stop-opacity="0.03"/>
<stop offset="0.52" stop-color="#012929" stop-opacity="0.03"/>
<stop offset="1" stop-color="#00FFFF" stop-opacity="0.2"/>
</radialGradient>
<radialGradient id="paint1_radial_532_37999" cx="0" cy="0" r="1" gradientUnits="userSpaceOnUse" gradientTransform="translate(211 212.31) rotate(180) scale(196.5)">
<stop stop-color="#012929" stop-opacity="0.03"/>
<stop offset="0.52" stop-color="#012929" stop-opacity="0.03"/>
<stop offset="1" stop-color="#00FFFF" stop-opacity="0.2"/>
</radialGradient>
<radialGradient id="paint2_radial_532_37999" cx="0" cy="0" r="1" gradientUnits="userSpaceOnUse" gradientTransform="translate(211 212.31) rotate(180) scale(145.5)">
<stop stop-color="#012929" stop-opacity="0.03"/>
<stop offset="0.52" stop-color="#012929" stop-opacity="0.03"/>
<stop offset="1" stop-color="#00FFFF" stop-opacity="0.2"/>
</radialGradient>
<radialGradient id="paint3_radial_532_37999" cx="0" cy="0" r="1" gradientUnits="userSpaceOnUse" gradientTransform="translate(210.5 212.81) rotate(180) scale(98)">
<stop stop-color="#012929" stop-opacity="0.03"/>
<stop offset="0.52" stop-color="#012929" stop-opacity="0.03"/>
<stop offset="1" stop-color="#00FFFF" stop-opacity="0.2"/>
</radialGradient>
<radialGradient id="paint4_radial_532_37999" cx="0" cy="0" r="1" gradientUnits="userSpaceOnUse" gradientTransform="translate(210.5 212.81) rotate(180) scale(53)">
<stop stop-color="#012929" stop-opacity="0.03"/>
<stop offset="0.52" stop-color="#012929" stop-opacity="0.03"/>
<stop offset="1" stop-color="#00FFFF" stop-opacity="0.2"/>
</radialGradient>
<radialGradient id="paint5_radial_532_37999" cx="0" cy="0" r="1" gradientUnits="userSpaceOnUse" gradientTransform="translate(210.5 211.81) rotate(-90) scale(24)">
<stop offset="0.135" stop-opacity="0.5"/>
<stop offset="0.1351" stop-color="#00FFFF"/>
<stop offset="1" stop-opacity="0"/>
</radialGradient>
</defs>
</svg>
