<svg width="394" height="249" viewBox="0 0 394 249" fill="none" xmlns="http://www.w3.org/2000/svg">
<mask id="path-1-inside-1_164_4787" fill="white">
<path d="M0 12.8101C0 6.18265 5.37258 0.810059 12 0.810059H381.333C387.961 0.810059 393.333 6.18264 393.333 12.8101V248.81H0V12.8101Z"/>
</mask>
<path d="M0 12.8101C0 6.18265 5.37258 0.810059 12 0.810059H381.333C387.961 0.810059 393.333 6.18264 393.333 12.8101V248.81H0V12.8101Z" fill="url(#paint0_radial_164_4787)" fill-opacity="0.5"/>
<path d="M0 12.8101C0 6.18265 5.37258 0.810059 12 0.810059H381.333C387.961 0.810059 393.333 6.18264 393.333 12.8101V248.81H0V12.8101Z" fill="#CE34E8" fill-opacity="0.01"/>
<path d="M0 0.810059H393.333H0ZM393.333 249.81H0V247.81H393.333V249.81ZM0 248.81V0.810059V248.81ZM393.333 0.810059V248.81V0.810059Z" fill="white" fill-opacity="0.1" mask="url(#path-1-inside-1_164_4787)"/>
<path d="M0 0.810059H393.333H0ZM393.333 249.81H0V247.81H393.333V249.81ZM0 248.81V0.810059V248.81ZM393.333 0.810059V248.81V0.810059Z" fill="url(#paint1_linear_164_4787)" style="mix-blend-mode:overlay" mask="url(#path-1-inside-1_164_4787)"/>
<defs>
<radialGradient id="paint0_radial_164_4787" cx="0" cy="0" r="1" gradientUnits="userSpaceOnUse" gradientTransform="translate(194.862 286.699) rotate(-179.202) scale(247.211 282.344)">
<stop stop-color="#CE34E8"/>
<stop offset="1" stop-opacity="0.5"/>
</radialGradient>
<linearGradient id="paint1_linear_164_4787" x1="111.444" y1="153.743" x2="249.438" y2="-65.1172" gradientUnits="userSpaceOnUse">
<stop stop-color="white" stop-opacity="0"/>
<stop offset="1" stop-color="white"/>
</linearGradient>
</defs>
</svg>
