<?xml version="1.0" encoding="utf-8"?>
<!-- Generator: Adobe Illustrator 28.5.0, SVG Export Plug-In . SVG Version: 9.03 Build 54727)  -->
<svg version="1.1" id="Layer_1" xmlns="http://www.w3.org/2000/svg" xmlns:xlink="http://www.w3.org/1999/xlink" x="0px" y="0px" width="99" height="32
	 viewBox="0 0 1800 586" style="enable-background:new 0 0 1800 586;" xml:space="preserve">
<style type="text/css">
	.st0{fill:#FFF;}
</style>
<g>
	<g>
		<g>
			<g>
				<path class="st0" d="M647.05,0.01c-105.43,0-191.21,85.78-191.21,191.21c0,105.43,85.78,191.21,191.21,191.21
					c105.43,0,191.21-85.78,191.21-191.21C838.26,85.79,752.49,0.01,647.05,0.01z M647.05,270.68c-43.82,0-79.46-35.65-79.46-79.46
					s35.65-79.46,79.46-79.46s79.46,35.65,79.46,79.46S690.87,270.68,647.05,270.68z"/>
			</g>
			<g>
				<path class="st0" d="M1335.88,0.01h-111.73c0.09,12.28,0.09,24.39,0.09,36c0,72.94-23.21,135.41-68.99,185.69
					c-7.76,8.52-16.21,16.71-25.12,24.35l-4.85,4.16l-4.85-4.15c-8.91-7.63-17.36-15.82-25.12-24.35
					c-45.78-50.27-69-112.74-69-185.68c0-11.61,0.01-23.72,0.1-36l-111.73,0c-0.09,11.82-0.11,23.83-0.11,36
					c0,250.65,208.61,345.49,210.72,346.42c2.09-0.93,210.69-95.76,210.69-346.42C1335.99,23.84,1335.97,11.83,1335.88,0.01
					L1335.88,0.01z"/>
			</g>
			<g>
				<path class="st0" d="M3.58,0.01c-0.67,0-1.34,0.02-2.01,0.05L0,0.1l0.78,382.32h111.75V146.31v-11.97l10.74,5.28
					c91.75,45.15,151.48,140.21,152.18,242.19l111.75,0C386.18,171.29,214.1,0.01,3.58,0.01z"/>
			</g>
			<g>
				<path class="st0" d="M1589.29,0.01c-2.99,1.33-210.7,96.29-210.7,346.41c0,12.17,0.02,24.18,0.11,36l111.73,0
					c-0.09-12.28-0.09-24.39-0.09-36c0-72.94,23.21-135.41,68.99-185.69c7.76-8.52,16.21-16.71,25.12-24.35l4.85-4.16l4.85,4.16
					c8.92,7.65,17.37,15.84,25.12,24.35c45.78,50.28,68.99,112.75,68.99,185.69c0,11.61-0.01,23.72-0.09,36l111.73,0
					c0.09-11.82,0.11-23.83,0.11-36C1800,96.14,1592,1.22,1589.29,0.01z"/>
			</g>
			<g>
				<path class="st0" d="M1596.44,202.9c-1.75-2.22-4.35-3.5-7.15-3.5c-2.8,0-5.41,1.28-7.16,3.5
					c-16.02,20.36-28.13,43.43-35.99,68.58c-1.03,3.33-0.44,6.86,1.63,9.68c2.07,2.81,5.25,4.42,8.72,4.42h65.59
					c3.48,0,6.66-1.61,8.72-4.42c2.07-2.82,2.66-6.35,1.62-9.67C1624.58,246.34,1612.47,223.27,1596.44,202.9z"/>
			</g>
		</g>
	</g>
	<g>
		<path class="st0" d="M151.01,585.05V491.3h39.24c6.52,0,12.19,0.98,17.01,2.95c4.82,1.96,8.59,4.88,11.32,8.77
			c2.72,3.88,4.08,8.73,4.08,14.53c0,4.11-0.69,7.86-2.07,11.25c-1.39,3.39-3.49,6.34-6.3,8.84c-2.81,2.5-6.38,4.44-10.71,5.83
			c-4.33,1.39-9.49,2.07-15.47,2.07h-28.66v39.51H151.01z M159.45,538.04h30.53c7.59,0,13.48-1.77,17.68-5.29
			c4.19-3.53,6.29-8.64,6.29-15.34c0-6.25-2.14-10.92-6.43-14c-4.28-3.08-10.31-4.62-18.08-4.62h-30V538.04z M217.44,585.05
			l-26.39-40.85l8.17-2.28l28,43.13H217.44z"/>
		<path class="st0" d="M339.85,585.05V491.3h66.7v7.5h-58.26v34.55h52.9v7.5h-52.9v36.69h59.2v7.5H339.85z"/>
		<path class="st0" d="M508.86,585.05l38.44-93.75h10.71l38.57,93.75h-9.24l-34.55-86.12h-0.27l-34.69,86.12H508.86z M525.74,560.4
			v-7.64h53.44v7.64H525.74z"/>
		<path class="st0" d="M704.54,585.05V491.3h8.44v86.25h55.04v7.5H704.54z"/>
		<path class="st0" d="M914.67,585.99c-8.66,0-16.5-1.86-23.5-5.57c-7.01-3.7-12.6-9.1-16.74-16.2c-4.15-7.1-6.23-15.78-6.23-26.05
			c0-7.68,1.23-14.51,3.68-20.49c2.46-5.98,5.87-11.03,10.25-15.14c4.37-4.11,9.4-7.23,15.07-9.37c5.67-2.14,11.73-3.22,18.15-3.22
			c4.9,0,9.56,0.49,13.93,1.47c4.37,0.99,8.49,2.24,12.32,3.75l3.62,1.61l-1.74,6.29l-4.16-1.2c-4.37-1.34-8.41-2.37-12.12-3.08
			c-3.7-0.71-7.47-1.07-11.31-1.07c-7.32,0-13.93,1.56-19.82,4.69c-5.89,3.13-10.56,7.68-13.99,13.66
			c-3.44,5.98-5.16,13.3-5.16,21.97c0,8.57,1.63,15.86,4.89,21.89c3.26,6.03,7.77,10.58,13.52,13.66
			c5.77,3.08,12.39,4.62,19.89,4.62c3.75,0,7.68-0.45,11.78-1.34c4.11-0.9,8.31-2.1,12.6-3.62l6.42-2.41l2.14,6.16l-5.75,2.54
			c-4.56,1.97-9.18,3.53-13.86,4.69C923.83,585.4,919.22,585.99,914.67,585.99z"/>
		<path class="st0" d="M1060.65,585.05V491.3h8.44v41.38h59.06V491.3h8.44v93.75h-8.44v-44.87h-59.06v44.87H1060.65z"/>
		<path class="st0" d="M1244.39,585.05l38.44-93.75h10.72l38.57,93.75h-9.25l-34.55-86.12h-0.26l-34.69,86.12H1244.39z
			 M1261.27,560.4v-7.64h53.43v7.64H1261.27z"/>
		<path class="st0" d="M1440.07,585.05V491.3h8.44v93.75H1440.07z"/>
		<path class="st0" d="M1568.77,585.05V491.3h7.63l63.89,78.35h0.26V491.3h8.45v93.75h-6.97l-64.56-79.42h-0.26v79.42H1568.77z"/>
	</g>
</g>
</svg>
